<?xml version="1.0" encoding="UTF-8"?>
<svg width="120px" height="160px" viewBox="0 0 120 160" version="1.1" xmlns="http://www.w3.org/2000/svg" xmlns:xlink="http://www.w3.org/1999/xlink">
    <!-- Generator: Sketch 53.2 (72643) - https://sketchapp.com -->
    <title>Logo_pin / Kvickly / Kvickly Shadow</title>
    <desc>Created with Sketch.</desc>
    <g id="Logo_pin-/-Kvickly-/-Kvickly-Shadow" stroke="none" stroke-width="1" fill="none" fill-rule="evenodd">
        <path d="M52.7312952,145.667021 C47.0288064,138.354283 41.4099396,130.733591 36.1509596,123.016723 C31.7732247,116.592968 27.831126,110.368989 24.4261776,104.430289 C15.808051,89.3990876 11,76.9022682 11,67.5815541 C11,37.7231626 35.4587196,13 65.325,13 C95.3460035,13 119.65,37.418774 119.65,67.5815541 C119.65,76.8616327 114.884154,89.2444727 106.336455,104.108327 C102.905551,110.074429 98.9238137,116.328684 94.4955522,122.784639 C89.237811,130.449891 83.6217005,138.014326 77.9143351,145.281263 C74.5350913,149.583906 67.8992719,158.031503 67.8992719,158.031503 C66.5361172,159.766861 64.2842356,159.796206 62.871789,158.095418 C62.871789,158.095418 56.1302395,150.025748 52.7312952,145.667021 Z" id="Shape-Copy-3" fill="#8C1419"></path>
        <path d="M41.7312952,132.667021 C36.0288064,125.354283 30.4099396,117.733591 25.1509596,110.016723 C20.7732247,103.592968 16.831126,97.3689886 13.4261776,91.4302889 C4.80805096,76.3990876 -1.84741111e-13,63.9022682 -1.84741111e-13,54.5815541 C-1.84741111e-13,24.7231626 24.4587196,-1.42108547e-14 54.325,-1.42108547e-14 C84.3460035,-1.42108547e-14 108.65,24.418774 108.65,54.5815541 C108.65,63.8616327 103.884154,76.2444727 95.3364549,91.1083266 C91.9055511,97.0744294 87.9238137,103.328684 83.4955522,109.784639 C78.237811,117.449891 72.6217005,125.014326 66.9143351,132.281263 C63.5350913,136.583906 56.8992719,145.031503 56.8992719,145.031503 C55.5361172,146.766861 53.2842356,146.796206 51.871789,145.095418 C51.871789,145.095418 45.1302395,137.025748 41.7312952,132.667021 Z" id="Shape-Copy-3" fill="#C31414"></path>
        <path d="M81.1822635,34.2224464 C81.4695013,33.7919899 81.2543865,33 80.6059064,33 L62.9363906,33 C62.6478986,33 62.4321566,33.0714295 62.2885377,33.286971 L48.3694196,53.0290731 L48.3694196,33.7180541 C48.3694196,33.286971 48.0809276,33 47.6488165,33 L32.7212303,33 C32.287865,33 32,33.286971 32,33.7180541 L32,82.2800662 C32,82.7111493 32.287865,83 32.7212303,83 L47.6488165,83 C48.0809276,83 48.3694196,82.7111493 48.3694196,82.2800662 L48.3694196,59.3700046 L61.7824221,82.6397198 C61.9272953,82.8552614 62.141783,83 62.4321566,83 L81.6143745,83 C82.1907316,83 82.5507196,82.4235517 82.1907316,81.844597 L65.2443277,56.7020514 L81.1822635,34.2224464 Z" id="Fill-3-path" fill="#FFFFFF" fill-rule="nonzero"></path>
    </g>
</svg>