<?xml version="1.0" encoding="UTF-8"?>
<svg width="120px" height="160px" viewBox="0 0 120 160" version="1.1" xmlns="http://www.w3.org/2000/svg" xmlns:xlink="http://www.w3.org/1999/xlink">
    <!-- Generator: Sketch 53.2 (72643) - https://sketchapp.com -->
    <title>Logo_pin / SuperBrugsen / SuperBrugsen Shadow</title>
    <desc>Created with Sketch.</desc>
    <g id="Logo_pin-/-SuperBrugsen-/-SuperBrugsen-Shadow" stroke="none" stroke-width="1" fill="none" fill-rule="evenodd">
        <path d="M52.7312952,145.667021 C47.0288064,138.354283 41.4099396,130.733591 36.1509596,123.016723 C31.7732247,116.592968 27.831126,110.368989 24.4261776,104.430289 C15.808051,89.3990876 11,76.9022682 11,67.5815541 C11,37.7231626 35.4587196,13 65.325,13 C95.3460035,13 119.65,37.418774 119.65,67.5815541 C119.65,76.8616327 114.884154,89.2444727 106.336455,104.108327 C102.905551,110.074429 98.9238137,116.328684 94.4955522,122.784639 C89.237811,130.449891 83.6217005,138.014326 77.9143351,145.281263 C74.5350913,149.583906 67.8992719,158.031503 67.8992719,158.031503 C66.5361172,159.766861 64.2842356,159.796206 62.871789,158.095418 C62.871789,158.095418 56.1302395,150.025748 52.7312952,145.667021 Z" id="Shape-Copy-3" fill="#AFCD88"></path>
        <path d="M41.7312952,132.667021 C36.0288064,125.354283 30.4099396,117.733591 25.1509596,110.016723 C20.7732247,103.592968 16.831126,97.3689886 13.4261776,91.4302889 C4.80805096,76.3990876 -1.84741111e-13,63.9022682 -1.84741111e-13,54.5815541 C-1.84741111e-13,24.7231626 24.4587196,-1.42108547e-14 54.325,-1.42108547e-14 C84.3460035,-1.42108547e-14 108.65,24.418774 108.65,54.5815541 C108.65,63.8616327 103.884154,76.2444727 95.3364549,91.1083266 C91.9055511,97.0744294 87.9238137,103.328684 83.4955522,109.784639 C78.237811,117.449891 72.6217005,125.014326 66.9143351,132.281263 C63.5350913,136.583906 56.8992719,145.031503 56.8992719,145.031503 C55.5361172,146.766861 53.2842356,146.796206 51.871789,145.095418 C51.871789,145.095418 45.1302395,137.025748 41.7312952,132.667021 Z" id="Shape-Copy-3" fill="#C31414"></path>
        <path d="M60.5315279,74.6981078 C60.5315279,78.4975898 58.6600647,81.9569753 54.0359741,81.9569753 C49.1936136,81.9569753 45.2849636,78.2701633 45.2849636,68.2905245 L45.2849636,67.7814231 L44.8989491,67.3849917 L40.4405821,67.3849917 L40.0565885,67.7814231 L40.0565885,85.7543708 L40.4405821,86.1508022 L43.8540825,86.1508022 L44.4037995,85.7543708 L45.0646726,82.9751781 C46.7704123,85.074178 49.7433306,87 54.7534357,87 C64.4401778,87 70,79.9143104 70,71.1260522 C70,59.1621699 59.5957963,55.193683 53.4316896,48.7297647 C51.0105093,46.3490899 49.3027486,43.5719836 49.3027486,40.281603 C49.3027486,36.5968775 51.4490703,34.1014461 55.1919968,34.1014461 C59.9272433,34.1014461 62.1281326,38.1283546 62.1281326,46.0089935 L62.1281326,46.5201813 L62.5121261,46.9166127 L66.9725141,46.9166127 L67.3565077,46.5201813 L67.3565077,29.7949493 L66.9725141,29.3964314 L63.9995958,29.3964314 L63.4498787,29.7949493 L62.1281326,32.6283905 C60.2566694,29.9639542 56.8997575,29 53.5408246,29 C45.1738076,29 40,35.1238219 40,43.9663285 C40,61.6012663 60.5315279,62.2230376 60.5315279,74.6981078" id="Fill-1" fill="#FFFFFF"></path>
    </g>
</svg>