<?xml version="1.0" encoding="UTF-8"?>
<svg width="120px" height="160px" viewBox="0 0 120 160" version="1.1" xmlns="http://www.w3.org/2000/svg" xmlns:xlink="http://www.w3.org/1999/xlink">
    <!-- Generator: Sketch 53.2 (72643) - https://sketchapp.com -->
    <title>Logo_pin / Fakta / Fakta Shadow</title>
    <desc>Created with Sketch.</desc>
    <g id="Logo_pin-/-Fakta-/-Fakta-Shadow" stroke="none" stroke-width="1" fill="none" fill-rule="evenodd">
        <path d="M52.7312952,145.667021 C47.0288064,138.354283 41.4099396,130.733591 36.1509596,123.016723 C31.7732247,116.592968 27.831126,110.368989 24.4261776,104.430289 C15.808051,89.3990876 11,76.9022682 11,67.5815541 C11,37.7231626 35.4587196,13 65.325,13 C95.3460035,13 119.65,37.418774 119.65,67.5815541 C119.65,76.8616327 114.884154,89.2444727 106.336455,104.108327 C102.905551,110.074429 98.9238137,116.328684 94.4955522,122.784639 C89.237811,130.449891 83.6217005,138.014326 77.9143351,145.281263 C74.5350913,149.583906 67.8992719,158.031503 67.8992719,158.031503 C66.5361172,159.766861 64.2842356,159.796206 62.871789,158.095418 C62.871789,158.095418 56.1302395,150.025748 52.7312952,145.667021 Z" id="Shape-Copy-3" fill="#B9D4F2"></path>
        <path d="M41.7312952,132.667021 C36.0288064,125.354283 30.4099396,117.733591 25.1509596,110.016723 C20.7732247,103.592968 16.831126,97.3689886 13.4261776,91.4302889 C4.80805096,76.3990876 -1.84741111e-13,63.9022682 -1.84741111e-13,54.5815541 C-1.84741111e-13,24.7231626 24.4587196,-1.42108547e-14 54.325,-1.42108547e-14 C84.3460035,-1.42108547e-14 108.65,24.418774 108.65,54.5815541 C108.65,63.8616327 103.884154,76.2444727 95.3364549,91.1083266 C91.9055511,97.0744294 87.9238137,103.328684 83.4955522,109.784639 C78.237811,117.449891 72.6217005,125.014326 66.9143351,132.281263 C63.5350913,136.583906 56.8992719,145.031503 56.8992719,145.031503 C55.5361172,146.766861 53.2842356,146.796206 51.871789,145.095418 C51.871789,145.095418 45.1302395,137.025748 41.7312952,132.667021 Z" id="Shape-Copy-3" fill="#C31414"></path>
        <path d="M69.1320577,42.2822425 C65.8195615,40.5885911 58.1437563,39.3530071 58.1437563,46.66269 L58.1420166,49.8292304 C64.1911495,49.8292304 68.6947988,49.6250111 68.6947988,49.6250111 C69.5988923,54.0282763 68.8606557,60.5775559 63.0492894,60.425247 C59.9803591,60.3453848 58.4400948,60.3636391 58.4400948,60.3636391 C58.4400948,63.8650307 58.4569125,87 58.4569125,87 L44.7110972,87 L44.7110972,60.3037423 C40.5727967,60.1668355 37.0080359,60.425247 37.0080359,60.425247 C35.9781001,55.7099484 37.0318126,49.568537 42.0394114,49.7048733 L44.7093575,49.7670518 L44.7122571,45.4584804 C44.7122571,36.5977576 49.6299684,29 60.866475,29 C65.5325016,29 68.0174538,29.7501352 69.9352452,31.1129284 C71.7121163,32.3753233 72.413818,34.164239 72.3448077,36.3741431 C72.2978344,37.9126334 71.9208871,40.3598426 69.1320577,42.2822425" id="Fill-1" fill="#FFFFFF" fill-rule="nonzero"></path>
    </g>
</svg>