<?xml version="1.0" encoding="UTF-8"?>
<svg width="134px" height="50px" viewBox="0 0 134 50" version="1.1" xmlns="http://www.w3.org/2000/svg" xmlns:xlink="http://www.w3.org/1999/xlink">
    <!-- Generator: Sketch 53.2 (72643) - https://sketchapp.com -->
    <title>Logo / DagliB / DagliB white</title>
    <desc>Created with Sketch.</desc>
    <g id="Logo-/-DagliB-/-DagliB-white" stroke="none" stroke-width="1" fill="none" fill-rule="evenodd">
        <path d="M120.834136,32.120944 C122.139865,32.120944 123.20077,33.1578171 123.20077,34.4675516 C123.20077,35.7772861 122.139865,36.8414454 120.834136,36.8414454 C119.528406,36.8414454 118.467501,35.7772861 118.467501,34.4675516 C118.467501,33.1578171 119.528406,32.120944 120.834136,32.120944 Z M99.235195,34.6585546 L99.4256139,34.4675516 L99.9968705,34.4675516 C100.432114,34.4675516 100.785749,34.1128319 100.785749,33.730826 L100.785749,11.9019174 C100.785749,11.4380531 100.432114,11.1924779 99.9968705,11.1924779 L99.4256139,11.1924779 L99.235195,11.0014749 L99.235195,9.36430678 L99.4256139,9.17330383 L108.647328,9.17330383 C112.782138,9.17330383 115.93765,11.0287611 115.93765,15.8856932 L115.93765,16.1312684 C115.93765,19.269174 114.52311,21.3702065 111.966057,22.4616519 C114.577516,23.2256637 116.481704,25.3812684 116.481704,28.4646018 L116.481704,29.5287611 C116.454502,34.4402655 112.972557,36.5140118 108.892152,36.5140118 L108.892152,36.4867257 L99.4256139,36.4867257 L99.235195,36.2957227 L99.235195,34.6585546 Z M109.559227,18.0069994 L109.559227,13.3245289 C109.559227,11.2174171 108.646756,10.7231563 106.92046,10.7231563 L106.279265,10.7231563 C105.884683,10.7231563 105.564085,10.9832936 105.564085,11.3995132 L105.564085,20.7644543 L106.969783,20.7644543 C108.671418,20.7644543 109.559227,20.1401249 109.559227,18.0069994 Z M106.293535,33.8181416 L107.38771,33.8181416 C109.323559,33.8181416 110.558013,33.1627044 110.558013,31.0128704 L110.558013,26.7394198 C110.558013,24.5895858 109.323559,23.7768437 107.38771,23.7768437 L105.592141,23.7768437 L105.564085,23.7768437 L105.564085,33.2151394 C105.564085,33.5559667 105.760475,33.8181416 106.293535,33.8181416 Z M78.7787675,8 C80.3837265,8 81.6622532,9.25516224 81.6622532,10.8650442 C81.6622532,12.4749263 80.3837265,13.7573746 78.7787675,13.7573746 C77.1738084,13.7573746 75.8952817,12.4476401 75.8952817,10.8650442 C75.8952817,9.25516224 77.1738084,8 78.7787675,8 Z M74.4807415,34.6858407 L74.6711603,34.4948378 L75.3784304,34.4948378 C75.9768897,34.4948378 76.2761194,34.2219764 76.2761194,33.6762537 L76.2761194,19.6511799 C76.2761194,19.1873156 75.949687,18.8053097 75.3784304,18.8053097 L74.6711603,18.8053097 L74.4807415,18.6143068 L74.4807415,16.9771386 L74.6711603,16.7861357 L82.9135773,16.7861357 L83.1039961,16.9771386 L83.1039961,18.6143068 L82.9135773,18.8053097 L82.2063072,18.8053097 C81.6078479,18.8053097 81.3086182,19.1054572 81.3086182,19.6511799 L81.3086182,33.6762537 C81.3086182,34.2219764 81.6350506,34.4948378 82.2063072,34.4948378 L82.8863746,34.4948378 L83.0767935,34.6858407 L83.0767935,36.3230088 L82.9135773,36.5140118 L74.6711603,36.5140118 L74.4807415,36.3230088 L74.4807415,34.6858407 L74.4807415,34.6858407 Z M10.5,34.6585546 L10.6904189,34.4675516 L11.2616755,34.4675516 C11.6969186,34.4675516 12.0505537,34.1128319 12.0505537,33.730826 L12.0505537,11.9019174 C12.0505537,11.4380531 11.6969186,11.1924779 11.2616755,11.1924779 L10.6904189,11.1924779 L10.5,11.0014749 L10.5,9.36430678 L10.6904189,9.17330383 L20.5105922,9.17330383 C24.5909966,9.17330383 27.7193067,11.8746313 27.7193067,16.7588496 L27.7193067,28.9284661 C27.7193067,33.8126844 24.5909966,36.5140118 20.5105922,36.5140118 L20.5105922,36.4867257 L10.6904189,36.4867257 L10.5,36.2957227 C10.5,36.2957227 10.5,34.6585546 10.5,34.6585546 Z M17.4857874,33.8181416 L18.6080184,33.8181416 C20.5719226,33.8181416 21.6660978,32.8986691 21.6660978,30.6811178 L21.6660978,13.6708769 C21.6660978,11.4533257 20.5719226,10.7231563 18.6080184,10.7231563 L17.4857874,10.7231563 C17.036895,10.7231563 16.67217,11.0747193 16.67217,11.4262824 L16.67217,33.0879723 C16.67217,33.5206652 17.036895,33.8181416 17.4857874,33.8181416 Z M44.8570053,41.4800885 L44.6937891,41.6438053 L10.6632162,41.6438053 L10.5,41.4800885 L10.5,40.0612094 L10.6632162,39.8974926 L44.6937891,39.8974926 L44.8570053,40.0612094 L44.8570053,41.4800885 Z M45.9179104,36.350295 L45.7274916,36.5412979 L39.4708714,36.5412979 L39.2804526,36.350295 L39.2804526,35.0132743 C37.8659124,36.6504425 36.0705344,36.9233038 34.8736158,36.9233038 C31.6909003,36.9233038 30.0587386,34.9314159 30.0043332,32.0936578 L30.0043332,31.8480826 C30.0043332,28.9557522 31.3916707,27.9734513 34.6287915,26.1452802 L37.4034665,24.5899705 C38.709196,23.8532448 39.3620607,22.7890855 39.3620607,21.5066372 C39.3620607,19.8148968 38.2467501,18.6688791 36.560183,18.6688791 C35.4992778,18.6688791 34.5743861,19.0781711 34.139143,19.5966077 C35.036832,20.0331858 35.662494,20.879056 35.662494,21.9432153 C35.662494,23.2256637 34.7103996,24.2079646 33.2958594,24.2079646 C31.7725084,24.2079646 30.7932114,23.0619469 30.7932114,21.4247788 C30.7932114,18.4778761 33.9215214,16.3768437 37.6210881,16.3768437 C40.8854117,16.3768437 44.1225325,18.0412979 44.1225325,22.8982301 L44.1225325,33.7035398 C44.1225325,34.1674041 44.5033702,34.5221239 45.0202215,34.5221239 L45.7274916,34.5221239 L45.9179104,34.7131268 L45.9179104,36.350295 Z M35.6490956,31.3909404 L35.6490956,32.853911 C35.6490956,34.3700805 36.4872374,34.8222714 37.4371313,34.8222714 C39.197229,34.8222714 39.6442379,33.4124998 39.6442379,32.2687228 L39.6442379,26.789233 L37.2415649,28.1990047 C35.9564143,28.9437897 35.6490956,29.6087763 35.6490956,31.3909404 Z M54.5139624,45 C52.6097737,45 50.2703418,44.7817109 48.6653828,43.7175516 C47.5500722,42.9535398 46.9244102,41.9166667 46.9244102,40.579646 C46.9244102,38.6696165 48.2029369,37.3871681 50.1343284,36.95059 C48.284545,36.4321534 47.7676938,34.8768437 47.7676938,33.8126844 C47.7676938,32.1755162 49.0190178,30.7839233 50.5695715,30.0744838 C48.6109774,28.9830383 47.1692345,26.7728614 47.1692345,23.7986726 L47.1692345,23.4439528 C47.1692345,19.2964602 50.5151661,16.6224189 53.6706789,16.4587021 L53.6706789,14.3576696 C53.6706789,11.7109145 55.3028406,9.20058997 58.4311507,9.20058997 C60.8793934,9.20058997 62.4843524,10.7013274 62.4843524,12.6659292 C62.4843524,14.2485251 61.3962446,15.5036873 59.7912855,15.5036873 C58.3223399,15.5036873 57.2614348,14.439528 57.2614348,13.1570796 C57.2614348,12.6386431 57.4246509,11.7927729 57.778286,11.2743363 C57.3158402,11.2743363 56.254935,11.8746313 56.254935,13.429941 C56.254935,17.1408555 62.2939336,16.649705 62.2939336,23.4166667 L62.2939336,23.9896755 C62.2939336,28.9011799 58.5127588,31.1386431 54.7043813,31.1386431 C53.9971112,31.1386431 53.2354357,31.0840708 52.5281656,30.8384956 C51.6304766,31.0294985 51.0864227,31.4933628 51.0864227,32.2846608 C51.0864227,33.2123894 51.9025036,33.4852507 52.3377468,33.4852507 L58.2679345,33.730826 C59.6280693,33.7581121 60.7977853,34.0036873 61.6954742,34.54941 C63.0284064,35.340708 63.8716899,36.7050147 63.8716899,38.7787611 C63.8716899,43.6629794 59.02961,45 54.5139624,45 Z M55.1521422,37.864194 C55.0002142,37.864194 52.4934031,37.8346608 52.2148686,37.8346608 C51.075409,37.8346608 49.6574148,38.4253254 49.6320935,40.1973191 C49.6320935,42.4713778 51.9616553,42.8553097 53.4809348,42.8553097 L54.8229649,42.8553097 C56.8486709,42.8553097 58.6211636,42.2646452 58.6211636,40.1087194 C58.6211636,37.9823269 56.9246348,37.8937272 55.1521422,37.864194 Z M55.1254141,27.7933628 C56.2867927,27.7933628 57.622378,27.147274 57.622378,25.8012555 L57.622378,19.798013 C57.622378,18.4519945 56.2867927,17.7520649 55.1254141,17.7520649 C53.9640355,17.7520649 52.6284502,18.4519945 52.6284502,19.798013 L52.6284502,25.6666536 C52.6284502,27.0934332 53.9640355,27.7933628 55.1254141,27.7933628 Z M64.225325,36.2957227 L64.225325,34.6585546 L64.4157439,34.4675516 L65.123014,34.4675516 C65.7214733,34.4675516 66.0207029,34.1946903 66.0207029,33.6489676 L66.0207029,10.8650442 C66.0207029,10.4011799 65.6942706,10.019174 65.123014,10.019174 L64.4157439,10.019174 L64.225325,9.82817109 L64.225325,8.19100295 L64.4157439,8 L70.8899856,8 L71.0804044,8.19100295 L71.0804044,33.6762537 C71.0804044,34.2219764 71.4068368,34.4948378 71.9780934,34.4948378 L71.9780934,34.4675516 L72.6853635,34.4675516 L72.8757824,34.6585546 L72.8757824,36.2957227 L72.6853635,36.4867257 L64.4157439,36.4867257 L64.225325,36.2957227 Z M85.7426577,41.4800885 L85.5794415,41.6438053 L66.7823784,41.6438053 L66.6191623,41.4800885 L66.6191623,40.0612094 L66.7823784,39.8974926 L85.5794415,39.8974926 L85.7426577,40.0612094 L85.7426577,41.4800885 Z M86.1234954,20.660767 L86.1234954,20.660767 L85.9330766,20.6334808 L85.0353876,19.7057522 L85.0353876,19.5147493 C87.1299952,17.1954277 87.9732788,15.9675516 88.49013,15.230826 C86.6403467,15.230826 85.443428,13.7846608 85.443428,11.9837758 C85.443428,9.88274336 87.0755898,8.79129794 88.7893597,8.79129794 C90.91117,8.79129794 92.1896967,10.4011799 92.1896967,12.5022124 C92.1896967,15.1489676 90.0950891,18.2323009 86.1234954,20.660767 Z M123.5,41.4800885 L123.336784,41.6438053 L99.3984112,41.6438053 L99.235195,41.4800885 L99.235195,40.0612094 L99.3984112,39.8974926 L123.336784,39.8974926 L123.5,40.0612094 L123.5,41.4800885 Z" id="Shape" fill="#FFFFFF" fill-rule="nonzero"></path>
    </g>
</svg>