<?xml version="1.0" encoding="UTF-8"?>
<svg width="134px" height="50px" viewBox="0 0 134 50" version="1.1" xmlns="http://www.w3.org/2000/svg" xmlns:xlink="http://www.w3.org/1999/xlink">
    <!-- Generator: Sketch 53.2 (72643) - https://sketchapp.com -->
    <title>Logo / DagliB / DagliB dark</title>
    <desc>Created with Sketch.</desc>
    <g id="Logo-/-DagliB-/-DagliB-dark" stroke="none" stroke-width="1" fill="none" fill-rule="evenodd">
        <g id="Group" transform="translate(10.500000, 5.961538)" fill="#333333">
            <path d="M9.92788462,29.1625962 C13.9855769,29.1625962 17.0769231,26.5000962 17.0769231,21.6789423 L17.0769231,9.64336538 C17.0769231,4.81932692 13.9855769,2.15682692 9.92788462,2.15682692 L0.192307692,2.15682692 L3.48165941e-13,2.35105769 L3.48165941e-13,3.97125 L0.192307692,4.16451923 L0.771153846,4.16451923 C1.19519231,4.16451923 1.54423077,4.39528846 1.54423077,4.85875 L1.54423077,26.4241346 C1.54423077,26.8097115 1.19519231,27.1577885 0.771153846,27.1577885 L0.192307692,27.1577885 L3.48165941e-13,27.3510577 L3.48165941e-13,28.97125 L0.192307692,29.1625962 L9.92788462,29.1625962 Z M6.87692308,4.85875 C6.87692308,4.50971154 7.225,4.16451923 7.65,4.16451923 L8.73269231,4.16451923 C10.625,4.16451923 11.6663462,4.89721154 11.6663462,7.09625 L11.6663462,24.0318269 C11.6663462,26.2308654 10.625,27.1577885 8.73269231,27.1577885 L7.65,27.1577885 C7.225,27.1577885 6.87692308,26.8481731 6.87692308,26.4241346 L6.87692308,4.85875 Z" id="Fill-1"></path>
            <path d="M24.1861538,29.5499038 C25.3842308,29.5499038 27.1611538,29.2797115 28.5534615,27.6595192 L28.5534615,28.9710577 L28.7448077,29.1652885 L34.965,29.1652885 L35.1601923,28.9710577 L35.1601923,27.3508654 L34.965,27.1575962 L34.2707692,27.1575962 C33.7678846,27.1575962 33.3823077,26.8114423 33.3823077,26.3479808 L33.3823077,15.6999038 C33.3823077,10.9152885 30.1755769,9.25567308 26.9303846,9.25567308 C23.2582692,9.25567308 20.1678846,11.3393269 20.1678846,14.2345192 C20.1678846,15.8547115 21.1351923,16.9720192 22.6419231,16.9720192 C24.0313462,16.9720192 24.9986538,16.0085577 24.9986538,14.7345192 C24.9986538,13.6922115 24.3803846,12.8441346 23.4909615,12.4200962 C23.9159615,11.9181731 24.8438462,11.4941346 25.8871154,11.4941346 C27.5467308,11.4941346 28.6688462,12.6143269 28.6688462,14.3104808 C28.6688462,15.5854808 28.0111538,16.6239423 26.7371154,17.3595192 L23.9919231,18.9018269 C20.7861538,20.7152885 19.3967308,21.67875 19.3967308,24.5345192 L19.3967308,24.7643269 C19.3967308,27.5816346 21.0198077,29.5499038 24.1861538,29.5499038 L24.1861538,29.5499038 Z M24.4957692,23.4931731 C24.4957692,21.67875 24.8053846,21.0239423 26.0419231,20.2527885 L28.3592308,18.8258654 L28.3592308,24.3806731 C28.3592308,25.5374038 27.9342308,26.9643269 26.2332692,26.9643269 C25.3053846,26.9643269 24.4957692,26.5008654 24.4957692,24.9585577 L24.4957692,23.4931731 Z" id="Fill-4"></path>
            <path d="M98.7283654,29.0104808 C102.765865,29.0104808 106.187981,26.9749038 106.226442,22.1374038 L106.226442,21.0989423 C106.226442,18.0652885 104.342788,15.95375 101.765865,15.1854808 C104.304327,14.1095192 105.688942,12.0364423 105.688942,8.96336538 L105.688942,8.73355769 C105.688942,3.97105769 102.574519,2.12778846 98.4966346,2.12778846 L98.4966346,2.12875 L89.3822115,2.12875 L89.1899038,2.32201923 L89.1899038,3.93355769 L89.3822115,4.12682692 L89.9572115,4.12682692 C90.38125,4.12682692 90.7274038,4.35663462 90.7274038,4.81625 L90.7274038,26.2854808 C90.7274038,26.6681731 90.38125,27.0133654 89.9572115,27.0133654 L89.3822115,27.0133654 L89.1899038,27.2056731 L89.1899038,28.8191346 L89.3822115,29.0104808 L98.7283654,29.0104808 Z M96.0350962,4.81625 C96.0350962,4.39413462 96.3822115,4.12682692 96.8052885,4.12682692 L97.4966346,4.12682692 C99.38125,4.12682692 100.38125,4.62394231 100.38125,6.81432692 L100.382212,6.81432692 L100.382212,11.6527885 C100.382212,13.84125 99.4197115,14.4931731 97.5735577,14.4931731 L96.0350962,14.4931731 L96.0350962,4.81625 Z M96.0350962,16.7220192 L97.7658654,16.7220192 C99.6129808,16.7220192 100.803365,17.56625 100.803365,19.7556731 L100.803365,24.1345192 C100.803365,26.3239423 99.6129808,27.0152885 97.7658654,27.0152885 L96.7264423,27.0152885 C96.2283654,27.0152885 96.0350962,26.7450962 96.0350962,26.4008654 L96.0350962,16.7220192 Z" id="Fill-6"></path>
            <path d="M75.0326923,13.5014423 C78.9730769,11.1091346 81.0596154,8.06201923 81.0596154,5.43894231 C81.0596154,3.35528846 79.7855769,1.77451923 77.6980769,1.77451923 C75.9971154,1.77451923 74.3740385,2.85336538 74.3740385,4.93701923 C74.3740385,6.71105769 75.5730769,8.13798077 77.3894231,8.13798077 C76.8865385,8.87067308 76.0365385,10.0668269 73.95,12.3831731 L73.95,12.5745192 L74.8384615,13.5014423 L75.0326923,13.5014423 Z" id="Fill-8"></path>
            <path d="M67.7291346,5.67211538 C69.3127885,5.67211538 70.5897115,4.4 70.5897115,2.81634615 C70.5897115,1.23557692 69.3127885,0 67.7291346,0 C66.1454808,0 64.8685577,1.23557692 64.8685577,2.81634615 C64.8685577,4.4 66.1454808,5.67211538 67.7291346,5.67211538" id="Fill-10"></path>
            <path d="M36.1270192,33.1749038 C36.1270192,34.4864423 36.7433654,35.5306731 37.8654808,36.2633654 C39.4481731,37.3027885 41.7654808,37.5354808 43.65875,37.5354808 C48.1414423,37.5354808 52.93375,36.2249038 52.93375,31.4027885 C52.93375,29.3556731 52.08375,28.0056731 50.7683654,27.2354808 C49.8799038,26.6941346 48.7202885,26.4633654 47.3674038,26.4239423 L41.4952885,26.1941346 C41.07125,26.1941346 40.2606731,25.9239423 40.2606731,24.9979808 C40.2606731,24.2258654 40.8010577,23.7624038 41.6895192,23.5710577 C42.3847115,23.8008654 43.1577885,23.8777885 43.8529808,23.8777885 C47.6404808,23.8777885 51.3866346,21.67875 51.3866346,16.8181731 L51.3866346,16.2393269 C51.3866346,9.56432692 45.3991346,10.0277885 45.3991346,6.36336538 C45.3991346,4.82105769 46.4424038,4.24317308 46.9039423,4.24317308 C46.5577885,4.74317308 46.4039423,5.59125 46.4039423,6.09317308 C46.4039423,7.36625 47.44625,8.40759615 48.9145192,8.40759615 C50.4981731,8.40759615 51.5808654,7.17490385 51.5808654,5.59125 C51.5808654,3.66240385 49.9972115,2.15951923 47.5625962,2.15951923 C44.47125,2.15951923 42.8481731,4.62778846 42.8481731,7.25086538 L42.8481731,9.33451923 C39.7183654,9.48836538 36.3972115,12.1508654 36.3972115,16.2393269 L36.3972115,16.5874038 C36.3972115,19.5191346 37.8260577,21.7181731 39.7577885,22.7989423 C38.2106731,23.4931731 36.9760577,24.8825962 36.9760577,26.5027885 C36.9760577,27.5450962 37.4770192,29.0864423 39.3327885,29.5893269 C37.4010577,30.0124038 36.1270192,31.2854808 36.1270192,33.1749038 L36.1270192,33.1749038 Z M41.6116346,13.5383654 C41.6116346,12.1902885 42.8481731,11.4941346 43.9308654,11.4941346 C45.0116346,11.4941346 46.2481731,12.1902885 46.2481731,13.5383654 L46.2481731,19.5585577 C46.2481731,20.9066346 45.0116346,21.5633654 43.9308654,21.5633654 C42.8481731,21.5633654 41.6116346,20.8700962 41.6116346,19.4431731 L41.6116346,13.5383654 Z M42.1145192,30.59125 C42.4241346,30.59125 45.0895192,30.6306731 45.2443269,30.6306731 C47.1375962,30.6681731 48.9539423,30.7460577 48.9539423,32.6749038 C48.9539423,34.6431731 47.0616346,35.1825962 44.89625,35.1825962 L43.4674038,35.1825962 C41.8443269,35.1825962 39.3722115,34.8354808 39.3722115,32.7518269 C39.3722115,31.1306731 40.8770192,30.59125 42.1145192,30.59125 L42.1145192,30.59125 Z" id="Fill-13"></path>
            <path d="M72.0179808,28.9710577 L72.0179808,27.3508654 L71.82375,27.1575962 L71.1295192,27.1575962 C70.5497115,27.1575962 70.2400962,26.8874038 70.2400962,26.3479808 L70.2400962,12.4989423 C70.2400962,11.9575962 70.5497115,11.6508654 71.1295192,11.6508654 L71.82375,11.6508654 L72.0179808,11.4575962 L72.0179808,9.83644231 L71.82375,9.64317308 L63.6343269,9.64317308 L63.4400962,9.83644231 L63.4400962,11.4575962 L63.6343269,11.6508654 L64.3285577,11.6508654 C64.9083654,11.6508654 65.2179808,12.0354808 65.2179808,12.4989423 L65.2179808,26.3479808 C65.2179808,26.8874038 64.9083654,27.1575962 64.3285577,27.1575962 L63.6343269,27.1575962 L63.4400962,27.3508654 L63.4400962,28.9710577 L63.6343269,29.1652885 L71.82375,29.1652885 L72.0179808,28.9710577 Z" id="Fill-15"></path>
            <path d="M61.0076923,27.1573077 C60.4278846,27.1573077 60.1192308,26.8880769 60.1192308,26.3457692 L60.1192308,1.19384615 L59.925,0.999615385 L53.5125,0.999615385 L53.3182692,1.19384615 L53.3182692,2.81403846 L53.5125,3.00730769 L54.2076923,3.00730769 C54.7865385,3.00730769 55.0961538,3.39288462 55.0961538,3.85538462 L55.0961538,26.3457692 C55.0961538,26.8880769 54.7865385,27.1573077 54.2076923,27.1573077 L53.5125,27.1573077 L53.3182692,27.3505769 L53.3182692,28.9707692 L53.5125,29.1621154 L61.7019231,29.1621154 L61.8961538,28.9707692 L61.8961538,27.3505769 L61.7019231,27.1573077 L61.0076923,27.1573077 Z" id="Fill-17"></path>
            <path d="M110.400692,28.8384617 C111.728781,28.8384617 112.800289,27.7619402 112.800289,26.4217808 C112.800289,25.0840625 111.728781,24.0384615 110.400692,24.0384615 C109.071796,24.0384615 108.000288,25.0840625 108.000288,26.4217808 C108.000288,27.7619402 109.071796,28.8384617 110.400692,28.8384617" id="Fill-20"></path>
            <polygon id="Fill-22" points="34.0002885 33.2346154 34.0002885 33.2528846 34.0002885 34.8413462 34.0002885 34.8586538 33.8013383 35.0548077 0.207040606 35.0548077 0.000288461539 34.8586538 0.000288461539 34.8413462 0.000288461539 33.2528846 0.000288461539 33.2346154 0.197288146 33.0384615 33.7769571 33.0384615"></polygon>
            <polygon id="Fill-24" points="75.2313361 33.0384615 75.4629808 33.2346154 75.4629808 33.2528846 75.4629808 34.8413462 75.4629808 34.8586538 75.2313361 35.0548077 75.2029483 35.0548077 56.2421527 35.0548077 56.2307976 35.0548077 56.0002885 34.8586538 56.0002885 34.8413462 56.0002885 33.2528846 56.0002885 33.2346154 56.2307976 33.0384615 56.2421527 33.0384615 75.2029483 33.0384615"></polygon>
            <polygon id="Fill-26" points="112.611263 32.6488462 112.798083 32.845 112.798083 32.8632692 112.798083 34.4517308 112.798083 34.4690385 112.611263 34.6651923 112.588369 34.6651923 90.0774817 34.6651923 90.0683239 34.6651923 89.8833355 34.4690385 89.8833355 34.4517308 89.8833355 32.8632692 89.8833355 32.845 90.0683239 32.6488462 90.0774817 32.6488462 112.588369 32.6488462"></polygon>
        </g>
    </g>
</svg>