<?xml version="1.0" encoding="UTF-8"?>
<svg width="134px" height="50px" viewBox="0 0 134 50" version="1.1" xmlns="http://www.w3.org/2000/svg" xmlns:xlink="http://www.w3.org/1999/xlink">
    <!-- Generator: Sketch 53.2 (72643) - https://sketchapp.com -->
    <title>Logo / Fakta / Fakta box color</title>
    <desc>Created with Sketch.</desc>
    <g id="Logo-/-Fakta-/-Fakta-box-color" stroke="none" stroke-width="1" fill="none" fill-rule="evenodd">
        <path d="M4,0 L130,0 C132.209139,-4.05812251e-16 134,1.790861 134,4 L134,46 C134,48.209139 132.209139,50 130,50 L4,50 C1.790861,50 2.705415e-16,48.209139 0,46 L0,4 C-2.705415e-16,1.790861 1.790861,4.05812251e-16 4,0 Z" id="Rectangle-Copy-30" fill="#C31414"></path>
        <path d="M41.0681853,33.5830356 C41.0681853,35.0717364 42.3234144,35.5461288 43.9010744,35.5461288 C45.5965399,35.5461288 47.2943441,34.1986682 47.2092785,32.3203192 C45.4115003,31.4667624 41.0681853,31.4091015 41.0681853,33.5830356 Z M55.2826177,37.2156752 C54.8888604,38.9053157 53.5760439,39.9385532 51.3470914,39.9688398 C48.9906866,40 47.9438828,38.8357148 47.3709323,37.2523686 C47.2811896,37.3624486 46.2270777,40 41.3643071,40 C38.0467488,40 34.5777678,38.1277666 34.5777678,34.3460239 C34.5777678,29.0814048 40.6609812,28.388891 42.5230701,28.388891 C44.2313978,28.388891 45.737439,28.6128368 47.1888159,28.9072571 C47.1888159,26.5516036 45.5272597,25.8570513 42.8112993,25.8570513 C40.5165743,25.8570513 38.8550181,26.5559719 37.6953781,27.2997398 C36.4763969,26.7871981 35.8081496,26.0061544 35.8081496,24.6851945 C35.8081496,21.4081308 39.9971188,20.6602858 44.0624359,20.6602858 C50.0711074,20.6602858 53.3269859,22.8313078 53.5991373,28.0676788 C53.6526322,29.1006251 53.6195998,30.1996777 53.6195998,31.3016425 C53.6195998,33.7370894 53.441576,36.3644482 55.2826177,37.2156752 Z M101.285275,33.5830356 C101.285275,35.0717364 102.541674,35.5461288 104.118164,35.5461288 C105.813922,35.5461288 107.511726,34.1986682 107.426953,32.3203192 C105.628883,31.4667624 101.285275,31.4091015 101.285275,33.5830356 Z M115.5,37.2156752 C115.105366,38.9053157 113.793134,39.9385532 111.564181,39.9688398 C109.208654,40 108.162142,38.8357148 107.588899,37.2523686 C107.498572,37.3624486 106.444168,40 101.581689,40 C98.2638387,40 94.796027,38.1277666 94.796027,34.3460239 C94.796027,29.0814048 100.878364,28.388891 102.741037,28.388891 C104.44878,28.388891 105.954529,28.6128368 107.406198,28.9072571 C107.406198,26.5516036 105.824738,25.8570513 103.028389,25.8570513 C100.733664,25.8570513 99.0726927,26.5559719 97.9127604,27.2997398 C96.6934868,26.7871981 96.0264088,26.0061544 96.0264088,24.6851945 C96.0264088,21.4081308 100.214793,20.6602858 104.279818,20.6602858 C110.373555,20.6602858 113.544661,22.8313078 113.817689,28.0676788 C113.870891,29.1006251 113.837567,30.1996777 113.837567,31.3016425 C113.837567,33.7370894 113.659835,36.3644482 115.5,37.2156752 Z M92.8006395,33.2324105 C93.3855751,34.0900443 93.5285204,35.2301584 93.5285204,35.9142269 C93.5285204,39.4236818 89.0171204,39.7789664 87.6183613,39.7789664 C82.8698885,39.7789664 80.7049544,36.8886387 80.7049544,33.168634 C80.7049544,30.504873 80.7040774,26.0113963 80.7040774,26.0113963 C79.9671345,25.9528617 77.1652315,26.0425565 77.1652315,26.0425565 C76.594035,23.6167197 77.0579495,20.6011688 79.7017065,20.6011688 L80.7029081,20.6011688 L80.6988156,16.3109614 C80.6988156,12.0720082 87.4757084,14.1148948 87.4757084,14.1148948 C87.4757084,14.1582861 87.4733698,20.6332026 87.4733698,20.6332026 C90.2124236,20.6332026 92.4492689,20.5138037 92.4492689,20.5138037 C92.8859974,22.7238487 92.5542123,26.0658538 89.6245648,26.0326551 C88.1185237,26.0151821 87.6245001,26.0113963 87.6245001,26.0113963 C87.6245001,26.2088413 87.6280079,30.1626932 87.6280079,30.9818863 C87.6280079,33.6715656 89.0299825,33.8623127 90.1270657,33.8623127 C91.0879269,33.8623127 92.1201147,33.5699309 92.8006395,33.2324105 Z M63.6111537,11.2510678 C63.6096921,11.2784422 63.6093998,37.7334589 63.6093998,39.6123903 L56.7731658,39.6123903 C56.7725811,38.539256 56.7714118,13.4477169 56.7714118,13.4477169 C56.7714118,9.20789004 63.6111537,11.2510678 63.6111537,11.2510678 Z M76.5303089,36.032461 C77.2377273,36.9165955 77.7598138,37.5925099 78.0307959,37.7803448 C78.0307959,37.7803448 75.9088331,39.7839171 72.6345383,39.7839171 C70.4143554,39.7839171 69.7066447,38.8491108 69.1638034,38.1181564 C68.8539425,37.7005514 67.8281858,36.0315873 66.5554174,33.8448396 C65.7638103,32.4871865 64.8748602,30.9521822 64.1683188,29.4483381 C64.9941275,27.9520657 67.6042674,22.9600256 68.0713974,22.1958725 C68.840788,20.9381067 70.4465108,20.4744894 72.7543902,20.4744894 C74.6313875,20.4744894 76.1602297,20.7569698 76.803045,21.1113808 C76.6159592,21.252621 76.2754044,21.7532228 75.9430347,22.2212084 C75.7889812,22.4390386 71.8400081,28.2086278 71.5143618,29.0161722 C72.1577617,30.2742292 75.1064102,34.2545818 76.5303089,36.032461 Z M34.8730126,16.7806943 C33.2032714,15.9160713 29.3341021,15.2852955 29.3341021,19.0166576 L29.3335174,20.6332026 C32.3824322,20.6332026 34.6526021,20.5292382 34.6526021,20.5292382 C35.1083316,22.7771414 34.7362061,26.1206026 31.8068509,26.0425565 C30.2598847,26.0020773 29.4834784,26.0113963 29.4834784,26.0113963 C29.4834784,27.7988856 29.4919558,39.6094781 29.4919558,39.6094781 L22.5630558,39.6094781 L22.5630558,25.9808185 C20.4773408,25.9109265 18.6801473,26.0425565 18.6801473,26.0425565 C18.1609841,23.6353576 18.6924248,20.5001165 21.2163299,20.5700085 L22.5621788,20.60146 L22.5636404,18.40219 C22.5636404,13.8787179 25.042528,10 30.7068445,10 C33.0585722,10 34.3111704,10.382659 35.2778781,11.0786674 C36.1735516,11.7231304 36.5272608,12.6363866 36.4927669,13.7645608 C36.4690888,14.5499728 36.2787874,15.7992933 34.8730126,16.7806943 Z" id="Combined-Shape-Copy-8" fill="#FFFFFF"></path>
    </g>
</svg>