<?xml version="1.0" encoding="UTF-8"?>
<svg width="109px" height="149px" viewBox="0 0 109 149" version="1.1" xmlns="http://www.w3.org/2000/svg" xmlns:xlink="http://www.w3.org/1999/xlink">
    <!-- Generator: Sketch 53.2 (72643) - https://sketchapp.com -->
    <title>Logo_pin / SuperBrugsen / SuperBrugsen Solid</title>
    <desc>Created with Sketch.</desc>
    <g id="Logo_pin-/-SuperBrugsen-/-SuperBrugsen-Solid" stroke="none" stroke-width="1" fill="none" fill-rule="evenodd">
        <path d="M41.7312952,132.667021 C36.0288064,125.354283 30.4099396,117.733591 25.1509596,110.016723 C20.7732247,103.592968 16.831126,97.3689886 13.4261776,91.4302889 C4.80805096,76.3990876 -1.84741111e-13,63.9022682 -1.84741111e-13,54.5815541 C-1.84741111e-13,24.7231626 24.4587196,-1.42108547e-14 54.325,-1.42108547e-14 C84.3460035,-1.42108547e-14 108.65,24.418774 108.65,54.5815541 C108.65,63.8616327 103.884154,76.2444727 95.3364549,91.1083266 C91.9055511,97.0744294 87.9238137,103.328684 83.4955522,109.784639 C78.237811,117.449891 72.6217005,125.014326 66.9143351,132.281263 C63.5350913,136.583906 56.8992719,145.031503 56.8992719,145.031503 C55.5361172,146.766861 53.2842356,146.796206 51.871789,145.095418 C51.871789,145.095418 45.1302395,137.025748 41.7312952,132.667021 Z" id="Shape-Copy-7" fill="#C31414"></path>
        <g id="SB.-Copy-2" transform="translate(40.000000, 29.000000)" fill="#FFFFFF">
            <path d="M20.5315279,45.6981078 C20.5315279,49.4975898 18.6600647,52.9569753 14.0359741,52.9569753 C9.19361358,52.9569753 5.28496362,49.2701633 5.28496362,39.2905245 L5.28496362,38.7814231 L4.89894907,38.3849917 L0.440582053,38.3849917 L0.0565885206,38.7814231 L0.0565885206,56.7543708 L0.440582053,57.1508022 L3.85408246,57.1508022 L4.40379951,56.7543708 L5.06467259,53.9751781 C6.77041229,56.074178 9.74333064,58 14.7534357,58 C24.4401778,58 30,50.9143104 30,42.1260522 C30,30.1621699 19.5957963,26.193683 13.4316896,19.7297647 C11.0105093,17.3490899 9.30274859,14.5719836 9.30274859,11.281603 C9.30274859,7.59687747 11.4490703,5.10144615 15.1919968,5.10144615 C19.9272433,5.10144615 22.1281326,9.12835456 22.1281326,17.0089935 L22.1281326,17.5201813 L22.5121261,17.9166127 L26.9725141,17.9166127 L27.3565077,17.5201813 L27.3565077,0.794949277 L26.9725141,0.396431398 L23.9995958,0.396431398 L23.4498787,0.794949277 L22.1281326,3.62839053 C20.2566694,0.963954241 16.8997575,0 13.5408246,0 C5.1738076,0 0,6.12382186 0,14.9663285 C0,32.6012663 20.5315279,33.2230376 20.5315279,45.6981078" id="Fill-1"></path>
        </g>
    </g>
</svg>