<?xml version="1.0" encoding="UTF-8"?>
<svg width="134px" height="50px" viewBox="0 0 134 50" version="1.1" xmlns="http://www.w3.org/2000/svg" xmlns:xlink="http://www.w3.org/1999/xlink">
    <!-- Generator: Sketch 53.2 (72643) - https://sketchapp.com -->
    <title>Logo / MAD / MAD box dark</title>
    <desc>Created with Sketch.</desc>
    <g id="Logo-/-MAD-/-MAD-box-dark" stroke="none" stroke-width="1" fill="none" fill-rule="evenodd">
        <path d="M4,0 L130,0 C132.209139,-4.05812251e-16 134,1.790861 134,4 L134,46 C134,48.209139 132.209139,50 130,50 L4,50 C1.790861,50 2.705415e-16,48.209139 0,46 L0,4 C-2.705415e-16,1.790861 1.790861,4.05812251e-16 4,0 Z" id="Rectangle-Copy-28" fill="#333333" opacity="0.0951450893"></path>
        <path d="M68.8915489,11.0753562 C65.3791337,11.0753562 62.5891816,12.66796 61.8609273,15.4738382 C61.1370165,12.6650643 58.3470644,11.0753562 54.8375449,11.0753562 C51.6523375,11.0753562 49.0462586,12.3856348 48.053053,14.7383448 C47.0583996,12.3856348 44.4624556,11.0753562 41.2714568,11.0753562 C37.1741218,11.0753562 34.0584098,13.2470886 34.0584098,16.9853639 C34.0500484,17.8552528 34.2454058,18.7150241 34.6288515,19.4958865 C34.5781777,19.5190516 34.5390865,19.5378733 34.4840693,19.556695 C34.2843229,19.6380875 34.0798008,19.7072286 33.8716408,19.7637335 C33.2689184,19.9275296 32.6473503,20.0117357 32.0227726,20.0142066 C30.1681132,20.0142066 28.4944315,18.8559493 28.4944315,17.049068 C28.4944315,15.0988524 29.9248792,13.9319082 31.7809864,13.9319082 C32.2990464,13.923854 32.8156661,13.9886751 33.3156773,14.1244685 C33.6874727,13.2364967 34.2704518,12.4527303 35.013972,11.8412538 C34.8995941,11.7818932 34.7808727,11.7355629 34.6621514,11.6877848 C33.6921109,11.2621252 32.5599145,11.0753562 31.2872793,11.0753562 C27.1913921,11.0753562 24.0713366,13.2470886 24.0713366,16.9853639 C24.0713366,20.7062653 27.1913921,22.875102 31.2872793,22.875102 C32.4120028,22.872756 33.5315561,22.7228332 34.6172689,22.429173 C35.2980633,22.2389003 35.9544613,21.9702193 36.5732758,21.6285276 C37.8184024,22.4422034 39.4486495,22.875102 41.2758003,22.875102 C44.4610077,22.875102 47.0670866,21.5575844 48.0573965,19.2150091 C49.0477065,21.5575844 51.6523375,22.875102 54.8418884,22.875102 C58.0994869,22.875102 60.7432091,21.4996715 61.6813975,19.0644356 L61.6813975,25.869197 L66.0842228,25.869197 L66.0842228,22.4899815 C66.99889,22.7488957 67.9452921,22.8785265 68.8958923,22.875102 C72.996123,22.875102 76.1147307,20.7033697 76.1147307,16.9853639 C76.1147307,13.2412973 72.996123,11.0753562 68.8958923,11.0753562 L68.8915489,11.0753562 Z M43.6820797,19.3988824 C43.1724465,20.0590891 42.3558752,20.4876442 41.2888307,20.4876442 L41.2714568,20.4876442 C40.198621,20.4876442 39.3762584,20.0619847 38.868073,19.3988824 C38.3598876,18.7357801 38.1441622,17.8699829 38.1441622,16.9853639 C38.1441622,16.1007449 38.3584398,15.2175737 38.868073,14.5472324 C39.3777062,13.876891 40.198621,13.4555749 41.2714568,13.4570227 C42.3442926,13.4584705 43.1695509,13.8797866 43.6820797,14.5472324 C44.1946086,15.2146781 44.4059905,16.0862667 44.4059905,16.9853639 C44.4059905,17.8844611 44.1946086,18.7343323 43.6820797,19.3988824 Z M57.2365852,19.3988824 C56.7370868,20.0590891 55.9205154,20.4876442 54.8549188,20.4876442 L54.8375449,20.4876442 C53.7632613,20.4876442 52.9394508,20.0619847 52.4298176,19.3988824 C51.9201844,18.7357801 51.7059069,17.8699829 51.7059069,16.9853639 C51.7059069,16.1007449 51.915841,15.2175737 52.4298176,14.5472324 C52.9437943,13.876891 53.7632613,13.4555749 54.8375449,13.4570227 C55.9118285,13.4584705 56.7370868,13.8797866 57.2423765,14.5472324 C57.7476663,15.2146781 57.9662873,16.0862667 57.9662873,16.9853639 C57.9662873,17.8844611 57.757801,18.7343323 57.2423765,19.3988824 L57.2365852,19.3988824 Z M71.2963805,19.3988824 C70.796882,20.05185 69.9788629,20.4804051 68.9118184,20.4804051 L68.8915489,20.4804051 C67.8158174,20.4804051 66.9949026,20.0547456 66.4881651,19.3988824 C65.9814275,18.7430193 65.7642543,17.8627437 65.7642543,16.9781248 C65.7642543,16.0935058 65.9727406,15.2103346 66.4881651,14.5399932 C67.0035895,13.8696519 67.8158174,13.4483358 68.8915489,13.4497836 C69.9672803,13.4512314 70.7838516,13.8725475 71.2963805,14.5399932 C71.8089093,15.207439 72.0202913,16.0790276 72.0202913,16.9781248 C72.0202913,17.877222 71.8045659,18.7270932 71.2963805,19.3988824 L71.2963805,19.3988824 Z M85.5719011,14.5327541 C86.0815343,13.8797866 86.8995535,13.4497836 87.9651502,13.4497836 L87.982524,13.4497836 C89.0510164,13.4497836 89.8762747,13.8841301 90.3859078,14.5327541 C90.895541,15.1813782 91.1098186,16.0659972 91.1098186,16.9506162 C91.1098186,17.8352351 90.9013323,18.7169585 90.3859078,19.3916433 C89.8704834,20.0663282 89.0510164,20.4847486 87.982524,20.4804051 C86.9140317,20.4760617 86.0858778,20.0590891 85.5719011,19.3916433 C85.0579245,18.7241976 84.8479904,17.8482655 84.8479904,16.9506162 C84.8479904,16.0529668 85.0666114,15.2045433 85.5719011,14.5327541 Z M95.1941233,8.07112649 L90.7884022,8.07112649 L90.7884022,11.5994676 C89.8405225,11.2536884 88.8394817,11.0763136 87.8305028,11.0753562 C83.885189,11.0753562 80.7593422,13.2470886 80.7593422,16.9578553 C80.7593422,20.7062653 83.885189,22.875102 87.982524,22.875102 C92.0798591,22.875102 95.1941233,20.8959299 95.1941233,16.4641481 L95.1941233,8.07112649 Z M76.4810295,20.927782 C76.4804445,21.727506 76.9618911,22.4487551 77.7006841,22.7549311 C78.4394772,23.0611071 79.2899732,22.8918514 79.8552562,22.3261536 C80.4205393,21.7604559 80.5891711,20.9098359 80.2824534,20.1712676 C79.9757356,19.4326994 79.2541337,18.9517818 78.4544103,18.9529534 C77.3649693,18.9553448 76.482622,19.8383395 76.4810295,20.927782 L76.4810295,20.927782 Z M101.117161,8.07112649 L96.7592184,8.07112649 L96.7592184,22.6362115 L101.117161,22.6362115 L101.117161,8.07112649 Z M101.117161,16.5510174 L105.05234,11.3388598 L109.20614,11.3388598 L105.282544,16.2122272 L109.770791,22.6362115 L105.084192,22.6362115 L101.117161,16.5510174 Z" id="Shape" fill="#FFFFFF"></path>
        <polygon id="Path" fill="#FFFFFF" fill-rule="nonzero" points="62.8787459 33.8510373 61.8855403 34.1854841 61.8855403 39.2123206 62.8686111 39.5670369 62.8686111 40.3879517 59.3866003 40.3879517 59.3866003 39.5569021 60.3088626 39.200738 60.3088626 34.2361578 60.0352243 34.2361578 58.2008344 39.6278454 56.9253036 39.6278454 55.1517222 34.2361578 54.8780839 34.2361578 54.8780839 39.2123206 55.810481 39.5670369 55.810481 40.3879517 52.5615694 40.3879517 52.5615694 39.5670369 53.5446402 39.2123206 53.5446402 34.1854841 52.5514347 33.8510373 52.5514347 32.960627 56.240484 32.960627 57.6883056 37.764499 59.250505 32.960627 62.8787459 32.960627"></polygon>
        <path d="M72.4662203,40.3879517 L69.101483,40.3879517 L69.101483,39.5974411 L69.9223978,39.2427248 L69.5372773,38.0062852 L66.902242,38.0062852 L66.5069867,39.2731291 L67.3279016,39.5974411 L67.3279016,40.3879517 L64.297611,40.3879517 L64.297611,39.5974411 L65.0881216,39.2731291 L67.3496189,32.960627 L69.4373776,32.960627 L71.6091099,39.2745769 L72.4705638,39.5988889 L72.4662203,40.3879517 Z M69.2231,36.9826754 L68.363094,34.1188843 L68.0880079,34.1188843 L67.219315,36.9768841 L69.2231,36.9826754 Z" id="Shape" fill="#FFFFFF" fill-rule="nonzero"></path>
        <path d="M81.2327799,36.5671506 C81.2327799,37.8373727 80.9103983,38.7914871 80.2656351,39.4294938 C79.6208719,40.0675005 78.7203269,40.3869865 77.564,40.3879517 L73.8850854,40.3879517 L73.8850854,39.5670369 L74.8681563,39.2123206 L74.8681563,34.1854841 L73.8749507,33.8510373 L73.8749507,32.960627 L77.8781773,32.960627 C78.9119219,32.960627 79.7294585,33.2627391 80.3307871,33.8669633 C80.9321156,34.4711876 81.2327799,35.37125 81.2327799,36.5671506 Z M79.6314892,36.6670503 C79.6314892,34.8331429 78.8747612,33.9161893 77.361305,33.9161893 L76.4491774,33.9161893 L76.4491774,39.3990896 L77.361305,39.3990896 C77.6389378,39.4025185 77.9155565,39.364953 78.1822199,39.2876073 C78.3962902,39.2251074 78.5983964,39.1272352 78.7801702,38.998043 C78.9387757,38.878436 79.0746136,38.7313191 79.1812167,38.5636965 C79.2824205,38.4108282 79.3673398,38.2477833 79.4345855,38.0772285 C79.4963262,37.9065018 79.5404724,37.729917 79.5663373,37.5502214 C79.5967415,37.350422 79.6155632,37.1897138 79.6213545,37.0695447 C79.6271458,36.9493755 79.6314892,36.823415 79.6314892,36.6670503 Z" id="Shape" fill="#FFFFFF" fill-rule="nonzero"></path>
    </g>
</svg>