<?xml version="1.0" encoding="UTF-8"?>
<svg width="134px" height="50px" viewBox="0 0 134 50" version="1.1" xmlns="http://www.w3.org/2000/svg" xmlns:xlink="http://www.w3.org/1999/xlink">
    <!-- Generator: Sketch 53.2 (72643) - https://sketchapp.com -->
    <title>Logo / Coop / Coop box dark</title>
    <desc>Created with Sketch.</desc>
    <g id="Logo-/-Coop-/-Coop-box-dark" stroke="none" stroke-width="1" fill="none" fill-rule="evenodd">
        <path d="M105.874693,13.0681888 C98.97543,13.0681888 93.4029484,15.9516627 91.2800983,20.9322086 C89.1572482,15.9516627 83.5847666,13.0681888 76.6855037,13.0681888 C70.5823096,13.0681888 65.5405405,15.4273947 63.1523342,19.3594046 C60.7641278,15.1652608 55.4570025,13.0681888 49.6191646,13.0681888 C40.8624079,13.0681888 34.2285012,17.5244667 34.2285012,25.3884865 C34.2285012,27.2234244 34.4938575,29.0583624 35.2899263,30.6311663 L35.02457,30.8933003 L33.6977887,31.4175683 C32.3710074,31.6797023 31.044226,31.9418363 29.7174447,31.9418363 C26.002457,32.2039703 22.5528256,29.5826304 22.2874693,25.9127545 C22.2874693,25.9127545 22.2874693,25.9127545 22.2874693,25.9127545 C22.2874693,22.5050126 24.9410319,19.3594046 28.6560197,19.3594046 C28.9213759,19.3594046 29.1867322,19.3594046 29.4520885,19.3594046 C30.7788698,19.3594046 32.1056511,19.3594046 33.4324324,19.8836726 C33.963145,17.7866007 35.2899263,16.2137967 36.8820639,14.9031268 L35.5552826,14.1167248 L35.5552826,14.1167248 C33.1670762,13.3303228 30.7788698,12.8060548 28.3906634,13.0681888 C19.6339066,13.0681888 13,17.5244667 13,25.3884865 C13,33.2525063 19.6339066,37.7087842 28.3906634,37.7087842 C30.7788698,37.7087842 33.1670762,37.4466502 35.5552826,36.6602482 C36.8820639,36.3981142 38.4742015,35.6117122 39.8009828,35.0874442 C42.7199017,36.9223822 46.1695332,37.7087842 49.8845209,37.7087842 C55.987715,37.7087842 61.029484,35.3495782 63.4176904,31.4175683 C65.8058968,35.3495782 71.1130221,37.7087842 76.95086,37.7087842 C82.2579853,38.2330522 87.5651106,35.6117122 90.4840295,31.4175683 L90.4840295,44 L99.7714988,44 L99.7714988,36.9223822 C101.628993,37.4466502 103.751843,37.7087842 105.609337,37.7087842 C114.366093,37.7087842 121,33.2525063 121,25.3884865 C121,17.5244667 114.366093,13.0681888 105.874693,13.0681888 Z M49.6191646,31.9418363 C45.3734644,31.9418363 43.7813268,28.7962284 43.7813268,25.3884865 C43.7813268,21.9807446 45.3734644,18.8351367 49.6191646,18.8351367 C53.8648649,18.8351367 55.4570025,21.9807446 55.4570025,25.3884865 C55.4570025,28.7962284 53.5995086,31.9418363 49.6191646,31.9418363 Z M76.95086,31.9418363 C72.7051597,31.9418363 71.1130221,28.7962284 71.1130221,25.3884865 C71.1130221,21.9807446 72.7051597,18.8351367 76.95086,18.8351367 C81.1965602,18.8351367 82.7886978,21.9807446 82.7886978,25.3884865 C82.7886978,28.7962284 80.9312039,31.9418363 76.95086,31.9418363 Z M105.874693,31.9418363 C101.628993,31.9418363 100.036855,28.7962284 100.036855,25.3884865 C100.036855,21.9807446 101.894349,18.8351367 105.874693,18.8351367 C109.855037,18.8351367 111.712531,21.9807446 111.712531,25.3884865 C111.712531,28.7962284 109.855037,31.9418363 105.874693,31.9418363 Z" id="Shape" fill="#FFFFFF" fill-rule="nonzero" opacity="0.101376488"></path>
        <path d="M4,0 L130,0 C132.209139,-4.05812251e-16 134,1.790861 134,4 L134,46 C134,48.209139 132.209139,50 130,50 L4,50 C1.790861,50 2.705415e-16,48.209139 0,46 L0,4 C-2.705415e-16,1.790861 1.790861,4.05812251e-16 4,0 Z" id="Rectangle-Copy-28" fill="#333333" opacity="0.0951450893"></path>
        <g id="Coop_logo" transform="translate(13.500000, 11.500000)" fill="#FFFFFF">
            <path d="M91.2968824,0.0121385533 C84.5340144,0.0121385533 79.0502112,2.84098606 77.0521489,7.89147111 C75.0540866,2.84098606 69.5691542,0.0121385533 62.8068509,0.0121385533 C56.7991138,0.0121385533 51.8016997,2.24506778 49.3590275,6.28410082 C46.9160731,2.24506778 41.918659,0.0121385533 35.9114865,0.0121385533 C27.3628398,0.0121385533 20.8523408,4.52909184 20.8523408,12.3468848 C20.8523408,14.3155887 21.2721089,16.0745498 22.0348618,17.6051367 C21.9363419,17.6491742 21.8386689,17.6932118 21.7373261,17.7358378 C21.3486101,17.8891224 20.9234784,18.0345027 20.4576967,18.1714143 C19.2771518,18.4943563 17.9461453,18.6719179 16.6117513,18.6719179 C12.7353185,18.6719179 9.25607034,16.2326333 9.25607034,12.4806911 C9.25607034,8.41455807 12.2382024,5.97583802 16.1146352,5.97583802 C17.5915867,5.97583802 18.7297878,6.06137248 19.8953712,6.48029371 C19.8950889,6.48029371 21.2311766,3.56619405 23.4734215,1.88655702 C23.0443377,1.68471828 22.592106,1.48683163 22.1082577,1.28894499 L22.1076931,1.29374395 C20.0847891,0.411299353 17.723417,0.0121385533 15.071002,0.0121385533 C6.52235521,0.0121385533 0.0118562614,4.52909184 0.0118562614,12.3468848 C0.0118562614,20.1180995 6.52235521,24.6350528 15.071002,24.6350528 C17.3276437,24.6350528 19.8454055,24.3090056 22.0040919,23.7003842 C22.8131406,23.5067319 24.7098602,22.854073 26.0967604,22.0546222 C28.7009036,23.7362353 32.1028037,24.6350528 35.9114865,24.6350528 C41.918659,24.6350528 46.9160731,22.4021236 49.3590275,18.3791812 C51.8016997,22.4021236 56.7991138,24.6350528 62.8068509,24.6350528 C68.8038608,24.6350528 73.7947822,22.4097455 76.2422533,18.4000708 L76.2422533,30.9137901 L85.4410184,30.9137901 L85.4410184,23.8370135 C87.2267972,24.3615119 89.1994533,24.6350528 91.2968824,24.6350528 C99.8460937,24.6350528 106.357722,20.1180995 106.357722,12.3468848 C106.357722,4.52909184 99.8460937,0.0121385533 91.2968824,0.0121385533 Z M35.9114865,18.943765 C31.7863544,18.943765 30.0974018,15.8258506 30.0974018,12.3468848 C30.0974018,8.82190534 31.7863544,5.70427318 35.9114865,5.70427318 C40.0374655,5.70427318 41.7267004,8.82190534 41.7267004,12.3468848 C41.7267004,15.8258506 40.0374655,18.943765 35.9114865,18.943765 Z M62.8068509,18.943765 C58.6828479,18.943765 56.9919192,15.8258506 56.9919192,12.3468848 C56.9919192,8.82190534 58.6828479,5.70427318 62.8068509,5.70427318 C66.9328298,5.70427318 68.6215002,8.82190534 68.6215002,12.3468848 C68.6215002,15.8258506 66.9328298,18.943765 62.8068509,18.943765 Z M91.2968824,18.943765 C87.1728794,18.943765 85.4819507,15.8258506 85.4819507,12.3468848 C85.4819507,8.82190534 87.1728794,5.70427318 91.2968824,5.70427318 C95.422579,5.70427318 97.1115317,8.82190534 97.1115317,12.3468848 C97.1115317,15.8258506 95.422579,18.943765 91.2968824,18.943765 L91.2968824,18.943765 Z" id="Fill-1"></path>
        </g>
    </g>
</svg>