<?xml version="1.0" encoding="UTF-8"?>
<svg width="134px" height="50px" viewBox="0 0 134 50" version="1.1" xmlns="http://www.w3.org/2000/svg" xmlns:xlink="http://www.w3.org/1999/xlink">
    <!-- Generator: Sketch 53.2 (72643) - https://sketchapp.com -->
    <title>Logo / SuperBrugsen / SuperBrugsen dark</title>
    <desc>Created with Sketch.</desc>
    <g id="Logo-/-SuperBrugsen-/-SuperBrugsen-dark" stroke="none" stroke-width="1" fill="none" fill-rule="evenodd">
        <g id="Group" transform="translate(20.500000, 7.993873)" fill="#333333" fill-rule="nonzero">
            <path d="M7.17,8.85612671 C10.3,8.85612671 12.69,10.2761267 12.69,13.9361267 L12.69,14.1161267 C12.8441795,16.1943827 11.6285439,18.1312954 9.69,18.8961267 C11.7441477,19.4407255 13.1578675,21.3215516 13.11,23.4461267 L13.11,24.2461267 C13.11,27.9661267 10.46,29.5261267 7.36,29.5261267 L0.17,29.5261267 L3.55271368e-15,29.3861267 L3.55271368e-15,28.1361267 L0.17,28.0061267 L0.61,28.0061267 C0.924482951,28.0065335 1.18400959,27.7602031 1.2,27.4461267 L1.2,10.9261267 C1.20433579,10.7734534 1.14133144,10.6265941 1.02770883,10.5245263 C0.914086223,10.4224585 0.761336243,10.3755047 0.61,10.3961267 L0.17,10.3961267 L3.55271368e-15,10.2461267 L3.55271368e-15,9.00612671 L0.15,8.85612671 L7.17,8.85612671 Z M8.62,12.4561267 C8.62,10.7761267 7.85,10.3961267 6.4,10.3961267 L5.87,10.3961267 C5.72006165,10.3821683 5.57110539,10.4314524 5.45908083,10.5320846 C5.34705628,10.6327168 5.28214032,10.7755552 5.28,10.9261267 L5.28,18.3661267 L6.46,18.3661267 C7.88,18.3661267 8.62,17.8661267 8.62,16.1761267 L8.62,12.4561267 Z M8.94,22.4561267 C9.03058441,21.8138019 8.81482763,21.1661578 8.3571243,20.7064901 C7.89942098,20.2468224 7.2527069,20.028294 6.61,20.1161267 L5.28,20.1161267 L5.28,27.5561267 C5.28,27.8261267 5.43,28.0361267 5.81,28.0361267 L6.61,28.0361267 C8.02,28.0361267 8.94,27.5061267 8.94,25.8161267 L8.94,22.4561267 Z" id="Shape"></path>
            <path d="M19.63,27.3761267 C19.63,27.7861267 19.87,27.9961267 20.31,27.9961267 L20.84,27.9961267 L20.99,28.1361267 L20.99,29.3861267 L20.84,29.5261267 L14.58,29.5261267 L14.43,29.3861267 L14.43,28.1361267 L14.58,27.9961267 L15.11,27.9961267 C15.55,27.9961267 15.79,27.7861267 15.79,27.3761267 L15.79,16.7461267 C15.79,16.3261267 15.55,16.1261267 15.11,16.1261267 L14.58,16.1261267 L14.43,16.0061267 L14.43,14.7361267 L14.58,14.5861267 L19.16,14.5861267 L19.3,14.7361267 L19.3,16.0661267 C19.8836006,14.9551202 21.0453179,14.269707 22.3,14.2961267 C23.0210383,14.2434886 23.7316099,14.4922817 24.2623323,14.9831999 C24.7930547,15.4741181 25.0963789,16.1631787 25.1,16.8861267 C25.1740353,18.1203025 24.2341141,19.1810707 23,19.2561267 C22.5053316,19.2778965 22.0231458,19.0971807 21.6646358,18.7556527 C21.3061258,18.4141247 21.1022418,17.9412689 21.1,17.4461267 C21.0684772,16.8820012 21.3243324,16.3401901 21.78,16.0061267 C20.31,16.0061267 19.63,17.3061267 19.63,18.8961267 L19.63,27.3761267 Z" id="Shape"></path>
            <path d="M30.91,25.3961267 C30.91,26.5161267 31.26,27.4661267 32.44,27.4661267 C33.12,27.4661267 34.34,27.1361267 34.34,25.2461267 L34.34,16.7461267 C34.34,16.3261267 34.1,16.1261267 33.66,16.1261267 L33.12,16.1261267 L33,16.0061267 L33,14.7361267 L33.14,14.5861267 L39.41,14.5861267 L39.55,14.7361267 L39.55,16.0061267 L39.41,16.1561267 L38.87,16.1561267 C38.43,16.1561267 38.19,16.3561267 38.19,16.7761267 L38.19,27.3761267 C38.19,27.7861267 38.43,27.9961267 38.87,27.9961267 L39.41,27.9961267 L39.55,28.1361267 L39.55,29.3861267 L39.41,29.5261267 L34.48,29.5261267 L34.34,29.3861267 L34.34,28.2861267 C33.5132978,29.3243426 32.2351929,29.8981856 30.91,29.8261267 C28.91,29.8261267 27.07,28.8261267 27.07,25.6261267 L27.07,16.7461267 C27.07,16.3261267 26.83,16.1261267 26.39,16.1261267 L25.86,16.1261267 L25.71,16.0061267 L25.71,14.7361267 L25.86,14.5861267 L30.76,14.5861267 L30.91,14.7361267 L30.91,25.3961267 Z" id="Shape"></path>
            <path d="M46.32,35.9361267 C44.7795702,36.0153505 43.2470213,35.6694027 41.89,34.9361267 C41.0585159,34.437138 40.5527123,33.5358186 40.56,32.5661267 C40.5887831,31.1827128 41.6271799,30.0294114 43,29.8561267 C41.920701,29.5890693 41.1721423,28.6076257 41.2,27.4961267 C41.2952613,26.2181187 42.1218261,25.1108337 43.32,24.6561267 C41.6587507,23.6622955 40.6730249,21.8404287 40.75,19.9061267 L40.75,19.6361267 C40.7435404,16.8495434 42.8998688,14.5357549 45.68,14.3461267 L45.68,12.7561267 C45.5988696,11.7495235 45.9430808,10.7549575 46.6290792,10.0138513 C47.3150775,9.27274503 48.2801379,8.85286252 49.29,8.85612671 C51.15,8.85612671 52.36,10.0061267 52.36,11.4861267 C52.401813,12.0420337 52.209707,12.5901651 51.830007,12.9983425 C51.4503071,13.40652 50.917475,13.637697 50.36,13.6361267 C49.8687921,13.6633231 49.3874969,13.4905054 49.0257863,13.1570534 C48.6640756,12.8236014 48.4527631,12.3579213 48.44,11.8661267 C48.4433591,11.3668013 48.5778486,10.8771218 48.83,10.4461267 C48.47,10.4461267 47.67,10.8961267 47.67,12.0761267 C47.67,14.8761267 52.25,14.5261267 52.25,19.6361267 L52.25,20.0761267 C52.25,23.7961267 49.39,25.4861267 46.49,25.4861267 C45.9307157,25.4947051 45.3736652,25.4136796 44.84,25.2461267 C44.16,25.3961267 43.75,25.7461267 43.75,26.3361267 C43.747135,26.584493 43.8459166,26.8232373 44.0234281,26.9969719 C44.2009395,27.1707065 44.4417527,27.2643317 44.69,27.2561267 L49.18,27.4361267 C50.0857391,27.4141023 50.9816651,27.6277462 51.78,28.0561267 C52.8854786,28.7251702 53.5227833,29.9572925 53.43,31.2461267 C53.43,34.9361267 49.77,35.9361267 46.34,35.9361267 L46.32,35.9361267 Z M47.56,30.6561267 L45.16,30.6561267 C44.22,30.6561267 43.07,31.0661267 43.07,32.3061267 C43.07,33.9061267 44.96,34.1661267 46.2,34.1661267 L47.29,34.1661267 C48.94,34.1661267 50.39,33.7561267 50.39,32.2461267 C50.39,30.7361267 49,30.6861267 47.54,30.6561267 L47.56,30.6561267 Z M48.3,17.5661267 C48.2036618,16.6611076 47.4401322,15.9745411 46.53,15.9745411 C45.6198678,15.9745411 44.8563382,16.6611076 44.76,17.5661267 L44.76,22.0861267 C44.7700512,22.5399375 44.9643999,22.970105 45.2983048,23.2775994 C45.6322098,23.5850937 46.0768991,23.743419 46.53,23.7161267 C46.9701297,23.7518654 47.4060746,23.6086063 47.739211,23.3187588 C48.0723474,23.0289114 48.2745231,22.6169694 48.3,22.1761267 L48.3,17.5661267 Z" id="Shape"></path>
            <path d="M55.66,24.2161267 C55.92,26.3961267 57.16,28.1661267 59.14,28.1661267 C60.32,28.1661267 61.14,27.5461267 61.14,26.4261267 C61.14,23.1161267 53.99,24.0661267 53.99,18.7161267 C53.99,15.3261267 56.88,14.2861267 58.84,14.2861267 C60.0054393,14.2610936 61.1362132,14.6833446 62,15.4661267 L62.42,14.5261267 L62.63,14.3761267 L63.75,14.3761267 L63.9,14.5261267 L63.9,19.3961267 L63.75,19.5461267 L62.39,19.5461267 L62.24,19.4261267 C61.56,16.4261267 60.17,15.9461267 59.17,15.9461267 C58.17,15.9461267 57.17,16.4761267 57.17,17.5661267 C57.17,20.6361267 64.67,19.9861267 64.67,25.2761267 C64.67,28.0261267 62.67,29.8261267 59.59,29.8261267 C58.1535948,29.8912549 56.7573142,29.3421967 55.75,28.3161267 L55.43,29.3861267 L55.22,29.5261267 L54.15,29.5261267 L54,29.3861267 L54,24.2461267 L54.15,24.0961267 L55.51,24.0961267 L55.66,24.2161267 Z" id="Shape"></path>
            <path d="M76.68,22.3861267 L69.68,22.3861267 L69.68,25.1261267 C69.6050797,25.8466167 69.8568491,26.5627811 70.3661465,27.0778879 C70.8754438,27.5929947 71.5887066,27.8528705 72.31,27.7861267 C74.47,27.7861267 74.94,26.2161267 74.94,24.4761267 L74.94,24.3061267 L75.09,24.1561267 L76.56,24.1561267 L76.71,24.3061267 L76.71,24.6561267 C76.71,28.0561267 74.82,29.8261267 71.54,29.8261267 C67.7,29.8261267 65.84,27.4061267 65.84,24.3861267 L65.84,19.6961267 C65.84,16.0061267 68.84,14.2861267 71.54,14.2861267 C72.9894614,14.2079157 74.4027086,14.7559641 75.4204785,15.7909519 C76.4382484,16.8259397 76.9625136,18.2481812 76.86,19.6961267 L76.86,22.2361267 L76.68,22.3861267 Z M73.2,17.7461267 C73.2130074,17.2881069 73.0239943,16.8475288 72.6831265,16.5413255 C72.3422587,16.2351222 71.8840087,16.0942607 71.43,16.1561267 C70.9751008,16.094618 70.5160683,16.2352763 70.1737222,16.5410799 C69.8313761,16.8468834 69.6400128,17.2871966 69.65,17.7461267 L69.65,20.5761267 L73.2,20.5761267 L73.2,17.7461267 Z" id="Shape"></path>
            <path d="M87.08,18.7161267 C87.08,17.5361267 86.64,16.6561267 85.48,16.6561267 C84.9036588,16.6290018 84.34541,16.8611557 83.9582563,17.2889605 C83.5711027,17.7167653 83.3956552,18.2953458 83.48,18.8661267 L83.48,27.3761267 C83.48,27.7861267 83.72,27.9961267 84.16,27.9961267 L84.7,27.9961267 L84.84,28.1361267 L84.84,29.3861267 L84.7,29.5261267 L78.45,29.5261267 L78.31,29.3861267 L78.31,28.1361267 L78.45,27.9961267 L79,27.9961267 C79.44,27.9961267 79.68,27.7861267 79.68,27.3761267 L79.68,16.7461267 C79.68,16.3261267 79.44,16.1261267 79,16.1261267 L78.46,16.1261267 L78.31,16.0061267 L78.31,14.7361267 L78.45,14.5861267 L83.36,14.5861267 L83.5,14.7361267 L83.5,15.8261267 C84.3245094,14.8020415 85.5864292,14.230466 86.9,14.2861267 C88.73,14.2861267 90.9,15.2861267 90.9,18.4861267 L90.9,27.3761267 C90.9,27.7861267 91.13,27.9961267 91.58,27.9961267 L92.11,27.9961267 L92.26,28.1361267 L92.26,29.3861267 L92.11,29.5261267 L85.87,29.5261267 L85.72,29.3861267 L85.72,28.1361267 L85.87,27.9961267 L86.4,27.9961267 C86.84,27.9961267 87.08,27.7861267 87.08,27.3761267 L87.08,18.7161267 L87.08,18.7161267 Z" id="Shape"></path>
            <polygon id="Shape" points="0.21 33.6661267 0.06 33.5161267 0.06 32.2761267 0.21 32.1261267 38.38 32.1261267 38.53 32.2761267 38.53 33.5161267 38.38 33.6661267"></polygon>
            <polygon id="Shape" points="55.21 33.6661267 55.06 33.5161267 55.06 32.2761267 55.21 32.1261267 92.13 32.1261267 92.28 32.2761267 92.28 33.5161267 92.13 33.6661267"></polygon>
            <path d="M15.24,10.0061267 L15.14,10.0761267 L14.52,10.0761267 L14.45,10.0061267 L14.45,6.82612671 L14.52,6.75612671 L15.32,6.75612671 L15.4,6.82612671 L15.4,6.91612671 C15.4,8.66612671 16.1,9.32612671 16.98,9.32612671 C17.3214609,9.33944755 17.6508888,9.19888934 17.8775546,8.94316376 C18.1042205,8.68743817 18.2042156,8.34351914 18.15,8.00612671 C18.15,5.81612671 14.43,5.69612671 14.43,2.59612671 C14.3727558,1.91780854 14.6074779,1.24726657 15.075275,0.752738202 C15.5430721,0.258209834 16.19955,-0.0133739033 16.88,0.00612670651 C17.4723866,-0.0420322728 18.0521178,0.195806172 18.44,0.646126707 L18.68,0.146126707 L18.78,0.0761267065 L19.31,0.0761267065 L19.39,0.146126707 L19.39,3.09612671 L19.31,3.16612671 L18.51,3.16612671 L18.44,3.09612671 L18.44,3.00612671 C18.44,1.61612671 18.04,0.916126707 17.18,0.916126707 C16.8864891,0.894254857 16.5982477,1.00279524 16.3920646,1.21283228 C16.1858814,1.42286933 16.082697,1.71307109 16.11,2.00612671 C16.1462512,2.58149401 16.4174478,3.11665518 16.86,3.48612671 C18,4.60612671 19.86,5.29612671 19.86,7.40612671 C19.9065817,8.15410391 19.6318535,8.88642856 19.1048012,9.41920964 C18.577749,9.95199072 17.8484371,10.2346197 17.1,10.1961267 C16.4380084,10.2387635 15.7918766,9.98177924 15.34,9.49612671 L15.24,10.0061267 Z" id="Shape"></path>
            <path d="M22.71,8.07612671 C22.71,8.61612671 22.88,9.07612671 23.45,9.07612671 C23.77,9.07612671 24.36,8.91612671 24.36,8.01612671 L24.36,3.92612671 C24.36,3.72612671 24.24,3.62612671 24.03,3.62612671 L23.77,3.62612671 L23.7,3.55612671 L23.7,3.00612671 L23.77,2.93612671 L26.77,2.93612671 L26.84,3.00612671 L26.84,3.59612671 L26.77,3.66612671 L26.51,3.66612671 C26.3,3.66612671 26.19,3.76612671 26.19,3.96612671 L26.19,9.00612671 C26.19,9.20612671 26.3,9.29612671 26.51,9.29612671 L26.77,9.29612671 L26.84,9.36612671 L26.84,10.0061267 L26.77,10.0761267 L24.43,10.0761267 L24.36,10.0061267 L24.36,9.48612671 C23.9572402,9.97781762 23.3447503,10.248798 22.71,10.2161267 C21.76,10.2161267 20.87,9.74612671 20.87,8.21612671 L20.87,3.92612671 C20.87,3.72612671 20.76,3.62612671 20.55,3.62612671 L20.29,3.62612671 L20.22,3.55612671 L20.22,3.00612671 L20.29,2.93612671 L22.64,2.93612671 L22.71,3.00612671 L22.71,8.07612671 Z" id="Shape"></path>
            <path d="M28.06,3.92612671 C28.06,3.72612671 27.95,3.62612671 27.74,3.62612671 L27.48,3.62612671 L27.41,3.55612671 L27.41,3.00612671 L27.48,2.93612671 L29.83,2.93612671 L29.9,3.00612671 L29.9,3.21612671 C30.2990113,2.92358337 30.7856672,2.7754707 31.28,2.79612671 C31.8940438,2.75879409 32.4928795,2.99651143 32.9141387,3.44482398 C33.3353979,3.89313653 33.5354306,4.50559114 33.46,5.11612671 L33.46,7.59612671 C33.5489932,8.26857234 33.3366222,8.94601069 32.8796709,9.44730746 C32.4227196,9.94860423 31.7677907,10.2226341 31.09,10.1961267 C30.6746726,10.2063487 30.2640587,10.1062831 29.9,9.90612671 L29.9,11.9061267 C29.9,12.1061267 30.02,12.2061267 30.23,12.2061267 L30.55,12.2061267 L30.62,12.2761267 L30.62,12.8761267 L30.55,12.9461267 L27.48,12.9461267 L27.41,12.8761267 L27.41,12.2761267 L27.48,12.2061267 L27.74,12.2061267 C27.95,12.2061267 28.06,12.1061267 28.06,11.9061267 L28.06,3.90612671 L28.06,3.92612671 Z M31.62,4.42612671 C31.618097,4.210925 31.5262194,4.00634032 31.3666334,3.86195299 C31.2070474,3.71756565 30.9943182,3.64655374 30.78,3.66612671 C30.56114,3.64390648 30.3427876,3.71279016 30.1762978,3.8565768 C30.009808,4.00036344 29.9098742,4.20636331 29.9,4.42612671 L29.9,8.56612671 C29.9125061,8.78146778 30.0125214,8.98233043 30.1768281,9.12208555 C30.3411348,9.26184066 30.5554422,9.32833298 30.77,9.30612671 C30.9825569,9.32845191 31.1948305,9.26142746 31.3560278,9.12109104 C31.517225,8.98075462 31.6128422,8.77973295 31.62,8.56612671 L31.62,4.42612671 L31.62,4.42612671 Z" id="Shape"></path>
            <path d="M39.52,6.62612671 L36.15,6.62612671 L36.15,7.94612671 C36.112461,8.28951976 36.2312729,8.63159834 36.4735888,8.8777913 C36.7159047,9.12398425 37.0560544,9.24821061 37.4,9.21612671 C38.4,9.21612671 38.67,8.46612671 38.67,7.63612671 L38.67,7.54612671 L38.74,7.47612671 L39.44,7.47612671 L39.51,7.54612671 L39.51,7.71612671 C39.5935304,8.40150936 39.35487,9.08692846 38.8637189,9.57220917 C38.3725679,10.0574899 37.6843288,10.2878918 37,10.1961267 C36.2787284,10.270262 35.5611382,10.0250353 35.0360864,9.52498596 C34.5110346,9.02493663 34.2311159,8.32015484 34.27,7.59612671 L34.27,5.34612671 C34.260042,4.6314699 34.5492969,3.94519007 35.0678048,3.45327232 C35.5863127,2.96135458 36.2868561,2.70859505 37,2.75612671 C37.6946619,2.71695342 38.3725776,2.97866355 38.8607148,3.47445773 C39.3488519,3.97025191 39.5999797,4.65215859 39.55,5.34612671 L39.55,6.55612671 L39.52,6.62612671 Z M37.85,4.40612671 C37.7854571,3.98659045 37.424472,3.67689367 37,3.67689367 C36.575528,3.67689367 36.2145429,3.98659045 36.15,4.40612671 L36.15,5.76612671 L37.85,5.76612671 L37.85,4.40612671 Z" id="Shape"></path>
            <path d="M42.79,9.00612671 C42.79,9.19612671 42.9,9.29612671 43.11,9.29612671 L43.37,9.29612671 L43.44,9.36612671 L43.44,10.0061267 L43.37,10.0761267 L40.37,10.0761267 L40.29,10.0061267 L40.29,9.40612671 L40.37,9.33612671 L40.62,9.33612671 C40.83,9.33612671 40.94,9.23612671 40.94,9.04612671 L40.94,3.92612671 C40.94,3.72612671 40.83,3.62612671 40.62,3.62612671 L40.37,3.62612671 L40.29,3.55612671 L40.29,3.00612671 L40.37,2.93612671 L42.56,2.93612671 L42.63,3.00612671 L42.63,3.60612671 C42.9102302,3.07289018 43.467739,2.74380515 44.07,2.75612671 C44.4177412,2.73121937 44.7602599,2.85150513 45.0160724,3.08836855 C45.2718849,3.32523198 45.4181239,3.65749969 45.42,4.00612671 C45.4542017,4.59372412 45.0073954,5.09861522 44.42,5.13612671 C44.1841389,5.14699526 43.9539899,5.06153262 43.7823862,4.89935763 C43.6107824,4.73718263 43.5124636,4.51222524 43.51,4.27612671 C43.4929765,3.99659773 43.6215504,3.72810514 43.85,3.56612671 C43.14,3.56612671 42.85,4.19612671 42.85,4.95612671 L42.79,9.00612671 Z" id="Shape"></path>
        </g>
    </g>
</svg>