<?xml version="1.0" encoding="UTF-8"?>
<svg width="134px" height="50px" viewBox="0 0 134 50" version="1.1" xmlns="http://www.w3.org/2000/svg" xmlns:xlink="http://www.w3.org/1999/xlink">
    <!-- Generator: Sketch 53.2 (72643) - https://sketchapp.com -->
    <title>Logo / SuperB / SuperB dark</title>
    <desc>Created with Sketch.</desc>
    <g id="Logo-/-SuperB-/-SuperB-dark" stroke="none" stroke-width="1" fill="none" fill-rule="evenodd">
        <g id="Group" transform="translate(10.000000, 9.000000)" fill="#333333">
            <path d="M111.137169,26.9214377 C112.495347,26.9214377 113.590466,25.8312667 113.590466,24.4722638 C113.590466,23.1165594 112.495347,22.0577246 111.137169,22.0577246 C109.779816,22.0577246 108.684697,23.1165594 108.684697,24.4722638 C108.684697,25.8312667 109.779816,26.9214377 111.137169,26.9214377" id="Fill-3"></path>
            <polygon id="Fill-6" points="31.5272208 30 31.7217391 30.1920179 31.7217391 30.20999 31.7217391 31.7726187 31.7217391 31.7905908 31.5272208 31.9826087 31.5033828 31.9826087 0.202146468 31.9826087 0.192611257 31.9826087 8.8817842e-15 31.7905908 8.8817842e-15 31.7726187 8.8817842e-15 30.20999 8.8817842e-15 30.1920179 0.192611257 30 0.202146468 30 31.5033828 30"></polygon>
            <polygon id="Fill-8" points="78.8346753 30 79 30.1920179 79 30.20999 79 31.7726187 79 31.7905908 78.8346753 31.9826087 78.8144149 31.9826087 48.1726184 31.9826087 48.1637039 31.9826087 48 31.7905908 48 31.7726187 48 30.20999 48 30.1920179 48.1637039 30 48.1726184 30 78.8144149 30"></polygon>
            <polygon id="Fill-8" points="113.867833 30 114 30.1920179 114 30.20999 114 31.7726187 114 31.7905908 113.867833 31.9826087 113.851636 31.9826087 89.3553892 31.9826087 89.3482626 31.9826087 89.2173913 31.7905908 89.2173913 31.7726187 89.2173913 30.20999 89.2173913 30.1920179 89.3482626 30 89.3553892 30 113.851636 30"></polygon>
            <path d="M2.20129422,26.2089906 L1.93154707,26.3947154 L0.231352478,26.3947154 L0.0403636238,26.2089906 L0.0403636238,17.9148623 L0.231352478,17.7319802 L2.43560013,17.7319802 L2.63249585,17.9148623 L2.63249585,18.1413328 C2.63249585,22.7531828 4.5561671,24.4616614 6.9514036,24.4616614 C9.23539402,24.4616614 10.1598195,22.8631015 10.1598195,21.1167199 C10.1598195,15.3526181 3.18856053e-13,15.0550794 3.18856053e-13,6.91161565 C3.18856053e-13,2.8228274 2.55078413,-2.30926389e-14 6.68165646,-2.30926389e-14 C8.34345638,-2.30926389e-14 10.0072253,0.443465331 10.9296817,1.6705756 L11.5873135,0.369554442 L11.8570606,0.185724797 L13.3249182,0.185724797 L13.5188605,0.369554442 L13.5188605,8.1046132 L13.3249182,8.28749527 L11.123624,8.28749527 L10.9296817,8.1046132 L10.9296817,7.88098538 C10.9296817,4.23755761 9.85167764,2.38125722 7.49188237,2.38125722 C5.63614015,2.38125722 4.59456176,3.53161386 4.59456176,5.24104005 C4.59456176,6.7666366 5.4451513,8.02785958 6.64030835,9.14410351 C9.72861782,12.0853778 14.8695652,13.9056704 14.8695652,19.4404588 C14.8695652,23.4932392 12.1277922,26.7652174 7.33928818,26.7652174 C4.86726234,26.7652174 3.39645127,25.8744964 2.54783069,24.908917 L2.20129422,26.2089906 Z" id="Fill-13"></path>
            <path d="M22.7105008,21.3629849 C22.7105008,22.820411 23.1653841,24.0506039 24.6952694,24.0506039 C25.5681011,24.0506039 27.1358934,23.6274802 27.1358934,21.1710122 L27.1358934,10.1012347 C27.1358934,9.56351504 26.8287499,9.29808329 26.2552859,9.29808329 L25.5681011,9.29808329 L25.3775944,9.1041516 L25.3775944,7.49001311 L25.5681011,7.29999924 L33.6549155,7.29999924 L33.8434783,7.49001311 L33.8434783,9.1041516 L33.6549155,9.29808329 L32.9687027,9.29808329 C32.3971826,9.29808329 32.095871,9.56351504 32.095871,10.1012347 L32.095871,23.9369873 C32.095871,24.4776454 32.3971826,24.7430771 32.9687027,24.7430771 L33.6549155,24.7430771 L33.8434783,24.9350499 L33.8434783,26.5482089 L33.6549155,26.7382228 L27.3254281,26.7382228 L27.1358934,26.5482089 L27.1358934,25.1260432 C26.3738666,26.2054004 24.8838322,27.1260862 22.7105008,27.1260862 C20.157128,27.1260862 17.7534391,25.8586741 17.7534391,21.6675948 L17.7534391,10.1012347 C17.7534391,9.56351504 17.4492116,9.29808329 16.8786635,9.29808329 L16.1885627,9.29808329 L16,9.1041516 L16,7.49001311 L16.1885627,7.29999924 L22.5219381,7.29999924 L22.7105008,7.49001311 L22.7105008,21.3629849 Z" id="Fill-15"></path>
            <path d="M47.0307677,11.5347966 C47.0307677,10.1884676 45.9555187,9.49570589 44.8405157,9.49570589 C43.691438,9.49570589 42.5395207,10.1884676 42.5395207,11.5347966 L42.5395207,22.7992783 C42.5395207,24.105433 43.6526306,24.7952551 44.8036014,24.7952551 C45.9157647,24.7952551 47.0336072,24.1436476 47.0336072,22.7992783 L47.0336072,11.5347966 L47.0307677,11.5347966 Z M37.7103653,10.1884676 C37.7103653,9.65052393 37.4141039,9.38204202 36.8556559,9.38204202 L36.1893044,9.38204202 L36.0028396,9.19096913 L36.0028396,7.57615825 L36.1893044,7.38312564 L42.3540024,7.38312564 L42.5366811,7.57615825 L42.5366811,8.15133664 C43.2039791,7.53794367 44.5442543,7 46.1391439,7 C48.7780473,7 51.8608696,8.46097271 51.8608696,13.3063852 L51.8608696,20.1467947 C51.8608696,24.9902474 49.0714692,27.2233506 45.6592573,27.2233506 C44.6540509,27.2233506 43.5049731,27.030318 42.5347881,26.416925 L42.5347881,31.9511798 C42.5347881,32.4891235 42.833889,32.7576054 43.3894974,32.7576054 L44.2451534,32.7576054 L44.4287786,32.9486782 L44.4287786,34.5664287 L44.2451534,34.7565217 L36.1864648,34.7565217 L36,34.5664287 L36,32.9486782 L36.1864648,32.7576054 L36.8556559,32.7576054 C37.4084248,32.7576054 37.7075257,32.4891235 37.7075257,31.9511798 L37.7075257,10.1884676 L37.7103653,10.1884676 Z" id="Fill-17"></path>
            <path d="M63.3049694,11.4111338 C63.3049694,10.0912519 62.4115558,9.37463477 61.0704869,9.37463477 C59.7673549,9.37463477 58.8369528,10.0941337 58.8369528,11.4111338 L58.8369528,15.0297621 L63.3049694,15.0297621 L63.3049694,11.4111338 Z M67.694267,17.3265873 L58.8369528,17.3265873 L58.8369528,20.8309027 C58.8369528,22.6061151 59.729418,24.2228264 62.1459976,24.2228264 C64.8660722,24.2228264 65.4626297,22.2257124 65.4626297,20.0028545 L65.4626297,19.7761498 L65.6466236,19.5878697 L67.5083762,19.5878697 L67.6914217,19.7761498 L67.6914217,20.2295591 C67.6914217,24.5628833 65.3099338,26.826087 61.1814523,26.826087 C56.3444995,26.826087 54,23.7348351 54,19.8933446 L54,13.8981603 C54,9.1892365 57.7187631,7 61.1814523,7 C64.6062046,7 67.8782609,9.14889077 67.8782609,13.8981603 L67.8782609,17.1383072 L67.694267,17.3265873 Z" id="Fill-19"></path>
            <path d="M76.7471773,24.02037 C76.7471773,24.55801 77.0500041,24.8263404 77.626352,24.8263404 L78.3199231,24.8263404 L78.5094341,25.0163261 L78.5094341,26.6312047 L78.3199231,26.826087 L70.1953722,26.826087 L70,26.6312047 L70,25.019264 L70.1953722,24.8263404 L70.8830821,24.8263404 C71.4564994,24.8263404 71.7651874,24.55801 71.7651874,24.023308 L71.7651874,10.1866677 C71.7651874,9.64902767 71.4564994,9.38363525 70.8830821,9.38363525 L70.1953722,9.38363525 L70,9.1897323 L70,7.57779162 L70.1953722,7.38584728 L76.1327319,7.38584728 L76.321266,7.57779162 L76.321266,9.30724924 C77.0529347,7.84612196 78.587583,7 80.2335934,7 C82.3045382,7 83.8782609,8.38376196 83.8782609,10.378612 C83.8782609,12.1462626 82.6112725,13.4546179 81.0785779,13.4546179 C79.7363712,13.4546179 78.62275,12.4929376 78.62275,11.1111343 C78.62275,10.3433569 78.931438,9.53738658 79.5468602,9.1897323 C77.626352,9.1897323 76.7471773,10.8809969 76.7471773,12.9571295 L76.7471773,24.02037 Z" id="Fill-21"></path>
            <path d="M98.6526303,26.7652174 C102.645487,26.7652174 106.03152,24.7394206 106.069565,19.9228878 L106.069565,18.8879699 C106.069565,15.8684222 104.205345,13.7660357 101.656308,13.000139 C104.16825,11.9297984 105.537882,9.86570681 105.537882,6.80499214 L105.537882,6.5761805 C105.537882,1.83527996 102.457162,-2.30926389e-14 98.4234073,-2.30926389e-14 L98.4234073,0.000957370869 L89.4076179,0.000957370869 L89.2173913,0.192431545 L89.2173913,1.79794249 L89.4076179,1.98941667 L89.9763954,1.98941667 C90.3958451,1.98941667 90.7382529,2.2182283 90.7382529,2.67680895 L90.7382529,24.0520283 C90.7382529,24.433062 90.3958451,24.7767581 89.9763954,24.7767581 L89.4076179,24.7767581 L89.2173913,24.9682323 L89.2173913,26.575658 L89.4076179,26.7652174 L98.6526303,26.7652174 Z M95.9885069,2.67680895 C95.9885069,2.25556577 96.3318659,1.98941667 96.7503644,1.98941667 L97.434229,1.98941667 C99.2984496,1.98941667 100.287628,2.48533478 100.287628,4.66526825 L100.288579,4.66526825 L100.288579,9.48275846 C100.288579,11.6626919 99.3364949,12.3117894 97.5103196,12.3117894 L95.9885069,12.3117894 L95.9885069,2.67680895 Z M95.9885069,14.5309751 L97.7005462,14.5309751 C99.5267215,14.5309751 100.704224,15.3715467 100.704224,17.5514801 L100.704224,21.9113471 C100.704224,24.0912806 99.5267215,24.7796302 97.7005462,24.7796302 L96.6723715,24.7796302 C96.1787335,24.7796302 95.9885069,24.510609 95.9885069,24.1669129 L95.9885069,14.5309751 Z" id="Fill-1"></path>
        </g>
    </g>
</svg>