<?xml version="1.0" encoding="UTF-8"?>
<svg width="134px" height="50px" viewBox="0 0 134 50" version="1.1" xmlns="http://www.w3.org/2000/svg" xmlns:xlink="http://www.w3.org/1999/xlink">
    <!-- Generator: Sketch 53.2 (72643) - https://sketchapp.com -->
    <title>Logo / SuperB / SuperB box color</title>
    <desc>Created with Sketch.</desc>
    <g id="Logo-/-SuperB-/-SuperB-box-color" stroke="none" stroke-width="1" fill="none" fill-rule="evenodd">
        <path d="M4,0 L130,0 C132.209139,-4.05812251e-16 134,1.790861 134,4 L134,46 C134,48.209139 132.209139,50 130,50 L4,50 C1.790861,50 2.705415e-16,48.209139 0,46 L0,4 C-2.705415e-16,1.790861 1.790861,4.05812251e-16 4,0 Z" id="Rectangle-Copy-28" fill="#C31414"></path>
        <path d="M121.33683,31.75 C122.64124,31.75 123.701073,32.7730769 123.701073,34.0653846 C123.701073,35.3576923 122.64124,36.4076923 121.33683,36.4076923 C120.03242,36.4076923 118.972586,35.3846154 118.972586,34.0653846 C118.972586,32.7730769 120.03242,31.75 121.33683,31.75 Z M99.7597139,34.2538462 L99.9499404,34.0653846 L100.52062,34.0653846 C100.955423,34.0653846 101.308701,33.7153846 101.308701,33.3384615 L101.308701,11.8 C101.308701,11.3423077 100.955423,11.1 100.52062,11.1 L99.9499404,11.1 L99.7597139,10.9115385 L99.7597139,9.29615385 L99.9499404,9.10769231 L109.162336,9.10769231 C113.292968,9.10769231 116.445292,10.9384615 116.445292,15.7307692 L116.445292,15.9730769 C116.445292,19.0692308 115.032181,21.1423077 112.477712,22.2192308 C115.086532,22.9730769 116.988796,25.1 116.988796,28.1423077 L116.988796,29.1923077 C116.961621,34.0384615 113.483194,36.0846154 109.406913,36.0846154 L109.406913,36.0576923 L99.9499404,36.0576923 L99.7597139,35.8692308 L99.7597139,34.2538462 Z M107.662955,34.4153846 L108.537411,34.4153846 C110.084525,34.4153846 111.07109,33.7039968 111.07109,31.3706447 L111.07109,26.7323961 C111.07109,24.399044 110.084525,23.5169231 108.537411,23.5169231 L107.102407,23.5169231 L107.079985,23.5169231 L107.079985,33.7609078 C107.079985,34.1308295 107.236939,34.4153846 107.662955,34.4153846 Z M111.07109,19.5333121 L111.07109,14.4511279 C111.07109,12.1641451 110.159542,11.6276923 108.43499,11.6276923 L107.794442,11.6276923 C107.400259,11.6276923 107.079985,11.9100359 107.079985,12.3617856 L107.079985,22.5261538 L108.484263,22.5261538 C110.184178,22.5261538 111.07109,21.8485293 111.07109,19.5333121 Z M64.1330155,23.4307692 C64.1330155,18.6384615 67.9918951,16.4307692 71.5790226,16.4307692 C75.138975,16.4307692 78.535876,18.6115385 78.535876,23.4307692 L78.535876,26.7153846 L78.3728248,26.9038462 L69.1876043,26.9038462 L69.1876043,30.4576923 C69.1876043,32.2615385 70.1115614,33.9038462 72.6116806,33.9038462 C75.4379023,33.9038462 76.0357569,31.8846154 76.0357569,29.6230769 L76.0357569,29.3807692 L76.2259833,29.1923077 L78.1554231,29.1923077 L78.3456496,29.3807692 L78.3456496,29.8384615 C78.3456496,34.2269231 75.8727056,36.5423077 71.5790226,36.5423077 C66.5516091,36.5423077 64.1330155,33.4192308 64.1330155,29.5153846 L64.1330155,23.4307692 Z M73.1555903,21.3446732 C73.1555903,20.1817985 72.3573693,19.5538462 71.1600377,19.5538462 C69.9861832,19.5538462 69.1644851,20.1817985 69.1644851,21.3446732 L69.1644851,24.5076923 L73.1555903,24.5076923 L73.1555903,21.3446732 Z M16.7122765,9 C18.3699642,9 20.027652,9.45769231 20.9516091,10.7230769 L21.6038141,9.37692308 L21.8755662,9.18846154 L23.3430274,9.18846154 L23.5332539,9.37692308 L23.5332539,17.3192308 L23.3430274,17.5076923 L21.1418355,17.5076923 L20.9516091,17.3192308 L20.9516091,17.0769231 C20.9516091,13.3346154 19.8646007,11.4230769 17.5275328,11.4230769 C15.6796186,11.4230769 14.6197855,12.6076923 14.6197855,14.3576923 C14.6197855,15.9192308 15.4622169,17.2384615 16.6579261,18.3692308 C19.7015495,21.4384615 24.8376639,23.3230769 24.8376639,29.0038462 C24.8376639,33.1769231 22.0929678,36.5423077 17.3101311,36.5423077 C14.8371871,36.5423077 13.3697259,35.6269231 12.5272944,34.6307692 L12.2011919,35.95 L11.9294398,36.1384615 L10.2445769,36.1384615 L10.0543504,35.95 L10.0543504,27.4153846 L10.2445769,27.2269231 L12.4457688,27.2269231 L12.6359952,27.4153846 L12.6359952,27.6576923 C12.6359952,32.3961538 14.565435,34.1461538 16.9568534,34.1461538 C19.2395709,34.1461538 20.163528,32.5038462 20.163528,30.7 C20.163528,24.7769231 10.0271752,24.4807692 10.0271752,16.1076923 C10.0271752,11.9076923 12.5816448,9 16.7122765,9 Z M41.3058403,40.9846154 L41.142789,41.1461538 L10.1630513,41.1461538 L10,40.9846154 L10,39.5846154 L10.1630513,39.4230769 L41.142789,39.4230769 L41.3058403,39.5846154 L41.3058403,40.9846154 Z M43.8331347,18.6115385 L43.6429082,18.8 L42.9363528,18.8 C42.3656734,18.8 42.0395709,19.0692308 42.0395709,19.6076923 L42.0395709,33.3653846 C42.0395709,33.9038462 42.3384982,34.1730769 42.9363528,34.1730769 L43.6429082,34.1730769 L43.8331347,34.3615385 L43.8331347,35.9769231 L43.6429082,36.1653846 L37.229559,36.1653846 L37.0393325,35.9769231 L37.0393325,34.55 C36.2784267,35.6269231 34.756615,36.5423077 32.5554231,36.5423077 C29.9737783,36.5423077 27.5280095,35.2769231 27.5280095,31.1038462 L27.5280095,19.6076923 C27.5280095,19.0692308 27.2290822,18.8 26.6312277,18.8 L25.9246722,18.8 L25.7344458,18.6115385 L25.7344458,16.9961538 L25.9246722,16.8076923 L32.3380215,16.8076923 L32.5282479,16.9961538 L32.5282479,30.8076923 L32.5554231,30.8076923 C32.5554231,32.2615385 33.0174017,33.4730769 34.5663886,33.4730769 C35.4631704,33.4730769 37.0393325,33.0423077 37.0393325,30.5923077 L37.0393325,19.6076923 C37.0393325,19.0692308 36.7404052,18.8 36.1425507,18.8 L35.4631704,18.8 L35.272944,18.6115385 L35.272944,16.9961538 L35.4631704,16.8076923 L43.6429082,16.8076923 L43.8331347,16.9961538 L43.8331347,18.6115385 L43.8331347,18.6115385 Z M53.0998808,42.0076923 L53.9966627,42.0076923 L54.1868892,42.1961538 L54.1868892,43.8115385 L53.9966627,44 L45.6266985,44 L45.436472,43.8115385 L45.436472,42.1961538 L45.6266985,42.0076923 L46.3332539,42.0076923 C46.9039333,42.0076923 47.2300358,41.7384615 47.2300358,41.2 L47.1485101,19.6076923 C47.1485101,19.0692308 46.8495828,18.8 46.2517282,18.8 L45.572348,18.8 L45.3821216,18.6115385 L45.3821216,16.9961538 L45.572348,16.8076923 L51.9856973,16.8076923 L52.1759237,16.9961538 L52.1759237,17.5615385 C52.8824791,16.9423077 54.2684148,16.4038462 55.9261025,16.4038462 C58.6707986,16.4038462 61.8774732,17.8576923 61.8774732,22.6769231 L61.8774732,29.4884615 C61.8774732,34.3076923 58.9697259,36.5153846 55.4369487,36.5153846 C54.4042908,36.5153846 53.2085816,36.3269231 52.2030989,35.7076923 L52.2030989,41.2 C52.2030989,41.7384615 52.5020262,42.0076923 53.0998808,42.0076923 Z M54.2210445,34.4153846 C55.2188208,34.4153846 56.193393,33.784098 56.193393,32.4689176 L56.193393,21.5266167 C56.193393,20.2114364 55.2420249,19.5538462 54.2442486,19.5538462 C53.2232681,19.5538462 52.2022877,20.23774 52.2022877,21.5266167 L52.2022877,32.4689176 C52.2022877,33.7314908 53.200064,34.4153846 54.2210445,34.4153846 Z M89.0526818,40.9846154 L88.8896305,41.1461538 L57.9098927,41.1461538 L57.7468415,40.9846154 L57.7468415,39.5846154 L57.9098927,39.4230769 L88.8896305,39.4230769 L89.0526818,39.5846154 L89.0526818,40.9846154 Z M91.6615018,22.8653846 C90.3027414,22.8653846 89.1885578,21.9230769 89.1885578,20.5230769 C89.1885578,19.7692308 89.4874851,18.9615385 90.1125149,18.6115385 C88.1830751,18.6115385 87.2862932,20.2807692 87.2862932,22.3538462 L87.2862932,33.3653846 C87.2862932,33.9038462 87.5852205,34.1730769 88.1830751,34.1730769 L88.8896305,34.1730769 L89.079857,34.3615385 L89.079857,35.9769231 L88.8896305,36.1653846 L80.7098927,36.1653846 L80.5196663,35.9769231 L80.5196663,34.3615385 L80.7098927,34.1730769 L81.4164482,34.1730769 C81.9871275,34.1730769 82.31323,33.9038462 82.31323,33.3653846 L82.31323,19.6076923 C82.31323,19.0692308 82.0143027,18.8 81.4164482,18.8 L80.7098927,18.8 L80.5196663,18.6115385 L80.5196663,16.9961538 L80.7098927,16.8076923 L86.6884386,16.8076923 L86.8786651,16.9961538 L86.8786651,18.7192308 C87.6123957,17.2653846 89.1613826,16.4307692 90.8190703,16.4307692 C92.9115614,16.4307692 94.4877235,17.8038462 94.4877235,19.7961538 C94.4877235,21.5461538 93.2104887,22.8653846 91.6615018,22.8653846 Z M124,40.9846154 L123.836949,41.1461538 L99.9227652,41.1461538 L99.7597139,40.9846154 L99.7597139,39.5846154 L99.9227652,39.4230769 L123.836949,39.4230769 L124,39.5846154 L124,40.9846154 Z" id="Shape-Copy-5" fill="#FFFFFF" fill-rule="nonzero"></path>
    </g>
</svg>