<?xml version="1.0" encoding="UTF-8"?>
<svg width="109px" height="149px" viewBox="0 0 109 149" version="1.1" xmlns="http://www.w3.org/2000/svg" xmlns:xlink="http://www.w3.org/1999/xlink">
    <!-- Generator: Sketch 53.2 (72643) - https://sketchapp.com -->
    <title>Logo_pin / Dagli'Brugsen / Dagli'Brugsen Solid</title>
    <desc>Created with Sketch.</desc>
    <g id="Logo_pin-/-Dagli'Brugsen-/-Dagli'Brugsen-Solid" stroke="none" stroke-width="1" fill="none" fill-rule="evenodd">
        <path d="M41.7312952,132.667021 C36.0288064,125.354283 30.4099396,117.733591 25.1509596,110.016723 C20.7732247,103.592968 16.831126,97.3689886 13.4261776,91.4302889 C4.80805096,76.3990876 -1.84741111e-13,63.9022682 -1.84741111e-13,54.5815541 C-1.84741111e-13,24.7231626 24.4587196,-1.42108547e-14 54.325,-1.42108547e-14 C84.3460035,-1.42108547e-14 108.65,24.418774 108.65,54.5815541 C108.65,63.8616327 103.884154,76.2444727 95.3364549,91.1083266 C91.9055511,97.0744294 87.9238137,103.328684 83.4955522,109.784639 C78.237811,117.449891 72.6217005,125.014326 66.9143351,132.281263 C63.5350913,136.583906 56.8992719,145.031503 56.8992719,145.031503 C55.5361172,146.766861 53.2842356,146.796206 51.871789,145.095418 C51.871789,145.095418 45.1302395,137.025748 41.7312952,132.667021 Z" id="Shape-Copy-6" fill="#C31414"></path>
        <g id="DB.-Copy" transform="translate(36.000000, 29.000000)" fill="#FFFFFF">
            <path d="M20.9283801,58 C29.4850355,58 36,52.2833719 36,41.9269145 L36,16.0773501 C36,5.71662807 29.4850355,0 20.9283801,0 L0.402468848,0 L0,0.415793537 L0,3.8956656 L0.402468848,4.31145914 L1.62454874,4.31145914 C2.51962269,4.31145914 3.25538605,4.80614683 3.25538605,5.80191905 L3.25538605,52.1191868 C3.25538605,52.9465093 2.51962269,53.6928054 1.62454874,53.6928054 L0.402468848,53.6928054 L0,54.1107312 L0,57.5906033 L0.402468848,58 L20.9283801,58 Z M15,6.47894987 C15,5.73630122 15.7285181,5 16.6147779,5 L18.8750519,5 C22.8248236,5 25,6.56358219 25,11.2479813 L25,47.3415519 C25,52.025951 22.8248236,54 18.8750519,54 L16.6147779,54 C15.7285181,54 15,53.3419837 15,52.4385336 L15,6.47894987 Z" id="Fill-7-Copy"></path>
        </g>
    </g>
</svg>