<?xml version="1.0" encoding="UTF-8"?>
<svg width="120px" height="160px" viewBox="0 0 120 160" version="1.1" xmlns="http://www.w3.org/2000/svg" xmlns:xlink="http://www.w3.org/1999/xlink">
    <!-- Generator: Sketch 53.2 (72643) - https://sketchapp.com -->
    <title>Logo_pin / Dagli'Brugsen / Dagli'Brugsen Shadow</title>
    <desc>Created with Sketch.</desc>
    <g id="Logo_pin-/-Dagli'Brugsen-/-Dagli'Brugsen-Shadow" stroke="none" stroke-width="1" fill="none" fill-rule="evenodd">
        <path d="M52.7312952,145.667021 C47.0288064,138.354283 41.4099396,130.733591 36.1509596,123.016723 C31.7732247,116.592968 27.831126,110.368989 24.4261776,104.430289 C15.808051,89.3990876 11,76.9022682 11,67.5815541 C11,37.7231626 35.4587196,13 65.325,13 C95.3460035,13 119.65,37.418774 119.65,67.5815541 C119.65,76.8616327 114.884154,89.2444727 106.336455,104.108327 C102.905551,110.074429 98.9238137,116.328684 94.4955522,122.784639 C89.237811,130.449891 83.6217005,138.014326 77.9143351,145.281263 C74.5350913,149.583906 67.8992719,158.031503 67.8992719,158.031503 C66.5361172,159.766861 64.2842356,159.796206 62.871789,158.095418 C62.871789,158.095418 56.1302395,150.025748 52.7312952,145.667021 Z" id="Shape-Copy-3" fill="#FFE65F"></path>
        <path d="M41.7312952,132.667021 C36.0288064,125.354283 30.4099396,117.733591 25.1509596,110.016723 C20.7732247,103.592968 16.831126,97.3689886 13.4261776,91.4302889 C4.80805096,76.3990876 -1.84741111e-13,63.9022682 -1.84741111e-13,54.5815541 C-1.84741111e-13,24.7231626 24.4587196,-1.42108547e-14 54.325,-1.42108547e-14 C84.3460035,-1.42108547e-14 108.65,24.418774 108.65,54.5815541 C108.65,63.8616327 103.884154,76.2444727 95.3364549,91.1083266 C91.9055511,97.0744294 87.9238137,103.328684 83.4955522,109.784639 C78.237811,117.449891 72.6217005,125.014326 66.9143351,132.281263 C63.5350913,136.583906 56.8992719,145.031503 56.8992719,145.031503 C55.5361172,146.766861 53.2842356,146.796206 51.871789,145.095418 C51.871789,145.095418 45.1302395,137.025748 41.7312952,132.667021 Z" id="Shape-Copy-3" fill="#C31414"></path>
        <path d="M56.9283801,87 C65.4850355,87 72,81.2833719 72,70.9269145 L72,45.0773501 C72,34.7166281 65.4850355,29 56.9283801,29 L36.4024688,29 L36,29.4157935 L36,32.8956656 L36.4024688,33.3114591 L37.6245487,33.3114591 C38.5196227,33.3114591 39.255386,33.8061468 39.255386,34.801919 L39.255386,81.1191868 C39.255386,81.9465093 38.5196227,82.6928054 37.6245487,82.6928054 L36.4024688,82.6928054 L36,83.1107312 L36,86.5906033 L36.4024688,87 L56.9283801,87 Z M51,35.4789499 C51,34.7363012 51.7285181,34 52.6147779,34 L54.8750519,34 C58.8248236,34 61,35.5635822 61,40.2479813 L61,76.3415519 C61,81.025951 58.8248236,83 54.8750519,83 L52.6147779,83 C51.7285181,83 51,82.3419837 51,81.4385336 L51,35.4789499 Z" id="Fill-7-Copy" fill="#FFFFFF"></path>
    </g>
</svg>