<?xml version="1.0" encoding="UTF-8"?>
<svg width="134px" height="50px" viewBox="0 0 134 50" version="1.1" xmlns="http://www.w3.org/2000/svg" xmlns:xlink="http://www.w3.org/1999/xlink">
    <!-- Generator: Sketch 53.2 (72643) - https://sketchapp.com -->
    <title>Logo / CoopDK / CoopDK box color</title>
    <desc>Created with Sketch.</desc>
    <g id="Logo-/-CoopDK-/-CoopDK-box-color" stroke="none" stroke-width="1" fill="none" fill-rule="evenodd">
        <path d="M4,0 L130,0 C132.209139,-4.05812251e-16 134,1.790861 134,4 L134,46 C134,48.209139 132.209139,50 130,50 L4,50 C1.790861,50 2.705415e-16,48.209139 0,46 L0,4 C-2.705415e-16,1.790861 1.790861,4.05812251e-16 4,0 Z" id="Rectangle-Copy-28" fill="#C31414"></path>
        <g id="Group" transform="translate(8.500000, 12.500000)" fill="#FEFEFE">
            <path d="M37.5768147,12.2105203 C37.5768147,9.48956384 39.0499377,7.26730867 42.0615904,7.46372507 C44.3889284,7.61555495 46.0881267,9.29314744 46.0881267,12.0141039 C46.0881267,14.7350603 44.3938388,16.9573154 42.0615904,16.9573154 C39.1809475,16.9573154 37.5768147,14.9314767 37.5768147,12.2105203 M23.6025734,16.9573154 C20.7219304,16.9573154 19.1177977,14.9314767 19.1177977,12.2105203 C19.1177977,9.48956384 20.5909207,7.26730867 23.6025734,7.46372507 C25.9299113,7.61555495 27.6291096,9.29314744 27.6291096,12.0141039 C27.6291096,14.7350603 25.9348217,16.9573154 23.6025734,16.9573154 M61.1055355,7.46372507 C63.4328735,7.61555495 65.1320718,9.29314744 65.1320718,12.0141039 C65.1320718,14.7350603 63.4377839,16.9573154 61.1055355,16.9573154 C58.2248926,16.9573154 56.6207598,14.9314767 56.6207598,12.2105203 C56.6207598,9.48956384 58.0938828,7.26730867 61.1055355,7.46372507 M51.0845671,14.7311319 L51.0845671,24.3229305 L56.9607566,24.3229305 L56.9607566,19.6089369 C58.4501822,19.9689681 59.6449832,20.2144886 61.1837092,20.2144886 C62.7222389,20.2144886 70.7099048,19.3469174 70.7097083,12.0795105 C70.7097083,11.3087726 70.2842704,4.13918105 60.8234816,4.14035955 C58.7742692,4.14075238 52.9177214,4.56658314 51.3628891,10.148148 C49.7424538,5.71247643 46.1087504,4.1385918 41.7710906,4.14035955 C39.5767265,4.14134163 34.5692868,4.69759288 32.6051227,9.13326449 C30.4445423,5.09042568 26.9907563,4.14035955 23.3898544,4.14035955 C21.8499498,4.14035955 14.2401892,4.38666572 13.5199302,11.9321982 C13.3690824,13.5131538 14.0928768,14.9766525 14.3710025,15.6641099 C13.5853369,16.0897442 12.0796087,16.3024632 10.6227883,16.3024632 C9.16596782,16.3024632 6.07240949,15.4350883 6.05610693,12.063208 C6.04883952,10.5515873 7.3491161,7.72574455 10.7864031,8.03667172 C11.7504148,8.1238806 12.6032549,8.28219222 12.6032549,8.28219222 C13.1270974,7.13649535 14.0928768,5.71247643 14.8129394,5.13952979 C12.9797851,4.33756162 11.3593498,4.15744777 9.90252933,4.14114521 C9.14004085,4.13250289 6.34542829,4.19240989 3.96662924,5.59875133 C1.80094199,6.87879703 2.13162821e-13,9.36739284 2.13162821e-13,12.1286146 C2.13162821e-13,13.2798112 0.528949371,15.9589309 2.58601835,17.7920852 C4.36064054,19.3734336 7.48307209,20.2144886 9.88622677,20.2144886 C15.0749589,20.2144886 16.9572172,18.4304385 16.9572172,18.4304385 C19.052391,19.4942297 20.6563273,20.2144886 23.5043652,20.2144886 C26.352403,20.2144886 31.2628131,18.8395738 32.5723212,15.2058704 C34.2581632,18.6103559 38.1864912,20.2144886 41.9184029,20.2144886 C45.6503145,20.2144886 50.1187877,18.3157313 51.0845671,14.7311319" id="Fill-1"></path>
            <path d="M73.8501709,20.2308894 C75.3146516,20.2308894 76.5017923,19.0437487 76.5017923,17.579268 C76.5017923,16.1147873 75.3146516,14.9276466 73.8501709,14.9276466 C72.3856902,14.9276466 71.1985495,16.1147873 71.1985495,17.579268 C71.1985495,19.0437487 72.3856902,20.2308894 73.8501709,20.2308894" id="Fill-3"></path>
            <path d="M86.9939441,16.9573154 C84.1129083,16.9573154 82.5091683,14.9316731 82.5091683,12.2105203 C82.5091683,9.48956384 83.9822914,7.26750509 86.9939441,7.46392149 C89.321282,7.61555495 91.0204803,9.29314744 91.0204803,12.0141039 C91.0204803,14.7352567 89.325996,16.9573154 86.9939441,16.9573154 L86.9939441,16.9573154 Z M90.5479024,4.97591492 C89.4022056,4.41946726 87.8949061,4.20419488 86.423158,4.14055596 C83.7878391,4.02663445 77.0279722,5.53236259 77.0279722,11.9814987 C77.0279722,13.9808213 77.6893063,19.775498 86.7645297,20.2309876 C90.6789122,20.427404 96.407593,18.5614482 96.407593,12.2046278 L96.407593,9.82082006e-05 L90.580704,9.82082006e-05 L90.5479024,4.97591492 Z" id="Fill-5"></path>
            <polygon id="Fill-7" points="98.6009356 7.10542736e-15 98.6009356 19.8708581 104.558834 19.8708581 104.558834 11.5885677 104.558834 7.10542736e-15"></polygon>
            <polygon id="Fill-9" points="110.189503 11.0975267 115.525548 4.51757725 109.862077 4.51757725 104.558834 11.5885677 109.862077 19.8708581 116.24561 19.8708581"></polygon>
        </g>
    </g>
</svg>