<?xml version="1.0" encoding="UTF-8"?>
<svg width="134px" height="50px" viewBox="0 0 134 50" version="1.1" xmlns="http://www.w3.org/2000/svg" xmlns:xlink="http://www.w3.org/1999/xlink">
    <!-- Generator: Sketch 53.2 (72643) - https://sketchapp.com -->
    <title>Logo / CoopDK / CoopDK White</title>
    <desc>Created with Sketch.</desc>
    <g id="Logo-/-CoopDK-/-CoopDK-White" stroke="none" stroke-width="1" fill="none" fill-rule="evenodd">
        <path d="M46.0768147,24.7105203 C46.0768147,21.9895638 47.5499377,19.7673087 50.5615904,19.9637251 C52.8889284,20.1155549 54.5881267,21.7931474 54.5881267,24.5141039 C54.5881267,27.2350603 52.8938388,29.4573154 50.5615904,29.4573154 C47.6809475,29.4573154 46.0768147,27.4314767 46.0768147,24.7105203 M32.1025734,29.4573154 C29.2219304,29.4573154 27.6177977,27.4314767 27.6177977,24.7105203 C27.6177977,21.9895638 29.0909207,19.7673087 32.1025734,19.9637251 C34.4299113,20.1155549 36.1291096,21.7931474 36.1291096,24.5141039 C36.1291096,27.2350603 34.4348217,29.4573154 32.1025734,29.4573154 M69.6055355,19.9637251 C71.9328735,20.1155549 73.6320718,21.7931474 73.6320718,24.5141039 C73.6320718,27.2350603 71.9377839,29.4573154 69.6055355,29.4573154 C66.7248926,29.4573154 65.1207598,27.4314767 65.1207598,24.7105203 C65.1207598,21.9895638 66.5938828,19.7673087 69.6055355,19.9637251 M59.5845671,27.2311319 L59.5845671,36.8229305 L65.4607566,36.8229305 L65.4607566,32.1089369 C66.9501822,32.4689681 68.1449832,32.7144886 69.6837092,32.7144886 C71.2222389,32.7144886 79.2099048,31.8469174 79.2097083,24.5795105 C79.2097083,23.8087726 78.7842704,16.639181 69.3234816,16.6403595 C67.2742692,16.6407524 61.4177214,17.0665831 59.8628891,22.648148 C58.2424538,18.2124764 54.6087504,16.6385918 50.2710906,16.6403595 C48.0767265,16.6413416 43.0692868,17.1975929 41.1051227,21.6332645 C38.9445423,17.5904257 35.4907563,16.6403595 31.8898544,16.6403595 C30.3499498,16.6403595 22.7401892,16.8866657 22.0199302,24.4321982 C21.8690824,26.0131538 22.5928768,27.4766525 22.8710025,28.1641099 C22.0853369,28.5897442 20.5796087,28.8024632 19.1227883,28.8024632 C17.6659678,28.8024632 14.5724095,27.9350883 14.5561069,24.563208 C14.5488395,23.0515873 15.8491161,20.2257446 19.2864031,20.5366717 C20.2504148,20.6238806 21.1032549,20.7821922 21.1032549,20.7821922 C21.6270974,19.6364953 22.5928768,18.2124764 23.3129394,17.6395298 C21.4797851,16.8375616 19.8593498,16.6574478 18.4025293,16.6411452 C17.6400409,16.6325029 14.8454283,16.6924099 12.4666292,18.0987513 C10.300942,19.378797 8.5,21.8673928 8.5,24.6286146 C8.5,25.7798112 9.02894937,28.4589309 11.0860183,30.2920852 C12.8606405,31.8734336 15.9830721,32.7144886 18.3862268,32.7144886 C23.5749589,32.7144886 25.4572172,30.9304385 25.4572172,30.9304385 C27.552391,31.9942297 29.1563273,32.7144886 32.0043652,32.7144886 C34.852403,32.7144886 39.7628131,31.3395738 41.0723212,27.7058704 C42.7581632,31.1103559 46.6864912,32.7144886 50.4184029,32.7144886 C54.1503145,32.7144886 58.6187877,30.8157313 59.5845671,27.2311319" id="Fill-1" fill="#FEFEFE"></path>
        <path d="M82.3501709,32.7308894 C83.8146516,32.7308894 85.0017923,31.5437487 85.0017923,30.079268 C85.0017923,28.6147873 83.8146516,27.4276466 82.3501709,27.4276466 C80.8856902,27.4276466 79.6985495,28.6147873 79.6985495,30.079268 C79.6985495,31.5437487 80.8856902,32.7308894 82.3501709,32.7308894" id="Fill-3" fill="#FEFEFE"></path>
        <path d="M95.4939441,29.4573154 C92.6129083,29.4573154 91.0091683,27.4316731 91.0091683,24.7105203 C91.0091683,21.9895638 92.4822914,19.7675051 95.4939441,19.9639215 C97.821282,20.1155549 99.5204803,21.7931474 99.5204803,24.5141039 C99.5204803,27.2352567 97.825996,29.4573154 95.4939441,29.4573154 L95.4939441,29.4573154 Z M99.0479024,17.4759149 C97.9022056,16.9194673 96.3949061,16.7041949 94.923158,16.640556 C92.2878391,16.5266345 85.5279722,18.0323626 85.5279722,24.4814987 C85.5279722,26.4808213 86.1893063,32.275498 95.2645297,32.7309876 C99.1789122,32.927404 104.907593,31.0614482 104.907593,24.7046278 L104.907593,12.5000982 L99.080704,12.5000982 L99.0479024,17.4759149 Z" id="Fill-5" fill="#FEFEFE"></path>
        <polygon id="Fill-7" fill="#FEFEFE" points="107.100936 12.5 107.100936 32.3708581 113.058834 32.3708581 113.058834 24.0885677 113.058834 12.5"></polygon>
        <polygon id="Fill-9" fill="#FEFEFE" points="118.689503 23.5975267 124.025548 17.0175772 118.362077 17.0175772 113.058834 24.0885677 118.362077 32.3708581 124.74561 32.3708581"></polygon>
    </g>
</svg>