<?xml version="1.0" encoding="UTF-8"?>
<svg width="134px" height="50px" viewBox="0 0 134 50" version="1.1" xmlns="http://www.w3.org/2000/svg" xmlns:xlink="http://www.w3.org/1999/xlink">
    <!-- Generator: Sketch 53.2 (72643) - https://sketchapp.com -->
    <title>Logo / Shopping / Shopping box color</title>
    <desc>Created with Sketch.</desc>
    <g id="Logo-/-Shopping-/-Shopping-box-color" stroke="none" stroke-width="1" fill="none" fill-rule="evenodd">
        <path d="M4,0 L130,0 C132.209139,-4.05812251e-16 134,1.790861 134,4 L134,46 C134,48.209139 132.209139,50 130,50 L4,50 C1.790861,50 2.705415e-16,48.209139 0,46 L0,4 C-2.705415e-16,1.790861 1.790861,4.05812251e-16 4,0 Z" id="Rectangle-Copy-28" fill="#C31414"></path>
        <g id="Group" transform="translate(24.000000, 7.971045)" fill="#FEFEFE">
            <path d="M27.7267887,9.00977154 C27.7267887,7.00206055 28.8137614,5.36232604 31.0359683,5.50725573 C32.7532402,5.61928638 34.007027,6.85713086 34.007027,8.86484185 C34.007027,10.8725528 32.7568635,12.5122873 31.0359683,12.5122873 C28.9104295,12.5122873 27.7267887,11.0174825 27.7267887,9.00977154 M17.4156211,12.5122873 C15.2900822,12.5122873 14.1064415,11.0174825 14.1064415,9.00977154 C14.1064415,7.00206055 15.1934141,5.36232604 17.4156211,5.50725573 C19.1328929,5.61928638 20.3866797,6.85713086 20.3866797,8.86484185 C20.3866797,10.8725528 19.1365162,12.5122873 17.4156211,12.5122873 M45.0879162,5.50725573 C46.8051881,5.61928638 48.0589749,6.85713086 48.0589749,8.86484185 C48.0589749,10.8725528 46.8088114,12.5122873 45.0879162,12.5122873 C42.9623774,12.5122873 41.7787366,11.0174825 41.7787366,9.00977154 C41.7787366,7.00206055 42.8657093,5.36232604 45.0879162,5.50725573 M37.6937484,10.8696542 L37.6937484,17.9471507 L42.0296099,17.9471507 L42.0296099,14.4688381 C43.1286118,14.7344943 44.0102191,14.9156564 45.1455983,14.9156564 C46.2808325,14.9156564 52.1746882,14.2755019 52.1745433,8.91310343 C52.1745433,8.34439933 51.8606255,3.05417581 44.8797972,3.05504539 C43.3677458,3.05533525 39.0463772,3.36954281 37.8991138,7.4880098 C36.7034438,4.21506262 34.0222446,3.05374102 30.8216173,3.05504539 C29.2024628,3.05577004 25.5076253,3.46621092 24.0583284,6.73915809 C22.4641019,3.7560703 19.9156582,3.05504539 17.2586622,3.05504539 C16.1224134,3.05504539 10.5074025,3.23678722 9.97594531,8.80440617 C9.86463931,9.97094524 10.3987052,11.0508164 10.6039257,11.5580703 C10.0242069,11.8721329 8.9131759,12.0290918 7.83823239,12.0290918 C6.76328889,12.0290918 4.48064628,11.3890822 4.46861711,8.90107427 C4.46325471,7.78569538 5.42268926,5.70059194 7.95895882,5.93001564 C8.67027374,5.99436442 9.29955845,6.11117775 9.29955845,6.11117775 C9.68608593,5.26580287 10.3987052,4.21506262 10.9300175,3.79230272 C9.57738867,3.2005548 8.38171873,3.06765427 7.30677522,3.05562511 C6.74415817,3.0492482 4.68209855,3.09345176 2.92685508,4.13114833 C1.32886032,5.07565512 -2.91322522e-13,6.91191428 -2.91322522e-13,8.94933586 C-2.91322522e-13,9.79876877 0.390295654,11.7756097 1.90814429,13.1282385 C3.21758403,14.2950674 5.52153131,14.9156564 7.29474606,14.9156564 C11.1233537,14.9156564 12.5122149,13.59926 12.5122149,13.59926 C14.0581799,14.3841992 15.2416757,14.9156564 17.3431562,14.9156564 C19.4446367,14.9156564 23.0678789,13.9011486 24.0341252,11.2199493 C25.2780567,13.7320156 28.1766505,14.9156564 30.9303146,14.9156564 C33.6839787,14.9156564 36.9811291,13.5146211 37.6937484,10.8696542" id="Fill-1"></path>
            <path d="M54.4917951,14.927758 C55.5723908,14.927758 56.4483459,14.051803 56.4483459,12.9712072 C56.4483459,11.8906114 55.5723908,11.0146564 54.4917951,11.0146564 C53.4111993,11.0146564 52.5352443,11.8906114 52.5352443,12.9712072 C52.5352443,14.051803 53.4111993,14.927758 54.4917951,14.927758" id="Fill-3"></path>
            <path d="M64.1901855,12.5122873 C62.0643569,12.5122873 60.8810059,11.0176275 60.8810059,9.00977154 C60.8810059,7.00206055 61.9679786,5.36247097 64.1901855,5.50740066 C65.9074574,5.61928638 67.1612442,6.85713086 67.1612442,8.86484185 C67.1612442,10.8726978 65.9109357,12.5122873 64.1901855,12.5122873 L64.1901855,12.5122873 Z M66.8125433,3.67157629 C65.9671685,3.26099048 64.854978,3.10214754 63.7690199,3.05519032 C61.8244982,2.9711311 56.836598,4.0821621 56.836598,8.84078352 C56.836598,10.3160228 57.3245763,14.5917385 64.0209077,14.9278305 C66.9092114,15.0727602 71.1362308,13.6959281 71.1362308,9.00542365 L71.1362308,7.24648445e-05 L66.8367466,7.24648445e-05 L66.8125433,3.67157629 Z" id="Fill-5"></path>
            <polygon id="Fill-7" points="72.7546316 -3.90798505e-14 72.7546316 14.6621019 77.1507839 14.6621019 77.1507839 8.55085167 77.1507839 -3.90798505e-14"></polygon>
            <polygon id="Fill-9" points="81.3054833 8.18852745 85.2427882 3.33338286 81.0638855 3.33338286 77.1507839 8.55085167 81.0638855 14.6621019 85.7741004 14.6621019"></polygon>
            <path d="M57.5913629,18.3382724 C57.5913629,18.7584236 57.2507781,19.0991533 56.830482,19.0991533 C56.4101859,19.0991533 56.0696011,18.7584236 56.0696011,18.3382724 C56.0696011,17.9182662 56.4101859,17.5773916 56.830482,17.5773916 C57.2507781,17.5773916 57.5913629,17.9182662 57.5913629,18.3382724" id="Fill-11"></path>
            <path d="M12.9470039,25.6283518 C12.1740939,25.2660275 8.93723423,24.710512 9.08216392,23.3094767 C9.15462876,22.6090315 9.83101562,22.0775744 11.0991504,22.0775744 C11.9838012,22.0775744 12.8503358,22.4156953 13.3335314,23.0196174 L14.1306447,22.1500392 C13.3575898,21.4011875 12.1740939,21.1113281 11.1836444,21.1113281 C10.1933398,21.1113281 8.09185935,21.3529259 7.82620323,23.3819416 C7.73199893,24.100503 8.21258578,25.386754 10.5556641,25.990676 C12.8987424,26.594598 13.3335314,27.0776487 13.2851249,27.9954884 C13.2368633,28.913473 12.2948203,29.4207269 11.0871212,29.3965237 C9.87927721,29.3723204 9.15462876,28.7685433 8.52664842,28.0679532 L7.65707028,29.0099962 C8.69578136,30.0004457 9.95174205,30.5076996 11.5459686,30.3627699 C13.1401952,30.2178402 14.5412305,29.3965237 14.5412305,27.9230235 C14.5412305,26.4496683 13.719914,25.990676 12.9470039,25.6283518" id="Fill-13"></path>
            <path d="M20.9906017,21.1114731 C20.0002971,21.1114731 19.1547773,21.3530709 17.8988166,21.9568479 L17.8988166,17.1741682 L16.642711,17.1741682 L16.642711,30.2420435 L17.9470782,30.2420435 L17.9470782,22.8748326 C19.2272422,22.1984457 20.3384181,22.0052545 21.2321995,22.222649 C22.125836,22.4400435 22.4156953,23.3096217 22.4156953,24.4206527 L22.4156953,30.2420435 L23.671801,30.2420435 C23.671801,30.2420435 23.7200625,25.4593637 23.671801,23.6477426 C23.6235394,21.8361215 21.9809063,21.1114731 20.9906017,21.1114731" id="Fill-15"></path>
            <path d="M33.0076643,25.7612523 C32.8808508,28.1888246 31.5506861,29.3482621 30.2450146,29.3482621 C28.9391981,29.3482621 27.3554064,28.1888246 27.3554064,25.7431361 C27.3554064,23.2068665 28.8848494,22.1380101 30.1906659,22.1380101 C32.0475051,22.1380101 33.1086803,23.8278902 33.0076643,25.7612523 M30.2177678,21.1416184 C27.6814982,21.1416184 26.0148068,23.2304901 26.0148068,25.8518333 C26.0148068,28.4731766 27.663382,30.3808861 30.1090705,30.3808861 C32.2001161,30.3808861 34.3663801,28.7866596 34.3663801,25.6344388 C34.3663801,23.0130955 32.7178049,21.1416184 30.2177678,21.1416184" id="Fill-17"></path>
            <path d="M42.7904183,25.7612523 C42.7723021,26.6851791 42.5186752,29.3482621 40.2179163,29.3482621 C39.6560239,29.3482621 38.4606439,29.1308676 37.8990413,28.5330326 L37.8990413,22.8264261 C38.8773167,22.3372884 39.8031276,22.2104749 40.3637156,22.2104749 C40.9244486,22.2104749 41.8302591,22.4641019 42.4099779,23.6597718 C42.6011402,24.0539806 42.8085345,24.8373255 42.7904183,25.7612523 M40.7432865,21.1416184 C39.7287786,21.105386 39.330222,21.2321995 37.790344,21.9568479 L37.790344,21.2321995 L36.5946741,21.2321995 L36.5946741,34.0041284 L37.8809251,34.0041284 L37.8809251,29.6562377 C38.8229681,30.2540727 39.7460253,30.3808861 40.5258919,30.3808861 C42.7360697,30.3808861 44.1918884,28.1883898 44.131018,25.5800902 C44.0404369,21.703221 41.7577943,21.1778509 40.7432865,21.1416184" id="Fill-19"></path>
            <path d="M52.5188237,25.7612523 C52.5007075,26.6851791 52.2470806,29.3482621 49.9463217,29.3482621 C49.3844293,29.3482621 48.1890493,29.1308676 47.6274467,28.5330326 L47.6274467,22.8264261 C48.6057221,22.3372884 49.531533,22.2104749 50.092121,22.2104749 C50.652854,22.2104749 51.5586645,22.4641019 52.1383833,23.6597718 C52.3295456,24.0539806 52.5369399,24.8373255 52.5188237,25.7612523 M50.4716919,21.1416184 C49.457184,21.105386 49.0586274,21.2321995 47.5187494,21.9568479 L47.5187494,21.2321995 L46.3230795,21.2321995 L46.3230795,34.0041284 L47.6093305,34.0041284 L47.6093305,29.6562377 C48.5513735,30.2540727 49.4744307,30.3808861 50.2542973,30.3808861 C52.4644751,30.3808861 53.9202938,28.1883898 53.8594234,25.5800902 C53.7688423,21.703221 51.4861997,21.1778509 50.4716919,21.1416184" id="Fill-21"></path>
            <polygon id="Fill-23" points="56.1964146 30.2540727 57.4826656 30.2540727 57.4826656 21.2140833 56.1964146 21.2140833"></polygon>
            <path d="M64.9103122,21.1360966 C63.7871071,21.0581244 63.2255045,21.1597202 61.377651,22.1379956 L61.377651,21.2140688 L60.1819811,21.2140688 L60.1819811,30.2540582 L61.5044645,30.2540582 C61.5044645,30.2540582 61.4863483,24.8191948 61.5044645,22.9894575 C62.6276696,22.4822036 63.1349235,22.2104604 64.4574069,22.2104604 C65.7798903,22.2104604 66.0448218,23.1703297 66.0335173,24.6742651 C66.0222128,26.1779107 66.0516335,30.2540582 66.0516335,30.2540582 L67.3378845,30.2540582 C67.3378845,30.2540582 67.3197683,25.4713784 67.3378845,23.7684546 C67.3560007,22.0655307 66.0335173,21.2140688 64.9103122,21.1360966" id="Fill-25"></path>
            <path d="M73.3071761,26.4677845 C72.2716534,26.4677845 71.3052623,25.4211023 71.3052623,24.23036 C71.3052623,23.0397626 71.9574459,21.9930804 73.4339895,21.9930804 C74.4695122,21.9930804 75.3057565,22.6790326 75.3090899,24.3119554 C75.3119885,25.8518333 74.3426987,26.4677845 73.3071761,26.4677845 M71.4261336,29.8675452 C72.5493387,29.9521841 73.9502291,30.0971138 74.7957489,30.3627699 C75.6411238,30.6284261 76.3537431,31.1236508 76.3053365,31.7275728 C76.257075,32.3313499 75.3030028,33.2613637 73.0686218,33.1888989 C70.8343857,33.116434 70.689456,31.9851129 70.6772819,31.5301786 C70.6652527,31.0753892 71.0154029,30.2661018 71.4261336,29.8675452 M77.9357955,22.3372884 C77.9357955,22.3372884 78.0084053,21.7575696 78.062754,21.3046643 C77.3379606,21.2503157 76.4683824,21.4677102 75.6712692,21.7394534 C74.6750225,21.0968352 73.7900818,21.068284 72.9719537,21.1152412 C71.2509136,21.2140833 69.9829238,22.735845 69.9466913,23.9677474 C69.9104589,25.1996497 70.1459697,25.906182 71.3958433,26.8119925 C70.0735048,27.1562006 69.6930644,27.9714301 69.6749482,28.2975219 C69.656832,28.6236137 69.656832,28.9859379 70.943083,29.6743539 C70.1822021,30.0910268 69.3653784,30.9988663 69.4756699,31.9569965 C69.7111806,34.0041284 71.9145467,34.0947094 73.0989121,34.0947094 C76.5770797,34.0947094 77.5191227,32.7359936 77.6459362,31.5946723 C77.7727496,30.453351 76.776358,29.764935 75.6531529,29.3844945 C74.5300928,29.0040541 72.8994888,28.8410082 72.0117945,28.6960785 C71.1241001,28.5511488 70.8887343,28.3699867 70.8887343,28.0620111 C70.8887343,27.7540355 71.2690298,27.4098275 72.0299107,27.1562006 C72.2836826,27.192433 73.2106529,27.3540296 73.8416768,27.2648978 C75.3815547,27.0475033 76.2204077,26.0532856 76.4502662,25.4532767 C76.8669391,24.366304 76.685777,23.2068665 76.1422906,22.5184505 C76.6676608,22.3191722 77.1749147,22.2829397 77.9357955,22.3372884" id="Fill-26"></path>
        </g>
    </g>
</svg>