<?xml version="1.0" encoding="UTF-8"?>
<svg width="134px" height="50px" viewBox="0 0 134 50" version="1.1" xmlns="http://www.w3.org/2000/svg" xmlns:xlink="http://www.w3.org/1999/xlink">
    <!-- Generator: Sketch 53.2 (72643) - https://sketchapp.com -->
    <title>Logo / Shopping / Shopping dark</title>
    <desc>Created with Sketch.</desc>
    <g id="Logo-/-Shopping-/-Shopping-dark" stroke="none" stroke-width="1" fill="none" fill-rule="evenodd">
        <path d="M51.7267887,16.9808166 C51.7267887,14.9731056 52.8137614,13.3333711 55.0359683,13.4783008 C56.7532402,13.5903315 58.007027,14.8281759 58.007027,16.8358869 C58.007027,18.8435979 56.7568635,20.4833324 55.0359683,20.4833324 C52.9104295,20.4833324 51.7267887,18.9885276 51.7267887,16.9808166 M41.4156211,20.4833324 C39.2900822,20.4833324 38.1064415,18.9885276 38.1064415,16.9808166 C38.1064415,14.9731056 39.1934141,13.3333711 41.4156211,13.4783008 C43.1328929,13.5903315 44.3866797,14.8281759 44.3866797,16.8358869 C44.3866797,18.8435979 43.1365162,20.4833324 41.4156211,20.4833324 M69.0879162,13.4783008 C70.8051881,13.5903315 72.0589749,14.8281759 72.0589749,16.8358869 C72.0589749,18.8435979 70.8088114,20.4833324 69.0879162,20.4833324 C66.9623774,20.4833324 65.7787366,18.9885276 65.7787366,16.9808166 C65.7787366,14.9731056 66.8657093,13.3333711 69.0879162,13.4783008 M61.6937484,18.8406993 L61.6937484,25.9181958 L66.0296099,25.9181958 L66.0296099,22.4398832 C67.1286118,22.7055393 68.0102191,22.8867015 69.1455983,22.8867015 C70.2808325,22.8867015 76.1746882,22.246547 76.1745433,16.8841485 C76.1745433,16.3154444 75.8606255,11.0252209 68.8797972,11.0260905 C67.3677458,11.0263803 63.0463772,11.3405879 61.8991138,15.4590549 C60.7034438,12.1861077 58.0222446,11.0247861 54.8216173,11.0260905 C53.2024628,11.0268151 49.5076253,11.437256 48.0583284,14.7102032 C46.4641019,11.7271154 43.9156582,11.0260905 41.2586622,11.0260905 C40.1224134,11.0260905 34.5074025,11.2078323 33.9759453,16.7754512 C33.8646393,17.9419903 34.3987052,19.0218614 34.6039257,19.5291153 C34.0242069,19.843178 32.9131759,20.0001368 31.8382324,20.0001368 C30.7632889,20.0001368 28.4806463,19.3601273 28.4686171,16.8721193 C28.4632547,15.7567405 29.4226893,13.671637 31.9589588,13.9010607 C32.6702737,13.9654095 33.2995585,14.0822228 33.2995585,14.0822228 C33.6860859,13.2368479 34.3987052,12.1861077 34.9300175,11.7633478 C33.5773887,11.1715999 32.3817187,11.0386993 31.3067752,11.0266702 C30.7441582,11.0202933 28.6820985,11.0644968 26.9268551,12.1021934 C25.3288603,13.0467002 24,14.8829594 24,16.9203809 C24,17.7698138 24.3902957,19.7466548 25.9081443,21.0992836 C27.217584,22.2661125 29.5215313,22.8867015 31.2947461,22.8867015 C35.1233537,22.8867015 36.5122149,21.5703051 36.5122149,21.5703051 C38.0581799,22.3552443 39.2416757,22.8867015 41.3431562,22.8867015 C43.4446367,22.8867015 47.0678789,21.8721936 48.0341252,19.1909944 C49.2780567,21.7030607 52.1766505,22.8867015 54.9303146,22.8867015 C57.6839787,22.8867015 60.9811291,21.4856661 61.6937484,18.8406993" id="Fill-1" fill="#333333"></path>
        <path d="M78.4917951,22.8988031 C79.5723908,22.8988031 80.4483459,22.022848 80.4483459,20.9422523 C80.4483459,19.8616565 79.5723908,18.9857015 78.4917951,18.9857015 C77.4111993,18.9857015 76.5352443,19.8616565 76.5352443,20.9422523 C76.5352443,22.022848 77.4111993,22.8988031 78.4917951,22.8988031" id="Fill-3" fill="#333333"></path>
        <path d="M88.1901855,20.4833324 C86.0643569,20.4833324 84.8810059,18.9886725 84.8810059,16.9808166 C84.8810059,14.9731056 85.9679786,13.333516 88.1901855,13.4784457 C89.9074574,13.5903315 91.1612442,14.8281759 91.1612442,16.8358869 C91.1612442,18.8437428 89.9109357,20.4833324 88.1901855,20.4833324 L88.1901855,20.4833324 Z M90.8125433,11.6426214 C89.9671685,11.2320356 88.854978,11.0731926 87.7690199,11.0262354 C85.8244982,10.9421762 80.836598,12.0532072 80.836598,16.8118286 C80.836598,18.2870679 81.3245763,22.5627836 88.0209077,22.8988755 C90.9092114,23.0438052 95.1362308,21.6669732 95.1362308,16.9764687 L95.1362308,7.97111754 L90.8367466,7.97111754 L90.8125433,11.6426214 Z" id="Fill-5" fill="#333333"></path>
        <polygon id="Fill-7" fill="#333333" points="96.7546316 7.97104508 96.7546316 22.633147 101.150784 22.633147 101.150784 16.5218968 101.150784 7.97104508"></polygon>
        <polygon id="Fill-9" fill="#333333" points="105.305483 16.1595725 109.242788 11.3044279 105.063885 11.3044279 101.150784 16.5218968 105.063885 22.633147 109.7741 22.633147"></polygon>
        <path d="M81.5913629,26.3093175 C81.5913629,26.7294687 81.2507781,27.0701984 80.830482,27.0701984 C80.4101859,27.0701984 80.0696011,26.7294687 80.0696011,26.3093175 C80.0696011,25.8893113 80.4101859,25.5484367 80.830482,25.5484367 C81.2507781,25.5484367 81.5913629,25.8893113 81.5913629,26.3093175" id="Fill-11" fill="#333333"></path>
        <path d="M36.9470039,33.5993968 C36.1740939,33.2370726 32.9372342,32.6815571 33.0821639,31.2805218 C33.1546288,30.5800766 33.8310156,30.0486195 35.0991504,30.0486195 C35.9838012,30.0486195 36.8503358,30.3867404 37.3335314,30.9906624 L38.1306447,30.1210843 C37.3575898,29.3722326 36.1740939,29.0823732 35.1836444,29.0823732 C34.1933398,29.0823732 32.0918593,29.323971 31.8262032,31.3529867 C31.7319989,32.0715481 32.2125858,33.357799 34.5556641,33.9617211 C36.8987424,34.5656431 37.3335314,35.0486937 37.2851249,35.9665335 C37.2368633,36.8845181 36.2948203,37.391772 35.0871212,37.3675688 C33.8792772,37.3433655 33.1546288,36.7395884 32.5266484,36.0389983 L31.6570703,36.9810413 C32.6957814,37.9714908 33.9517421,38.4787447 35.5459686,38.333815 C37.1401952,38.1888853 38.5412305,37.3675688 38.5412305,35.8940686 C38.5412305,34.4207134 37.719914,33.9617211 36.9470039,33.5993968" id="Fill-13" fill="#333333"></path>
        <path d="M44.9906017,29.0825181 C44.0002971,29.0825181 43.1547773,29.3241159 41.8988166,29.927893 L41.8988166,25.1452133 L40.642711,25.1452133 L40.642711,38.2130886 L41.9470782,38.2130886 L41.9470782,30.8458777 C43.2272422,30.1694908 44.3384181,29.9762995 45.2321995,30.1936941 C46.125836,30.4110886 46.4156953,31.2806667 46.4156953,32.3916977 L46.4156953,38.2130886 L47.671801,38.2130886 C47.671801,38.2130886 47.7200625,33.4304088 47.671801,31.6187877 C47.6235394,29.8071666 45.9809063,29.0825181 44.9906017,29.0825181" id="Fill-15" fill="#333333"></path>
        <path d="M57.0076643,33.7322974 C56.8808508,36.1598697 55.5506861,37.3193072 54.2450146,37.3193072 C52.9391981,37.3193072 51.3554064,36.1598697 51.3554064,33.7141812 C51.3554064,31.1779116 52.8848494,30.1090551 54.1906659,30.1090551 C56.0475051,30.1090551 57.1086803,31.7989353 57.0076643,33.7322974 M54.2177678,29.1126635 C51.6814982,29.1126635 50.0148068,31.2015351 50.0148068,33.8228784 C50.0148068,36.4442217 51.663382,38.3519312 54.1090705,38.3519312 C56.2001161,38.3519312 58.3663801,36.7577046 58.3663801,33.6054839 C58.3663801,30.9841406 56.7178049,29.1126635 54.2177678,29.1126635" id="Fill-17" fill="#333333"></path>
        <path d="M66.7904183,33.7322974 C66.7723021,34.6562241 66.5186752,37.3193072 64.2179163,37.3193072 C63.6560239,37.3193072 62.4606439,37.1019126 61.8990413,36.5040777 L61.8990413,30.7974712 C62.8773167,30.3083335 63.8031276,30.18152 64.3637156,30.18152 C64.9244486,30.18152 65.8302591,30.4351469 66.4099779,31.6308169 C66.6011402,32.0250256 66.8085345,32.8083706 66.7904183,33.7322974 M64.7432865,29.1126635 C63.7287786,29.0764311 63.330222,29.2032446 61.790344,29.927893 L61.790344,29.2032446 L60.5946741,29.2032446 L60.5946741,41.9751735 L61.8809251,41.9751735 L61.8809251,37.6272828 C62.8229681,38.2251177 63.7460253,38.3519312 64.5258919,38.3519312 C66.7360697,38.3519312 68.1918884,36.1594349 68.131018,33.5511353 C68.0404369,29.6742661 65.7577943,29.1488959 64.7432865,29.1126635" id="Fill-19" fill="#333333"></path>
        <path d="M76.5188237,33.7322974 C76.5007075,34.6562241 76.2470806,37.3193072 73.9463217,37.3193072 C73.3844293,37.3193072 72.1890493,37.1019126 71.6274467,36.5040777 L71.6274467,30.7974712 C72.6057221,30.3083335 73.531533,30.18152 74.092121,30.18152 C74.652854,30.18152 75.5586645,30.4351469 76.1383833,31.6308169 C76.3295456,32.0250256 76.5369399,32.8083706 76.5188237,33.7322974 M74.4716919,29.1126635 C73.457184,29.0764311 73.0586274,29.2032446 71.5187494,29.927893 L71.5187494,29.2032446 L70.3230795,29.2032446 L70.3230795,41.9751735 L71.6093305,41.9751735 L71.6093305,37.6272828 C72.5513735,38.2251177 73.4744307,38.3519312 74.2542973,38.3519312 C76.4644751,38.3519312 77.9202938,36.1594349 77.8594234,33.5511353 C77.7688423,29.6742661 75.4861997,29.1488959 74.4716919,29.1126635" id="Fill-21" fill="#333333"></path>
        <polygon id="Fill-23" fill="#333333" points="80.1964146 38.2251177 81.4826656 38.2251177 81.4826656 29.1851284 80.1964146 29.1851284"></polygon>
        <path d="M88.9103122,29.1071417 C87.7871071,29.0291695 87.2255045,29.1307652 85.377651,30.1090406 L85.377651,29.1851139 L84.1819811,29.1851139 L84.1819811,38.2251032 L85.5044645,38.2251032 C85.5044645,38.2251032 85.4863483,32.7902399 85.5044645,30.9605026 C86.6276696,30.4532487 87.1349235,30.1815055 88.4574069,30.1815055 C89.7798903,30.1815055 90.0448218,31.1413748 90.0335173,32.6453102 C90.0222128,34.1489557 90.0516335,38.2251032 90.0516335,38.2251032 L91.3378845,38.2251032 C91.3378845,38.2251032 91.3197683,33.4424235 91.3378845,31.7394996 C91.3560007,30.0365758 90.0335173,29.1851139 88.9103122,29.1071417" id="Fill-25" fill="#333333"></path>
        <path d="M97.3071761,34.4388296 C96.2716534,34.4388296 95.3052623,33.3921474 95.3052623,32.2014051 C95.3052623,31.0108077 95.9574459,29.9641254 97.4339895,29.9641254 C98.4695122,29.9641254 99.3057565,30.6500777 99.3090899,32.2830005 C99.3119885,33.8228784 98.3426987,34.4388296 97.3071761,34.4388296 M95.4261336,37.8385903 C96.5493387,37.9232292 97.9502291,38.0681589 98.7957489,38.333815 C99.6411238,38.5994711 100.353743,39.0946959 100.305337,39.6986179 C100.257075,40.302395 99.3030028,41.2324088 97.0686218,41.1599439 C94.8343857,41.0874791 94.689456,39.9561579 94.6772819,39.5012237 C94.6652527,39.0464343 95.0154029,38.2371469 95.4261336,37.8385903 M101.935796,30.3083335 C101.935796,30.3083335 102.008405,29.7286147 102.062754,29.2757094 C101.337961,29.2213608 100.468382,29.4387553 99.6712692,29.7104985 C98.6750225,29.0678802 97.7900818,29.0393291 96.9719537,29.0862863 C95.2509136,29.1851284 93.9829238,30.7068901 93.9466913,31.9387925 C93.9104589,33.1706948 94.1459697,33.8772271 95.3958433,34.7830376 C94.0735048,35.1272456 93.6930644,35.9424751 93.6749482,36.2685669 C93.656832,36.5946587 93.656832,36.956983 94.943083,37.645399 C94.1822021,38.0620718 93.3653784,38.9699114 93.4756699,39.9280416 C93.7111806,41.9751735 95.9145467,42.0657545 97.0989121,42.0657545 C100.57708,42.0657545 101.519123,40.7070387 101.645936,39.5657174 C101.77275,38.4243961 100.776358,37.73598 99.6531529,37.3555396 C98.5300928,36.9750992 96.8994888,36.8120533 96.0117945,36.6671236 C95.1241001,36.5221939 94.8887343,36.3410318 94.8887343,36.0330562 C94.8887343,35.7250806 95.2690298,35.3808726 96.0299107,35.1272456 C96.2836826,35.1634781 97.2106529,35.3250747 97.8416768,35.2359429 C99.3815547,35.0185484 100.220408,34.0243307 100.450266,33.4243218 C100.866939,32.3373491 100.685777,31.1779116 100.142291,30.4894956 C100.667661,30.2902172 101.174915,30.2539848 101.935796,30.3083335" id="Fill-26" fill="#333333"></path>
    </g>
</svg>