<?xml version="1.0" encoding="UTF-8"?>
<svg width="134px" height="50px" viewBox="0 0 134 50" version="1.1" xmlns="http://www.w3.org/2000/svg" xmlns:xlink="http://www.w3.org/1999/xlink">
    <!-- Generator: Sketch 53.2 (72643) - https://sketchapp.com -->
    <title>Logo / Coop Tagline / Coop Tagline dark</title>
    <desc>Created with Sketch.</desc>
    <g id="Logo-/-Coop-Tagline-/-Coop-Tagline-dark" stroke="none" stroke-width="1" fill="none" fill-rule="evenodd">
        <g id="Group" transform="translate(11.500000, 3.500000)" fill="#333333">
            <path d="M86.0328066,15.4459975 C82.6678783,15.4459975 81.2879535,12.9020413 81.2879535,10.063714 C81.2879535,7.18790952 82.6678783,4.64395331 86.0328066,4.64395331 C89.3990161,4.64395331 90.7766987,7.18790952 90.7766987,10.063714 C90.7766987,12.9020413 89.3990161,15.4459975 86.0328066,15.4459975 M62.7883756,15.4459975 C59.4234474,15.4459975 58.0438428,12.9020413 58.0438428,10.063714 C58.0438428,7.18790952 59.4234474,4.64395331 62.7883756,4.64395331 C66.1542648,4.64395331 67.5322678,7.18790952 67.5322678,10.063714 C67.5322678,12.9020413 66.1542648,15.4459975 62.7883756,15.4459975 M40.8447513,15.4459975 C37.4791824,15.4459975 36.1014998,12.9020413 36.1014998,10.063714 C36.1014998,7.18790952 37.4791824,4.64395331 40.8447513,4.64395331 C44.2112811,4.64395331 45.5892841,7.18790952 45.5892841,10.063714 C45.5892841,12.9020413 44.2112811,15.4459975 40.8447513,15.4459975 M86.0328066,-1.77635684e-15 C80.5147086,-1.77635684e-15 76.0408436,2.30788271 74.4107513,6.42843833 C72.7806589,2.30788271 68.3055126,-1.77635684e-15 62.7883756,-1.77635684e-15 C57.8865673,-1.77635684e-15 53.8095747,1.82164178 51.8162432,5.11738157 C49.8232319,1.82164178 45.745919,-1.77635684e-15 40.8447513,-1.77635684e-15 C33.8701728,-1.77635684e-15 28.5583589,3.68556537 28.5583589,10.063714 C28.5583589,11.6697825 28.9010979,13.1051222 29.5234735,14.3537172 C29.443074,14.389913 29.3633151,14.4257885 29.2806733,14.4603827 C28.9635597,14.5853062 28.6166566,14.7041438 28.2364405,14.815614 C27.2735681,15.0792348 26.1876941,15.2243383 25.0986169,15.2243383 C21.9361289,15.2243383 19.0974812,13.2342099 19.0974812,10.172942 C19.0974812,6.85542066 21.5302875,4.86593287 24.6930958,4.86593287 C25.898448,4.86593287 26.8267262,4.93544162 27.7777468,5.27753999 C27.7777468,5.27753999 28.867785,2.89950789 30.6971143,1.52951283 C30.3470081,1.36486999 29.9780031,1.20343031 29.5833727,1.04167031 L29.5827321,1.04583443 C27.9324598,0.325441893 26.0057541,-1.77635684e-15 23.8416937,-1.77635684e-15 C16.8667949,-1.77635684e-15 11.5553013,3.68556537 11.5553013,10.063714 C11.5553013,16.4040652 16.8667949,20.0889899 23.8416937,20.0889899 C25.6828748,20.0889899 27.7367463,19.8234473 29.4981685,19.3269562 C30.1580211,19.16904 31.705792,18.6363531 32.8374714,17.9841881 C34.9621328,19.356105 37.7373578,20.0889899 40.8447513,20.0889899 C45.745919,20.0889899 49.8232319,18.2673481 51.8162432,14.985382 C53.8095747,18.2673481 57.8865673,20.0889899 62.7883756,20.0889899 C67.6812151,20.0889899 71.7530826,18.2737545 73.7496173,15.0023587 L73.7496173,25.2121372 L81.2549608,25.2121372 L81.2549608,19.4384264 C82.7120821,19.8660494 84.3213538,20.0889899 86.0328066,20.0889899 C93.0073851,20.0889899 98.3201599,16.4040652 98.3201599,10.063714 C98.3201599,3.68556537 93.0073851,-1.77635684e-15 86.0328066,-1.77635684e-15" id="Fill-1"></path>
            <path d="M1.42476923,38.6946246 C1.7383594,38.7327423 2.10864565,38.7660553 2.53626861,38.7945635 C2.96389157,38.8227514 3.38158471,38.8371656 3.79030897,38.8371656 C4.45496638,38.8371656 5.05139631,38.7401096 5.5786378,38.5450367 C6.10587929,38.3506044 6.54983841,38.0796163 6.91083547,37.7327132 C7.27183253,37.3861304 7.54954721,36.968117 7.74429984,36.4789932 C7.93905247,35.9898694 8.03642879,35.4507762 8.03642879,34.8613932 C8.03642879,34.2726509 7.94161501,33.733878 7.75134681,33.2441136 C7.56139894,32.7549898 7.28592647,32.3369763 6.92492941,31.9900732 C6.56393235,31.6434904 6.11997323,31.373143 5.59273174,31.1780701 C5.06549025,30.9836377 4.46457589,30.8859411 3.79030897,30.8859411 C3.38158471,30.8859411 2.96613379,30.8981131 2.54331558,30.9214963 C2.12049737,30.94552 1.74764859,30.9810752 1.42476923,31.0284821 L1.42476923,38.6946246 Z M3.81881717,29.7600275 C4.70225097,29.7600275 5.49535543,29.8814276 6.19845085,30.1235871 C6.90122596,30.3657466 7.49957779,30.707845 7.99382665,31.1495619 C8.48775519,31.5912788 8.86765094,32.1255672 9.13383422,32.7527476 C9.39937687,33.3796076 9.53262867,34.0830233 9.53262867,34.8613932 C9.53262867,35.6122158 9.39745497,36.2986548 9.12646694,36.9207101 C8.85579922,37.5427653 8.47109872,38.0796163 7.97236542,38.5306224 C7.47363213,38.9819488 6.8752803,39.3336567 6.17698963,39.5851054 C5.47869895,39.8368744 4.70225097,39.9627589 3.84700505,39.9627589 C3.17273814,39.9627589 2.51961213,39.9435399 1.88794736,39.9057425 C1.25596227,39.8679452 0.688681171,39.8109288 0.185143124,39.7350137 C0.0615008301,39.7157947 9.7255537e-13,39.6446843 9.7255537e-13,39.521042 L9.7255537e-13,30.2020647 C9.7255537e-13,30.0787427 0.0615008301,30.0076324 0.185143124,29.9880931 C0.688681171,29.9124983 1.25115751,29.8551616 1.8735331,29.8173642 C2.49558837,29.7795668 3.14422994,29.7600275 3.81881717,29.7600275 L3.81881717,29.7600275 Z" id="Fill-3"></path>
            <path d="M14.6339303,33.2514168 C14.3014415,33.2514168 13.9904138,33.3084332 13.7005271,33.422466 C13.4109607,33.5364988 13.1521447,33.6982588 12.9240791,33.906785 C12.6960136,34.1159519 12.5083079,34.3677209 12.3612825,34.6620921 C12.2139367,34.9564632 12.1210449,35.2796629 12.0832475,35.6310505 L16.8995312,35.6310505 C16.8803122,35.2988819 16.8162489,34.987534 16.7076615,34.6979676 C16.5981131,34.4080808 16.4434001,34.1563118 16.2438427,33.9423402 C16.0442853,33.7286889 15.8098134,33.5602022 15.5388254,33.4365599 C15.2681576,33.3132379 14.9664192,33.2514168 14.6339303,33.2514168 M14.6483446,40.0200316 C14.0781806,40.0200316 13.5531814,39.9297022 13.0736671,39.7490436 C12.5938325,39.5690255 12.1806238,39.3124517 11.834041,38.9796425 C11.4871379,38.647474 11.2164701,38.2457967 11.0217175,37.7755716 C10.8269649,37.3053465 10.7295886,36.785152 10.7295886,36.2153084 C10.7295886,35.6262457 10.8295274,35.0893947 11.0290848,34.6050757 C11.2283219,34.1207566 11.5037943,33.7053057 11.8555022,33.3584026 C12.2065694,33.0114995 12.6152937,32.7433943 13.0807141,32.5531261 C13.5461344,32.3634986 14.0496725,32.2683645 14.5913282,32.2683645 C15.1137649,32.2683645 15.5932792,32.3561313 16.0305117,32.5319852 C16.4674238,32.7078391 16.8428352,32.9592878 17.156105,33.286972 C17.4696952,33.6149764 17.7115344,34.0089661 17.8832242,34.469902 C18.0539531,34.9305176 18.1394777,35.4411026 18.1394777,36.001657 L18.1394777,36.3008329 C18.1394777,36.4241549 18.0776565,36.4859761 17.9543345,36.4859761 L12.0691535,36.4859761 C12.0976617,36.8472935 12.1876708,37.1772198 12.3398212,37.4760754 C12.4916514,37.7755716 12.6889666,38.0321454 12.9311261,38.2457967 C13.1732856,38.4597683 13.4583676,38.6256925 13.786372,38.74453 C14.1137358,38.8636879 14.4724907,38.9226262 14.8619959,38.9226262 C15.42223,38.9226262 15.9091116,38.8444688 16.3226406,38.6875136 C16.7358493,38.5305584 17.0564865,38.3909002 17.2842317,38.2672579 C17.3412481,38.2483592 17.3838503,38.2387497 17.4126788,38.2387497 C17.4789844,38.2387497 17.5263913,38.2720627 17.5552198,38.3383683 L17.7685508,38.8230076 C17.7973793,38.8797037 17.8117935,38.9277512 17.8117935,38.9655486 C17.8117935,39.0129555 17.7736758,39.0651671 17.6977608,39.1221835 C17.3745611,39.3409599 16.9639149,39.5446814 16.4648613,39.7349496 C15.966128,39.9248975 15.3607292,40.0200316 14.6483446,40.0200316" id="Fill-5"></path>
            <path d="M36.1874088,36.1014357 C36.1874088,35.702321 36.1182203,35.3365192 35.9808044,35.0040303 C35.8430682,34.6715414 35.6579251,34.3842172 35.4250547,34.1420577 C35.1921844,33.8998982 34.9141494,33.70963 34.5915903,33.5722141 C34.2683907,33.4344779 33.9218079,33.3652894 33.5515216,33.3652894 C33.1805947,33.3652894 32.8362542,33.4319153 32.5181795,33.5648468 C32.1997846,33.6980986 31.9243122,33.8854839 31.6917621,34.1276435 C31.4588918,34.3701233 31.2734284,34.6574475 31.1356921,34.989616 C30.9982762,35.3224252 30.9294081,35.688227 30.9294081,36.0870215 C30.9294081,36.4858159 30.9982762,36.8545006 31.1356921,37.1911536 C31.2734284,37.5287675 31.4588918,37.8183339 31.6917621,38.0604934 C31.9243122,38.3026529 32.1997846,38.4906789 32.5181795,38.6232901 C32.8362542,38.7565419 33.1805947,38.8228475 33.5515216,38.8228475 C33.9218079,38.8228475 34.2683907,38.7565419 34.5915903,38.6232901 C34.9141494,38.4906789 35.1921844,38.3026529 35.4250547,38.0604934 C35.6579251,37.8183339 35.8430682,37.53133 35.9808044,37.1985208 C36.1182203,36.866032 36.1874088,36.5002302 36.1874088,36.1014357 M33.3660582,42.8697302 C33.0713667,42.8697302 32.7792378,42.8505112 32.4896714,42.8127138 C32.1997846,42.7745961 31.9220699,42.7223845 31.656207,42.6560789 C31.3900237,42.589453 31.1453016,42.5157801 30.9223611,42.4350603 C30.69878,42.3543404 30.5065899,42.2713784 30.3451502,42.1858538 C30.2689148,42.1381266 30.2311174,42.0862353 30.2311174,42.0292189 C30.2311174,42.0096795 30.2407269,41.962593 30.2596256,41.8866779 L30.459183,41.3450221 C30.4876912,41.249888 30.5395825,41.2028015 30.6158179,41.2028015 C30.6443261,41.2028015 30.6872486,41.2117703 30.744265,41.2313097 C30.8864856,41.2976152 31.0504879,41.3642411 31.235631,41.4305467 C31.4210944,41.4968523 31.6203315,41.5564312 31.8343031,41.6086429 C32.0479545,41.6605342 32.270895,41.7034567 32.5040856,41.7370899 C32.7366356,41.7700826 32.9621387,41.786739 33.1805947,41.786739 C34.1117557,41.786739 34.8359921,41.5705252 35.3536241,41.1387381 C35.8715764,40.7059901 36.1303924,40.0294809 36.1303924,39.1079294 L36.1303924,38.0963689 C35.8549199,38.6569233 35.4654146,39.096398 34.9618766,39.4144726 C34.4583385,39.7325472 33.8647915,39.8917447 33.1805947,39.8917447 C32.6485485,39.8917447 32.1594247,39.7966106 31.7129031,39.6066627 C31.2667017,39.4167149 30.8820012,39.1508519 30.5591219,38.8087535 C30.2359222,38.4666552 29.9819109,38.063056 29.7964475,37.5976356 C29.6113044,37.1322153 29.5187328,36.6286772 29.5187328,36.0870215 C29.5187328,35.545686 29.6113044,35.042148 29.7964475,34.5764073 C29.9819109,34.1113073 30.2359222,33.70963 30.5591219,33.3723364 C30.8820012,33.0356834 31.2667017,32.7717423 31.7129031,32.5817945 C32.1594247,32.3918466 32.6485485,32.2967125 33.1805947,32.2967125 C33.8647915,32.2967125 34.4583385,32.45591 34.9618766,32.7739846 C35.4654146,33.0923795 35.8549199,33.5318542 36.1303924,34.0924086 L36.1303924,32.6247169 C36.1303924,32.5010746 36.1874088,32.4389332 36.3011212,32.4389332 L37.3274163,32.4389332 C37.4507383,32.4389332 37.5125595,32.5010746 37.5125595,32.6247169 L37.5125595,39.2930726 C37.5125595,39.8722054 37.4151831,40.3831107 37.2207508,40.8248276 C37.0256779,41.2668648 36.7454007,41.6393933 36.3799192,41.943374 C36.0141174,42.2473546 35.5768849,42.4779827 35.0688624,42.6346177 C34.5605196,42.7915729 33.9929182,42.8697302 33.3660582,42.8697302" id="Fill-9"></path>
            <path d="M23.0782185,39.9915234 C22.3559041,39.9915234 21.7786932,39.8204742 21.3469061,39.4783758 C20.9144784,39.1362775 20.6982645,38.5568243 20.6982645,37.7400164 L20.6982645,33.5791009 L19.0169215,33.5791009 C18.8935996,33.5791009 18.8317784,33.5127953 18.8317784,33.3795435 L18.8317784,32.6245568 C18.8317784,32.5009145 18.8935996,32.4390933 19.0169215,32.4390933 L20.6982645,32.4390933 L20.6982645,30.9287995 C20.6982645,30.8051572 20.7600857,30.7436564 20.8834077,30.7436564 L21.8956088,30.7436564 C22.0186105,30.7436564 22.0807519,30.8051572 22.0807519,30.9287995 L22.0807519,32.4390933 L24.4177835,32.4390933 C24.531496,32.4390933 24.5885124,32.5009145 24.5885124,32.6245568 L24.5885124,33.3795435 C24.5885124,33.5127953 24.531496,33.5791009 24.4177835,33.5791009 L22.0807519,33.5791009 L22.0807519,37.6259836 C22.0807519,38.0532863 22.1967066,38.362392 22.4298973,38.5523399 C22.6624473,38.7426081 22.9641857,38.8371016 23.3347923,38.8371016 C23.5247402,38.8371016 23.702516,38.8252498 23.8690808,38.8015464 C24.0350049,38.7778429 24.1704989,38.7467722 24.2749222,38.7089748 C24.3034304,38.6996856 24.3367433,38.6945606 24.374861,38.6945606 C24.4696748,38.6945606 24.5218865,38.7426081 24.531496,38.8371016 L24.674037,39.4357737 C24.674037,39.4546724 24.6762792,39.4690867 24.6810839,39.4783758 C24.6858887,39.4879853 24.6881309,39.5023996 24.6881309,39.520978 C24.6881309,39.6068229 24.6455288,39.6683237 24.5600042,39.7061211 C24.3982442,39.7826768 24.1897179,39.8489824 23.9331441,39.9056785 C23.6765704,39.9626949 23.3918087,39.9915234 23.0782185,39.9915234" id="Fill-7"></path>
            <path d="M39.9846045,39.8488863 C39.8708921,39.8488863 39.8138757,39.7873855 39.8138757,39.6637432 L39.8138757,32.6244607 C39.8138757,32.5011387 39.8708921,32.4389972 39.9846045,32.4389972 L41.0105793,32.4389972 C41.1342216,32.4389972 41.1957225,32.5011387 41.1957225,32.6244607 L41.1957225,39.6637432 C41.1957225,39.7873855 41.1342216,39.8488863 41.0105793,39.8488863 L39.9846045,39.8488863 Z M40.4977521,31.1993711 C40.2411783,31.1993711 40.0249645,31.1212138 39.8494308,30.9645789 C39.6732566,30.8076236 39.5858101,30.6106288 39.5858101,30.3729537 C39.5858101,30.1448881 39.6732566,29.9523777 39.8494308,29.7957428 C40.0249645,29.6391079 40.2411783,29.5609506 40.4977521,29.5609506 C40.7540056,29.5609506 40.9727819,29.6391079 41.1531203,29.7957428 C41.3334587,29.9523777 41.423788,30.1448881 41.423788,30.3729537 C41.423788,30.6106288 41.3334587,30.8076236 41.1531203,30.9645789 C40.9727819,31.1212138 40.7540056,31.1993711 40.4977521,31.1993711 L40.4977521,31.1993711 Z" id="Fill-12"></path>
            <path d="M44.0858451,31.0711483 C43.8292713,31.0711483 43.6319561,30.9881862 43.4942199,30.8219418 C43.356804,30.6556974 43.2879359,30.4538978 43.2879359,30.2162227 C43.2879359,29.9596489 43.3731401,29.7437554 43.5445096,29.5679014 C43.7152385,29.3923678 43.938179,29.3042807 44.2139718,29.3042807 C44.5461403,29.3042807 44.8126439,29.4109462 45.0122013,29.6249178 C45.2114384,29.8385692 45.3110569,30.1592063 45.3110569,30.5868293 C45.3110569,30.9193181 45.2588453,31.2092048 45.154422,31.4558488 C45.0499987,31.7031334 44.9145047,31.9190269 44.7482603,32.1044904 C44.5820158,32.2896335 44.3920679,32.4440262 44.1784166,32.5673482 C43.964445,32.6909905 43.7482311,32.7861246 43.5300954,32.8524302 C43.5108764,32.8524302 43.4964621,32.8546724 43.4871729,32.8594771 C43.4778837,32.8646022 43.4679539,32.8665241 43.4586647,32.8665241 C43.3920388,32.8665241 43.3449522,32.8191172 43.3164441,32.7239831 L43.2165052,32.4677296 C43.2068957,32.4392215 43.2020909,32.4059085 43.2020909,32.3681111 C43.2020909,32.3018055 43.2398883,32.253758 43.3164441,32.2255701 C43.6201044,32.1022482 43.8955769,31.9356834 44.1428615,31.7268368 C44.3895054,31.5179903 44.5224369,31.2473226 44.5416559,30.9145134 C44.5038585,30.9430216 44.4657408,30.9712094 44.4276231,31.000038 C44.3513877,31.0477652 44.2376752,31.0711483 44.0858451,31.0711483" id="Fill-14"></path>
            <path d="M50.2541541,33.4510062 C49.9690721,33.4510062 49.6884746,33.5057804 49.4133224,33.6150084 C49.13785,33.7242365 48.8908857,33.8853558 48.6724296,34.0990071 C48.4536532,34.3129788 48.2733149,34.5717948 48.1307739,34.8757754 C47.9885532,35.1797561 47.9119975,35.5311437 47.9027083,35.9302584 L47.9027083,39.6638713 C47.9027083,39.7871933 47.8412075,39.8490144 47.7175652,39.8490144 L46.6915904,39.8490144 C46.5775576,39.8490144 46.5208615,39.7871933 46.5208615,39.6638713 L46.5208615,32.6245888 C46.5208615,32.5009465 46.5775576,32.4391254 46.6915904,32.4391254 L47.7175652,32.4391254 C47.8412075,32.4391254 47.9027083,32.5009465 47.9027083,32.6245888 L47.9027083,34.3773625 C47.9315368,34.1585861 48.0071316,33.9282783 48.1307739,33.6857984 C48.2544162,33.4439592 48.4203403,33.2181359 48.6298275,33.0092893 C48.8383537,32.8004427 49.0926853,32.6293935 49.3921815,32.4964621 C49.6910371,32.3632103 50.0353777,32.2965844 50.424883,32.2965844 C50.6721676,32.2965844 50.9002331,32.3206081 51.1090797,32.368015 C51.317606,32.4157422 51.4886551,32.4631491 51.6222273,32.5102357 C51.7074315,32.5582832 51.750354,32.6152996 51.750354,32.6816052 C51.750354,32.7290121 51.7452289,32.7668095 51.7359397,32.7953177 L51.5652109,33.4936083 C51.5456715,33.5791329 51.498585,33.6217351 51.4223496,33.6217351 C51.3842319,33.6217351 51.3512392,33.6172506 51.322731,33.6076411 C51.1897995,33.5698437 51.0306021,33.5342886 50.845459,33.5006553 C50.6603158,33.4676627 50.4626804,33.4510062 50.2541541,33.4510062" id="Fill-16"></path>
            <path d="M69.4761425,39.6637112 C69.4761425,39.7873534 69.4146416,39.8488543 69.2909993,39.8488543 L68.2794388,39.8488543 C68.1557965,39.8488543 68.0942957,39.7873534 68.0942957,39.6637112 L68.0942957,35.8019715 C68.0942957,35.4127866 68.0417637,35.0706882 67.9373404,34.7759967 C67.8325968,34.4816256 67.6926184,34.2372238 67.5170848,34.0421509 C67.3412308,33.8477186 67.1323843,33.7029354 66.8902247,33.6078013 C66.6477449,33.5129875 66.3841242,33.46494 66.0990422,33.46494 C65.804671,33.46494 65.5218313,33.5197142 65.2514839,33.6289422 C64.9804958,33.7384906 64.7431411,33.8951255 64.5387789,34.0991673 C64.3344168,34.3038497 64.1684927,34.557861 64.0400456,34.8615213 C63.9119189,35.1658223 63.8427305,35.5172099 63.8334413,35.9160043 L63.8334413,39.6637112 C63.8334413,39.7873534 63.7716202,39.8488543 63.6482982,39.8488543 L62.6364173,39.8488543 C62.5130954,39.8488543 62.4512742,39.7873534 62.4512742,39.6637112 L62.4512742,35.8019715 C62.4512742,35.0136718 62.2661311,34.4268514 61.8955245,34.0421509 C61.5252383,33.6574504 61.0454037,33.46494 60.456341,33.46494 C60.1712591,33.46494 59.8935444,33.5219564 59.6225563,33.6363095 C59.3522089,33.750022 59.1100494,33.9140242 58.8960778,34.1276755 C58.6824265,34.3416471 58.5113773,34.6100726 58.3829302,34.9326317 C58.2548035,35.2558313 58.1907401,35.6216332 58.1907401,36.0300371 L58.1907401,39.6637112 C58.1907401,39.7873534 58.128919,39.8488543 58.0052767,39.8488543 L56.9793019,39.8488543 C56.8655894,39.8488543 56.808573,39.7873534 56.808573,39.6637112 L56.808573,32.6244286 C56.808573,32.5011067 56.8655894,32.4389652 56.9793019,32.4389652 L58.0052767,32.4389652 C58.128919,32.4389652 58.1907401,32.5011067 58.1907401,32.6244286 L58.1907401,34.3912962 C58.2192483,34.18277 58.3070151,33.9547044 58.4543609,33.7074198 C58.6017066,33.4604555 58.7938967,33.23239 59.0315718,33.0235434 C59.2689266,32.8143765 59.5492038,32.6410851 59.8724035,32.5033489 C60.1949625,32.365933 60.5514751,32.2967445 60.9409804,32.2967445 C61.6248568,32.2967445 62.2110366,32.4914972 62.700801,32.8810024 C63.1899248,33.2705077 63.5246559,33.8073587 63.7049943,34.4912351 C63.743112,34.2631695 63.8379257,34.02101 63.9903965,33.7644362 C64.1422267,33.5078624 64.3417841,33.2705077 64.5887484,33.0517313 C64.8357126,32.8335955 65.1278416,32.6529368 65.4651352,32.5103958 C65.8021085,32.3681752 66.179762,32.2967445 66.5980958,32.2967445 C67.0442971,32.2967445 67.4456541,32.3749018 67.8018464,32.5318571 C68.158359,32.6888123 68.4594569,32.9095106 68.7070618,33.1945926 C68.9537057,33.4793542 69.1436536,33.8240151 69.2769054,34.227294 C69.4098369,34.6312135 69.4761425,35.0799774 69.4761425,35.573906 L69.4761425,39.6637112 Z" id="Fill-18"></path>
            <path d="M75.0675929,33.2514168 C74.7347838,33.2514168 74.4237561,33.3084332 74.1341897,33.422466 C73.844303,33.5364988 73.585487,33.6982588 73.3574214,33.906785 C73.1296762,34.1159519 72.9419705,34.3677209 72.7946248,34.6620921 C72.647279,34.9564632 72.5547075,35.2796629 72.5169101,35.6310505 L77.3331938,35.6310505 C77.3139748,35.2988819 77.2495911,34.987534 77.1410037,34.6979676 C77.0314554,34.4080808 76.8770627,34.1563118 76.6775053,33.9423402 C76.4779479,33.7286889 76.2431557,33.5602022 75.9721676,33.4365599 C75.7014999,33.3132379 75.3997615,33.2514168 75.0675929,33.2514168 M75.0816869,40.0200316 C74.5118432,40.0200316 73.986844,39.9297022 73.5073297,39.7490436 C73.0274951,39.5690255 72.6142864,39.3124517 72.2677036,38.9796425 C71.9208005,38.647474 71.6498124,38.2457967 71.4553801,37.7755716 C71.2603072,37.3053465 71.1632512,36.785152 71.1632512,36.2153084 C71.1632512,35.6262457 71.2628697,35.0893947 71.4624271,34.6050757 C71.6619845,34.1207566 71.9374569,33.7053057 72.2888445,33.3584026 C72.640232,33.0114995 73.048636,32.7433943 73.5140563,32.5531261 C73.979797,32.3634986 74.483335,32.2683645 75.0246705,32.2683645 C75.5471072,32.2683645 76.0269418,32.3561313 76.463854,32.5319852 C76.9007661,32.7078391 77.2761774,32.9592878 77.5897676,33.286972 C77.9033578,33.6149764 78.145197,34.0089661 78.3165665,34.469902 C78.4872953,34.9305176 78.5728199,35.4411026 78.5728199,36.001657 L78.5728199,36.3008329 C78.5728199,36.4241549 78.5109988,36.4859761 78.3876768,36.4859761 L72.5024958,36.4859761 C72.531004,36.8472935 72.6213334,37.1772198 72.7734838,37.4760754 C72.925314,37.7755716 73.1226292,38.0321454 73.3647887,38.2457967 C73.6069482,38.4597683 73.8920302,38.6256925 74.2197143,38.74453 C74.5473984,38.8636879 74.9058329,38.9226262 75.2956585,38.9226262 C75.8558926,38.9226262 76.3427742,38.8444688 76.7559829,38.6875136 C77.1695119,38.5305584 77.4898288,38.3909002 77.7178943,38.2672579 C77.7749107,38.2483592 77.8175129,38.2387497 77.8463414,38.2387497 C77.912647,38.2387497 77.9600539,38.2720627 77.988562,38.3383683 L78.2022134,38.8230076 C78.2310419,38.8797037 78.2451358,38.9277512 78.2451358,38.9655486 C78.2451358,39.0129555 78.2070181,39.0651671 78.131103,39.1221835 C77.8082237,39.3409599 77.3972572,39.5446814 76.8985239,39.7349496 C76.3997906,39.9248975 75.7943918,40.0200316 75.0816869,40.0200316" id="Fill-20"></path>
            <path d="M87.5070968,39.6637112 C87.5070968,39.7873534 87.4455959,39.8488543 87.3219537,39.8488543 L86.3103931,39.8488543 C86.1867508,39.8488543 86.12525,39.7873534 86.12525,39.6637112 L86.12525,35.8304797 C86.12525,35.0325705 85.9375443,34.4390234 85.562133,34.0495182 C85.1867217,33.6600129 84.6857462,33.46494 84.0588862,33.46494 C83.7830934,33.46494 83.5053787,33.5219564 83.2254218,33.6363095 C82.9451446,33.750022 82.6956178,33.9165867 82.4771617,34.1347225 C82.2583853,34.3534989 82.0806095,34.6244869 81.9428732,34.9470459 C81.8048167,35.2702456 81.7359486,35.6360474 81.7359486,36.044131 L81.7359486,39.6637112 C81.7359486,39.7873534 81.6744477,39.8488543 81.5508054,39.8488543 L80.5248307,39.8488543 C80.4111182,39.8488543 80.3541018,39.7873534 80.3541018,39.6637112 L80.3541018,32.6244286 C80.3541018,32.5011067 80.4111182,32.4389652 80.5248307,32.4389652 L81.5508054,32.4389652 C81.6744477,32.4389652 81.7359486,32.5011067 81.7359486,32.6244286 L81.7359486,34.4057105 C81.7647771,34.1869341 81.8525439,33.9547044 81.9998896,33.7074198 C82.1472354,33.4604555 82.3416677,33.23239 82.5841475,33.0235434 C82.826307,32.8143765 83.1133109,32.6410851 83.4461201,32.5033489 C83.7782886,32.365933 84.1492155,32.2967445 84.5576195,32.2967445 C85.0230398,32.2967445 85.4410533,32.3749018 85.8116598,32.5318571 C86.1819461,32.6888123 86.4904112,32.9120731 86.7380161,33.2016396 C86.98466,33.491206 87.1746079,33.8381091 87.3078597,34.2417083 C87.4407912,34.6456278 87.5070968,35.0943917 87.5070968,35.5883202 L87.5070968,39.6637112 Z" id="Fill-22"></path>
            <path d="M89.8425267,39.8488863 C89.7288143,39.8488863 89.6717979,39.7873855 89.6717979,39.6637432 L89.6717979,32.6244607 C89.6717979,32.5011387 89.7288143,32.4389972 89.8425267,32.4389972 L90.8685015,32.4389972 C90.9921438,32.4389972 91.0536446,32.5011387 91.0536446,32.6244607 L91.0536446,39.6637432 C91.0536446,39.7873855 90.9921438,39.8488863 90.8685015,39.8488863 L89.8425267,39.8488863 Z M90.3556743,31.1993711 C90.0991005,31.1993711 89.8828867,31.1212138 89.707353,30.9645789 C89.5311788,30.8076236 89.4437323,30.6106288 89.4437323,30.3729537 C89.4437323,30.1448881 89.5311788,29.9523777 89.707353,29.7957428 C89.8828867,29.6391079 90.0991005,29.5609506 90.3556743,29.5609506 C90.6119277,29.5609506 90.8307041,29.6391079 91.0110425,29.7957428 C91.1913809,29.9523777 91.2817102,30.1448881 91.2817102,30.3729537 C91.2817102,30.6106288 91.1913809,30.8076236 91.0110425,30.9645789 C90.8307041,31.1212138 90.6119277,31.1993711 90.3556743,31.1993711 L90.3556743,31.1993711 Z" id="Fill-24"></path>
            <path d="M108.83536,36.1014357 C108.83536,35.702321 108.766172,35.3365192 108.628756,35.0040303 C108.49102,34.6715414 108.305877,34.3842172 108.073006,34.1420577 C107.840136,33.8998982 107.562101,33.70963 107.239542,33.5722141 C106.916342,33.4344779 106.56976,33.3652894 106.199473,33.3652894 C105.828546,33.3652894 105.484206,33.4319153 105.166131,33.5648468 C104.847736,33.6980986 104.572264,33.8854839 104.339714,34.1276435 C104.106843,34.3701233 103.92138,34.6574475 103.783644,34.989616 C103.646228,35.3224252 103.57736,35.688227 103.57736,36.0870215 C103.57736,36.4858159 103.646228,36.8545006 103.783644,37.1911536 C103.92138,37.5287675 104.106843,37.8183339 104.339714,38.0604934 C104.572264,38.3026529 104.847736,38.4906789 105.166131,38.6232901 C105.484206,38.7565419 105.828546,38.8228475 106.199473,38.8228475 C106.56976,38.8228475 106.916342,38.7565419 107.239542,38.6232901 C107.562101,38.4906789 107.840136,38.3026529 108.073006,38.0604934 C108.305877,37.8183339 108.49102,37.53133 108.628756,37.1985208 C108.766172,36.866032 108.83536,36.5002302 108.83536,36.1014357 M106.01401,42.8697302 C105.719318,42.8697302 105.427189,42.8505112 105.137623,42.8127138 C104.847736,42.7745961 104.570022,42.7223845 104.304159,42.6560789 C104.037975,42.589453 103.793253,42.5157801 103.570313,42.4350603 C103.346732,42.3543404 103.154542,42.2713784 102.993102,42.1858538 C102.916866,42.1381266 102.879069,42.0862353 102.879069,42.0292189 C102.879069,42.0096795 102.888679,41.962593 102.907577,41.8866779 L103.107135,41.3450221 C103.135643,41.249888 103.187534,41.2028015 103.26377,41.2028015 C103.292278,41.2028015 103.3352,41.2117703 103.392217,41.2313097 C103.534437,41.2976152 103.69844,41.3642411 103.883583,41.4305467 C104.069046,41.4968523 104.268283,41.5564312 104.482255,41.6086429 C104.695906,41.6605342 104.918847,41.7034567 105.152037,41.7370899 C105.384587,41.7700826 105.61009,41.786739 105.828546,41.786739 C106.759707,41.786739 107.483944,41.5705252 108.001576,41.1387381 C108.519528,40.7059901 108.778344,40.0294809 108.778344,39.1079294 L108.778344,38.0963689 C108.502872,38.6569233 108.113366,39.096398 107.609828,39.4144726 C107.10629,39.7325472 106.512743,39.8917447 105.828546,39.8917447 C105.2965,39.8917447 104.807376,39.7966106 104.360855,39.6066627 C103.914653,39.4167149 103.529953,39.1508519 103.207074,38.8087535 C102.883874,38.4666552 102.629863,38.063056 102.444399,37.5976356 C102.259256,37.1322153 102.166684,36.6286772 102.166684,36.0870215 C102.166684,35.545686 102.259256,35.042148 102.444399,34.5764073 C102.629863,34.1113073 102.883874,33.70963 103.207074,33.3723364 C103.529953,33.0356834 103.914653,32.7717423 104.360855,32.5817945 C104.807376,32.3918466 105.2965,32.2967125 105.828546,32.2967125 C106.512743,32.2967125 107.10629,32.45591 107.609828,32.7739846 C108.113366,33.0923795 108.502872,33.5318542 108.778344,34.0924086 L108.778344,32.6247169 C108.778344,32.5010746 108.83536,32.4389332 108.949073,32.4389332 L109.975368,32.4389332 C110.09869,32.4389332 110.160511,32.5010746 110.160511,32.6247169 L110.160511,39.2930726 C110.160511,39.8722054 110.063135,40.3831107 109.868703,40.8248276 C109.67363,41.2668648 109.393352,41.6393933 109.027871,41.943374 C108.662069,42.2473546 108.224837,42.4779827 107.716814,42.6346177 C107.208471,42.7915729 106.64087,42.8697302 106.01401,42.8697302" id="Fill-28"></path>
            <path d="M100.488064,39.6637112 C100.488064,39.7873534 100.426563,39.8488543 100.302921,39.8488543 L99.2913605,39.8488543 C99.1677182,39.8488543 99.1062174,39.7873534 99.1062174,39.6637112 L99.1062174,35.8304797 C99.1062174,35.0325705 98.9185117,34.4390234 98.5431004,34.0495182 C98.1676891,33.6600129 97.6667136,33.46494 97.0398536,33.46494 C96.7640608,33.46494 96.4863461,33.5219564 96.2063892,33.6363095 C95.926112,33.750022 95.6765852,33.9165867 95.4581291,34.1347225 C95.2393527,34.3534989 95.0615769,34.6244869 94.9238406,34.9470459 C94.7857841,35.2702456 94.716916,35.6360474 94.716916,36.044131 L94.716916,39.6637112 C94.716916,39.7873534 94.6554151,39.8488543 94.5317728,39.8488543 L93.5057981,39.8488543 C93.3920856,39.8488543 93.3350692,39.7873534 93.3350692,39.6637112 L93.3350692,32.6244286 C93.3350692,32.5011067 93.3920856,32.4389652 93.5057981,32.4389652 L94.5317728,32.4389652 C94.6554151,32.4389652 94.716916,32.5011067 94.716916,32.6244286 L94.716916,34.4057105 C94.7457445,34.1869341 94.8335113,33.9547044 94.980857,33.7074198 C95.1282028,33.4604555 95.3226351,33.23239 95.5651149,33.0235434 C95.8072744,32.8143765 96.0942783,32.6410851 96.4270875,32.5033489 C96.759256,32.365933 97.1301829,32.2967445 97.5385869,32.2967445 C98.0040072,32.2967445 98.4220207,32.3749018 98.7926272,32.5318571 C99.1629135,32.6888123 99.4713786,32.9120731 99.7189835,33.2016396 C99.9656274,33.491206 100.155575,33.8381091 100.288827,34.2417083 C100.421759,34.6456278 100.488064,35.0943917 100.488064,35.5883202 L100.488064,39.6637112 Z" id="Fill-26"></path>
        </g>
    </g>
</svg>