<?xml version="1.0" encoding="UTF-8"?>
<svg width="134px" height="50px" viewBox="0 0 134 50" version="1.1" xmlns="http://www.w3.org/2000/svg" xmlns:xlink="http://www.w3.org/1999/xlink">
    <!-- Generator: Sketch 53.2 (72643) - https://sketchapp.com -->
    <title>Logo / Irma / Irma dark</title>
    <desc>Created with Sketch.</desc>
    <g id="Logo-/-Irma-/-Irma-dark" stroke="none" stroke-width="1" fill="none" fill-rule="evenodd">
        <path d="M17,12 L26.0325203,12 L26.0056977,39.1764706 L17,39.1764706 L17,12 Z M49.1509136,17.0456247 C50.2664092,17.2628219 51.3205525,18.0424961 51.8510327,19.0638361 C52.2011744,19.9924369 52.358893,20.9748082 52.2950619,21.8293988 L52.2665548,27.6154818 L43.7689572,27.6154818 L43.7574925,22.4402091 C43.5167313,21.8511488 42.9481384,21.3584527 42.387292,21.2590676 C41.4691772,21.0929224 40.8584434,21.6587224 40.5021045,22.1776997 L40.3323012,22.6755311 L40.3323012,39.1764706 L30.9593496,39.170731 L30.9593496,17.1256766 L40.3257942,17.1256766 L40.3304421,18.5548276 C43.0141386,17.2323115 46.1170754,16.6955115 49.1509136,17.0456247 Z M87.7601367,17.6719106 C89.4613622,18.5846637 90.2530003,20.3577198 90.0501886,22.7993646 L90.0563161,39.1713461 L80.6197699,39.1656188 L80.6200763,22.5769036 C80.5033522,22.0074879 79.8134263,21.4941397 79.2196977,21.3313633 C78.6906115,21.2963966 77.771527,21.3590956 77.3196438,22.130173 L77.1514514,22.5570087 L77.1459369,39.1713461 L67.8466404,39.1656188 L67.835305,22.6845168 C67.7679055,22.2760688 67.4465323,21.847726 66.9499203,21.5055943 C66.4039841,21.1945106 65.4744834,21.2731859 64.8991365,21.6939928 C64.5449827,21.9897031 64.3228706,22.3309305 64.235864,22.7249095 L64.2468929,39.1764706 L54.7723577,39.1764706 L54.7778722,17.1730313 L64.2490375,17.1618781 L64.2389276,18.5551228 C66.7461899,17.6761307 69.254065,16.9273597 72.1350884,17.0223125 C73.7287809,17.1908161 75.503533,17.3792146 76.7381697,18.7076503 C79.6672918,17.5847951 83.9833124,15.9986303 87.7393042,17.6616617 L87.7601367,17.6719106 Z M116.895305,36.6259097 C117.039936,37.4711851 117.552282,38.5170341 117.986475,39.2187376 L117.733146,39.6860319 L108.91725,39.6805451 L108.327347,38.6042136 C107.87459,38.7121211 107.41734,38.8316119 106.973267,38.9474448 C105.356275,39.3696252 103.696164,39.8030841 101.91448,39.8030841 C101.396443,39.8030841 100.867927,39.7662005 100.327433,39.6820692 C98.363387,39.3940111 96.2595017,38.8212479 95.5486244,36.7661285 C95.4315422,36.5439122 95.409084,36.2951763 95.3887219,36.0744842 C95.3749475,35.9187195 95.3614726,35.771185 95.3186523,35.6568761 L95.2991885,35.6047514 L95.2976913,30.2151688 C95.6234851,28.1932752 97.6893412,27.6500798 99.1976347,27.2535046 C99.3317851,27.2181451 99.4632405,27.1837 99.5905037,27.1489501 L105.895572,26.0177505 C106.557041,25.8595472 107.340084,25.4382812 107.52514,24.737797 C107.537118,24.5311268 107.555982,24.3162263 107.575446,24.0973631 C107.685941,22.8472823 107.800627,21.5542214 106.715746,20.942136 C106.172856,20.6595648 105.332919,20.6101834 104.79512,21.071686 L104.749005,21.1039973 C103.928233,21.5746446 103.97285,22.4988692 104.020161,23.4773523 C104.040823,23.9080678 104.062083,24.3537195 104.000398,24.7512093 L103.960572,25.0081754 L95.9477817,25.0081754 L95.9199335,24.7347488 C95.6387567,21.9535401 96.3693972,19.9484117 98.0914929,18.7748417 C101.001478,17.0105238 104.560656,17.0269843 107.997361,17.0431399 L108.095878,17.0437495 L108.474374,17.0778898 C111.586782,17.3668624 115.114518,17.6945475 116.478181,21.1152757 C116.700368,21.8386217 116.942617,22.6311625 116.889316,23.5471569 L116.895305,36.6259097 Z M107.634736,34.996019 L107.640126,28.7172665 C107.300258,28.8291367 106.940328,28.9077812 106.588483,28.9845967 C105.567083,29.2077274 104.601081,29.41897 104.207014,30.3730673 L104.196833,34.4705035 C104.227376,34.7256407 104.286666,34.966756 104.364521,35.1511741 C104.6984,35.8153844 105.376039,36.2305538 106.074938,36.1900123 C106.784618,36.1482515 107.420035,35.6599244 107.634736,34.996019 Z" id="Combined-Shape" fill="#333333" fill-rule="nonzero"></path>
    </g>
</svg>