<?xml version="1.0" encoding="UTF-8"?>
<svg width="134px" height="50px" viewBox="0 0 134 50" version="1.1" xmlns="http://www.w3.org/2000/svg" xmlns:xlink="http://www.w3.org/1999/xlink">
    <!-- Generator: Sketch 53.2 (72643) - https://sketchapp.com -->
    <title>Logo / Irma / Irma box color</title>
    <desc>Created with Sketch.</desc>
    <g id="Logo-/-Irma-/-Irma-box-color" stroke="none" stroke-width="1" fill="none" fill-rule="evenodd">
        <path d="M4,0 L130,0 C132.209139,-4.05812251e-16 134,1.790861 134,4 L134,46 C134,48.209139 132.209139,50 130,50 L4,50 C1.790861,50 2.705415e-16,48.209139 0,46 L0,4 C-2.705415e-16,1.790861 1.790861,4.05812251e-16 4,0 Z" id="Rectangle-Copy-12" fill="#002D61"></path>
        <path d="M16.5067627,12 L25.539283,12 L25.5124604,39.1764706 L16.5067627,39.1764706 L16.5067627,12 Z M48.6576763,17.0456247 C49.7731719,17.2628219 50.8273153,18.0424961 51.3577954,19.0638361 C51.7079371,19.9924369 51.8656558,20.9748082 51.8018246,21.8293988 L51.7733175,27.6154818 L43.27572,27.6154818 L43.2642552,22.4402091 C43.023494,21.8511488 42.4549011,21.3584527 41.8940547,21.2590676 C40.9759399,21.0929224 40.3652061,21.6587224 40.0088672,22.1776997 L39.839064,22.6755311 L39.839064,39.1764706 L30.4661123,39.170731 L30.4661123,17.1256766 L39.8325569,17.1256766 L39.8372048,18.5548276 C42.5209013,17.2323115 45.6238382,16.6955115 48.6576763,17.0456247 Z M87.2668994,17.6719106 C88.9681249,18.5846637 89.759763,20.3577198 89.5569513,22.7993646 L89.5630788,39.1713461 L80.1265326,39.1656188 L80.1268391,22.5769036 C80.0101149,22.0074879 79.320189,21.4941397 78.7264605,21.3313633 C78.1973742,21.2963966 77.2782897,21.3590956 76.8264065,22.130173 L76.6582141,22.5570087 L76.6526996,39.1713461 L67.3534031,39.1656188 L67.3420677,22.6845168 C67.2746682,22.2760688 66.953295,21.847726 66.456683,21.5055943 C65.9107469,21.1945106 64.9812461,21.2731859 64.4058992,21.6939928 C64.0517454,21.9897031 63.8296333,22.3309305 63.7426267,22.7249095 L63.7536556,39.1764706 L54.2791204,39.1764706 L54.284635,17.1730313 L63.7558002,17.1618781 L63.7456903,18.5551228 C66.2529526,17.6761307 68.7608277,16.9273597 71.6418512,17.0223125 C73.2355436,17.1908161 75.0102957,17.3792146 76.2449324,18.7076503 C79.1740546,17.5847951 83.4900751,15.9986303 87.2460669,17.6616617 L87.2668994,17.6719106 Z M116.402068,36.6259097 C116.546698,37.4711851 117.059045,38.5170341 117.493237,39.2187376 L117.239909,39.6860319 L108.424012,39.6805451 L107.83411,38.6042136 C107.381352,38.7121211 106.924103,38.8316119 106.480029,38.9474448 C104.863038,39.3696252 103.202927,39.8030841 101.421242,39.8030841 C100.903206,39.8030841 100.37469,39.7662005 99.8341952,39.6820692 C97.8701497,39.3940111 95.7662644,38.8212479 95.0553871,36.7661285 C94.938305,36.5439122 94.9158467,36.2951763 94.8954846,36.0744842 C94.8817103,35.9187195 94.8682353,35.771185 94.825415,35.6568761 L94.8059512,35.6047514 L94.804454,30.2151688 C95.1302478,28.1932752 97.1961039,27.6500798 98.7043974,27.2535046 C98.8385478,27.2181451 98.9700032,27.1837 99.0972664,27.1489501 L105.402335,26.0177505 C106.063804,25.8595472 106.846847,25.4382812 107.031903,24.737797 C107.04388,24.5311268 107.062745,24.3162263 107.082209,24.0973631 C107.192703,22.8472823 107.30739,21.5542214 106.222509,20.942136 C105.679619,20.6595648 104.839682,20.6101834 104.301882,21.071686 L104.255768,21.1039973 C103.434995,21.5746446 103.479612,22.4988692 103.526924,23.4773523 C103.547586,23.9080678 103.568846,24.3537195 103.507161,24.7512093 L103.467335,25.0081754 L95.4545444,25.0081754 L95.4266962,24.7347488 C95.1455194,21.9535401 95.8761599,19.9484117 97.5982556,18.7748417 C100.508241,17.0105238 104.067419,17.0269843 107.504124,17.0431399 L107.602641,17.0437495 L107.981136,17.0778898 C111.093545,17.3668624 114.621281,17.6945475 115.984944,21.1152757 C116.20713,21.8386217 116.44938,22.6311625 116.396079,23.5471569 L116.402068,36.6259097 Z M107.141499,34.996019 L107.146889,28.7172665 C106.807021,28.8291367 106.447091,28.9077812 106.095245,28.9845967 C105.073846,29.2077274 104.107843,29.41897 103.713777,30.3730673 L103.703595,34.4705035 C103.734139,34.7256407 103.793428,34.966756 103.871283,35.1511741 C104.205162,35.8153844 104.882801,36.2305538 105.581701,36.1900123 C106.29138,36.1482515 106.926798,35.6599244 107.141499,34.996019 Z" id="Combined-Shape" fill="#FFFFFF" fill-rule="nonzero"></path>
    </g>
</svg>