<?xml version="1.0" encoding="UTF-8"?>
<svg width="134px" height="50px" viewBox="0 0 134 50" version="1.1" xmlns="http://www.w3.org/2000/svg" xmlns:xlink="http://www.w3.org/1999/xlink">
    <!-- Generator: Sketch 53.2 (72643) - https://sketchapp.com -->
    <title>Logo / DagliBrugsen / DagliBrugsen box color</title>
    <desc>Created with Sketch.</desc>
    <g id="Logo-/-DagliBrugsen-/-DagliBrugsen-box-color" stroke="none" stroke-width="1" fill="none" fill-rule="evenodd">
        <path d="M4,0 L130,0 C132.209139,-4.05812251e-16 134,1.790861 134,4 L134,46 C134,48.209139 132.209139,50 130,50 L4,50 C1.790861,50 2.705415e-16,48.209139 0,46 L0,4 C-2.705415e-16,1.790861 1.790861,4.05812251e-16 4,0 Z" id="Rectangle-Copy-28" fill="#C31414"></path>
        <g id="Group" transform="translate(20.500000, 6.000000)" fill="#FFFFFF" fill-rule="nonzero">
            <path d="M17.2,1.57 C17.2154964,1.41060422 17.3498545,1.2892485 17.51,1.29 L17.96,1.29 C18.73,1.29 19.15,1.59 19.15,2.49 L19.15,9.4 C19.15,10.29 18.73,10.67 17.96,10.67 L17.51,10.67 C17.4287169,10.672711 17.3498162,10.6423048 17.2913735,10.5857474 C17.2329309,10.5291899 17.1999548,10.4513283 17.2,10.37 L17.2,1.57 Z M18.44,11.49 C19.247908,11.5283935 20.0327164,11.2142951 20.59105,10.6291001 C21.1493835,10.0439052 21.4262856,9.24521422 21.35,8.44 L21.35,3.53 C21.4259528,2.72394516 21.1492844,1.92447248 20.5913531,1.33778185 C20.0334218,0.751091216 19.2488521,0.434622765 18.44,0.47 L14.44,0.47 L14.36,0.55 L14.36,1.21 L14.44,1.29 L14.67,1.29 C14.7509059,1.27831785 14.8328767,1.30257513 14.894396,1.35640453 C14.9559154,1.41023392 14.9908391,1.4882594 14.99,1.57 L14.99,10.37 C14.9873902,10.4522316 14.952199,10.530053 14.8921778,10.5863229 C14.8321565,10.6425928 14.7522288,10.6726954 14.67,10.67 L14.44,10.67 L14.36,10.75 L14.36,11.41 L14.44,11.49 L18.44,11.49 Z" id="Shape"></path>
            <path d="M24.35,9.18 C24.35,8.44 24.47,8.18 24.98,7.85 L25.92,7.27 L25.92,9.54 C25.92,10.01 25.75,10.59 25.05,10.59 C24.68,10.59 24.35,10.4 24.35,9.77 L24.35,9.18 Z M24.22,11.65 C24.898904,11.6738995 25.5525473,11.3911437 26,10.88 L26,11.41 L26.08,11.49 L28.61,11.49 L28.69,11.41 L28.69,10.75 L28.61,10.67 L28.35,10.67 C28.2574082,10.6784532 28.1655464,10.6474544 28.097008,10.5846276 C28.0284697,10.5218008 27.9896149,10.4329761 27.99,10.34 L27.99,6 C28.0595079,5.28162518 27.8034006,4.56991209 27.2920932,4.06054145 C26.7807858,3.55117081 26.0681059,3.29776638 25.35,3.37 C23.85,3.37 22.59,4.22 22.59,5.37 C22.555506,5.65530975 22.6454286,5.94166885 22.8368331,6.1560419 C23.0282376,6.37041495 23.3026202,6.4920776 23.59,6.49 C23.8482714,6.51570232 24.1052278,6.42989822 24.2962365,6.25417015 C24.4872453,6.07844209 24.5941279,5.82951428 24.59,5.57 C24.5978076,5.16146829 24.3562824,4.78928186 23.98,4.63 C24.2433565,4.36569808 24.6075801,4.22729311 24.98,4.25 C25.2892562,4.23210497 25.5913081,4.34786583 25.8093924,4.56786318 C26.0274767,4.78786054 26.1405952,5.09091191 26.12,5.4 C26.1123636,5.92947438 25.8066482,6.40933152 25.33,6.64 L24.21,7.27 C22.87,8 22.35,8.44 22.35,9.6 L22.35,9.69 C22.2875981,10.2282276 22.4709689,10.7659306 22.8492226,11.153883 C23.2274762,11.5418354 23.7603654,11.7387581 24.3,11.69 L24.22,11.65 Z" id="Shape"></path>
            <path d="M19.28,18.26 L19.28,16.93 L19.14,16.79 L14.56,16.79 L14.41,16.93 L14.41,18.17 L14.56,18.32 L15.09,18.32 C15.53,18.32 15.77,18.53 15.77,18.94 L15.77,29.57 C15.77,29.99 15.53,30.19 15.09,30.19 L14.56,30.19 L14.41,30.34 L14.41,31.58 L14.56,31.73 L20.82,31.73 L20.97,31.58 L20.97,30.34 L20.82,30.19 L20.29,30.19 C19.84,30.19 19.61,29.99 19.61,29.57 L19.61,21.07 C19.61,19.47 20.29,18.17 21.76,18.17 C21.2850558,18.5088202 21.0170314,19.0675189 21.05,19.65 C21.0549442,20.1433998 21.2600105,20.6136469 21.6182134,20.952997 C21.9764162,21.2923471 22.4570535,21.4717138 22.95,21.45 C23.5506575,21.4294818 24.1176039,21.1673814 24.5223539,20.7230978 C24.9271038,20.2788141 25.1353867,19.6899652 25.1,19.09 C25.096186,18.366271 24.7931695,17.6763571 24.2628183,17.183888 C23.732467,16.691419 23.0220283,16.4402674 22.3,16.49 C21.0465476,16.4682607 19.8871027,17.1523331 19.3,18.26" id="Shape"></path>
            <path d="M5.26,22.28 L6.59,22.28 C7.23165986,22.188568 7.87893504,22.4044547 8.33724018,22.8627598 C8.79554531,23.321065 9.01143204,23.9683401 8.92,24.61 L8.92,28 C8.92,29.68 8,30.21 6.59,30.21 L5.79,30.21 C5.4,30.21 5.26,30.01 5.26,29.74 L5.26,22.28 Z M5.26,13.12 C5.26214032,12.9694285 5.32705628,12.8265901 5.43908083,12.7259579 C5.55110539,12.6253257 5.70006165,12.5760416 5.85,12.59 L6.35,12.59 C7.8,12.59 8.56,12.98 8.56,14.66 L8.56,14.66 L8.56,18.38 C8.56,20.06 7.83,20.57 6.41,20.57 L5.26,20.57 L5.26,13.12 Z M7.35,31.73 C10.45,31.73 13.08,30.16 13.11,26.44 L13.11,25.65 C13.1615458,23.5242443 11.7463042,21.6413937 9.69,21.1 C11.6279536,20.3288578 12.842153,18.390186 12.69,16.31 L12.69,16.13 C12.69,12.47 10.3,11.05 7.17,11.05 L0.17,11.05 L0.02,11.19 L0.02,12.43 L0.17,12.58 L0.61,12.58 C0.760633954,12.5628336 0.911407855,12.6109982 1.0241929,12.7123136 C1.13697795,12.8136289 1.200975,12.9583942 1.2,13.11 L1.2,29.63 C1.18400959,29.9440764 0.924482951,30.1904068 0.61,30.19 L0.15,30.19 L3.97015754e-13,30.34 L3.97015754e-13,31.58 L0.15,31.73 L7.35,31.73 Z" id="Shape"></path>
            <path d="M44.96,5.1 C46.57,4.1 47.42,2.88 47.42,1.81 C47.4569392,1.42561817 47.3287353,1.04365512 47.0673708,0.759397348 C46.8060062,0.475139577 46.4361252,0.31538979 46.05,0.32 C45.6951423,0.297760911 45.3470234,0.424124702 45.0890577,0.668812773 C44.831092,0.913500843 44.6865261,1.25446309 44.69,1.61 C44.6707231,1.94816624 44.791751,2.27931509 45.024543,2.52535546 C45.2573351,2.77139584 45.5812852,2.91054899 45.92,2.91 C45.4980283,3.52144611 45.0300023,4.09979256 44.52,4.64 L44.52,4.72 L44.88,5.1 L44.96,5.1 Z" id="Shape"></path>
            <polygon id="Shape" points="0.19 34.33 0.04 34.47 0.04 35.71 0.19 35.86 38.36 35.86 38.51 35.71 38.51 34.47 38.36 34.33"></polygon>
            <path d="M41.99,2.31 C42.6306503,2.31 43.15,1.79065031 43.15,1.15 C43.0941913,0.548272621 42.5893099,0.0880509139 41.985,0.0880509139 C41.3806901,0.0880509139 40.8758087,0.548272621 40.82,1.15 C40.8199885,1.4593916 40.9435742,1.75596779 41.163284,1.97379974 C41.3829938,2.1916317 41.6806199,2.31266717 41.99,2.31" id="Shape"></path>
            <path d="M31.55,12.07 L32.83,12.07 C33.6,12.07 34.34,12.07 34.34,12.9 C34.34,13.73 33.57,13.9 32.69,13.9 L32.1,13.9 C31.44,13.9 30.44,13.76 30.44,12.9 C30.44,12.24 31.05,12.02 31.55,12.02 L31.55,12.07 Z M31.35,5.12 C31.4894037,4.71722263 31.8687806,4.44707033 32.295,4.44707033 C32.7212194,4.44707033 33.1005963,4.71722263 33.24,5.12 L33.24,7.57 C33.0902667,7.96944982 32.7036208,8.22993237 32.2771785,8.21865083 C31.8507363,8.20736929 31.4784038,7.92680794 31.35,7.52 L31.35,5.12 Z M29.11,13.12 C29.1113658,13.6349131 29.3802607,14.1121069 29.82,14.38 C30.5462124,14.7599021 31.3617203,14.9361347 32.18,14.89 C34.01,14.89 35.96,14.36 35.96,12.39 C36.0054277,11.7038201 35.6664964,11.0490663 35.08,10.69 C34.6517364,10.4650027 34.1736956,10.351511 33.69,10.36 L31.35,10.28 C31.2175124,10.2855564 31.0886286,10.2360571 30.9939211,10.1432437 C30.8992136,10.0504304 30.847121,9.92257279 30.85,9.79 C30.85,9.48 31.07,9.29 31.43,9.21 C31.7157549,9.29343932 32.0123376,9.33388241 32.31,9.33 C33.1057892,9.39251073 33.890791,9.11483249 34.4702759,8.56584677 C35.0497608,8.01686104 35.3694352,7.248004 35.35,6.45 L35.35,6.22 C35.35,3.49 32.91,3.68 32.91,2.22 C32.8588112,1.8161497 33.1228838,1.43952154 33.52,1.35 C33.3887284,1.58177361 33.3198179,1.8436333 33.32,2.11 C33.3772752,2.63062833 33.8265701,3.01885407 34.35,3 C34.6507177,3.00341822 34.9392422,2.8812941 35.1461252,2.66302302 C35.3530082,2.44475195 35.4595117,2.15010355 35.44,1.85 C35.4203749,1.44218328 35.2331489,1.06058989 34.922619,0.795503432 C34.6120892,0.530416972 34.2058441,0.405388755 33.8,0.45 C33.2538033,0.44221124 32.7298875,0.666243092 32.3581896,1.06653318 C31.9864916,1.46682326 31.801829,2.00587588 31.85,2.55 L31.85,3.4 C30.36721,3.50012797 29.2166232,4.733837 29.22,6.22 L29.22,6.36 C29.1819364,7.38987559 29.7067335,8.35902649 30.59,8.89 C29.9542085,9.13403391 29.5148114,9.72119288 29.46,10.4 C29.4429172,11.0071818 29.8648013,11.5387558 30.46,11.66 C29.7156538,11.7505703 29.154575,12.3801778 29.15,13.13 L29.11,13.12 Z" id="Shape"></path>
            <path d="M69.63,20 C69.6170285,19.539346 69.8070998,19.0962546 70.1498283,18.788184 C70.4925569,18.4801134 70.9533292,18.3381768 71.41,18.4 C71.8657917,18.3377956 72.3258015,18.4799316 72.6670574,18.7884115 C73.0083133,19.0968915 73.1960204,19.5402622 73.18,20 L73.18,20 L73.18,22.83 L69.63,22.83 L69.63,20 Z M71.49,32 C74.77,32 76.66,30.23 76.66,26.84 L76.66,26.5 L76.52,26.35 L75.04,26.35 L74.89,26.5 L74.89,26.68 C74.89,28.42 74.42,29.99 72.26,29.99 C71.5387066,30.0567438 70.8254438,29.796868 70.3161465,29.2817612 C69.8068491,28.7666544 69.5550797,28.05049 69.63,27.33 L69.63,24.58 L76.63,24.58 L76.78,24.43 L76.78,21.9 C76.8858455,20.4512029 76.3626704,19.0269911 75.3441373,17.9912272 C74.3256043,16.9554633 72.9103688,16.4084719 71.46,16.49 C68.72,16.49 65.76,18.2 65.76,21.9 L65.76,26.59 C65.76,29.59 67.62,32.02 71.46,32.02 L71.49,32 Z" id="Shape"></path>
            <path d="M33.1,16.79 L32.96,16.93 L32.96,18.17 L33.1,18.32 L33.64,18.32 C34.08,18.32 34.31,18.53 34.31,18.94 L34.31,27.45 C34.31,29.34 33.1,29.66 32.42,29.66 C31.24,29.66 30.89,28.72 30.89,27.59 L30.89,16.93 L30.74,16.79 L25.84,16.79 L25.69,16.93 L25.69,18.17 L25.84,18.32 L26.35,18.32 C26.79,18.32 27.03,18.53 27.03,18.94 L27.03,27.83 C27.03,31.05 28.89,32.02 30.87,32.02 C32.2118558,32.1181207 33.515169,31.5451123 34.35,30.49 L34.35,31.58 L34.5,31.73 L39.35,31.73 L39.5,31.58 L39.5,30.34 L39.35,30.19 L38.82,30.19 C38.38,30.19 38.14,29.99 38.14,29.57 L38.14,18.94 C38.14,18.53 38.38,18.32 38.82,18.32 L39.35,18.32 L39.5,18.17 L39.5,16.93 L39.35,16.79 L33.1,16.79 Z" id="Shape"></path>
            <path d="M43.73,11.41 L43.73,10.75 L43.66,10.67 L43.35,10.67 C43.12,10.67 42.99,10.56 42.99,10.34 L42.99,4.69 C42.9832211,4.59430431 43.0197342,4.50061572 43.0894806,4.43474415 C43.159227,4.36887258 43.2548475,4.33776826 43.35,4.35 L43.64,4.35 L43.71,4.27 L43.71,3.6 L43.64,3.53 L40.35,3.53 L40.27,3.6 L40.27,4.27 L40.35,4.35 L40.63,4.35 C40.7243593,4.34132934 40.8178928,4.37363895 40.8867822,4.4387012 C40.9556716,4.50376345 40.993269,4.5952996 40.99,4.69 L40.99,10.34 C40.99,10.56 40.87,10.67 40.63,10.67 L40.35,10.67 L40.27,10.75 L40.27,11.41 L40.35,11.49 L43.69,11.49 L43.73,11.41 Z" id="Shape"></path>
            <path d="M47.25,36.34 L46.16,36.34 C44.92,36.34 43.03,36.07 43.03,34.48 C43.03,33.24 44.18,32.82 45.12,32.82 L47.51,32.82 C48.96,32.82 50.35,32.91 50.35,34.39 C50.35,35.87 48.9,36.31 47.25,36.31 L47.25,36.34 Z M44.74,19.77 C44.8363382,18.8649809 45.5998678,18.1784144 46.51,18.1784144 C47.4201322,18.1784144 48.1836618,18.8649809 48.28,19.77 L48.28,24.38 C48.2546486,24.8200846 48.0521334,25.2311376 47.7186422,25.5194097 C47.3851511,25.8076817 46.9491217,25.9485909 46.51,25.91 C46.0578819,25.9401346 45.6130951,25.7841407 45.2788398,25.4782121 C44.9445845,25.1722835 44.7499154,24.7430128 44.74,24.29 L44.74,19.77 Z M51.74,30.25 C50.939906,29.8262657 50.0452123,29.6129157 49.14,29.63 L44.65,29.45 C44.4018,29.4609206 44.1599261,29.3698888 43.980516,29.1980328 C43.8011058,29.0261767 43.6997599,28.78844 43.7,28.54 C43.7,27.95 44.12,27.59 44.8,27.45 C45.3352299,27.6095479 45.8915412,27.6870943 46.45,27.68 C49.35,27.68 52.21,26 52.21,22.28 L52.21,21.84 C52.21,16.73 47.63,17.08 47.63,14.27 C47.63,13.09 48.43,12.65 48.79,12.65 C48.5356308,13.0800577 48.4009737,13.5703477 48.4,14.07 C48.4123858,14.567347 48.6278263,15.0379446 48.9962037,15.372318 C49.3645811,15.7066913 49.8537806,15.87569 50.35,15.84 C50.9093551,15.841793 51.4439002,15.6092612 51.8239324,15.1988263 C52.2039647,14.7883915 52.3947515,14.2375649 52.35,13.68 C52.35,12.21 51.14,11.05 49.28,11.05 C48.2623785,11.0482953 47.2913021,11.4761682 46.6058277,12.228286 C45.9203532,12.9804038 45.584156,13.9869006 45.68,15 L45.68,16.6 C42.8975839,16.7848236 40.7385869,19.1014755 40.75,21.89 L40.75,22.15 C40.6918378,24.0769198 41.6884793,25.8823744 43.35,26.86 C42.1525397,27.3121484 41.3230965,28.4141785 41.22,29.69 C41.1893678,30.8056984 41.9445134,31.790308 43.03,32.05 C41.6365707,32.2203855 40.5846895,33.396269 40.57,34.8 C40.5662532,35.7661332 41.0715966,36.6628328 41.9,37.16 C43.2570213,37.893276 44.7895702,38.2392238 46.33,38.16 C49.76,38.16 53.42,37.16 53.42,33.46 C53.5104529,32.171646 52.8737402,30.940668 51.77,30.27 L51.74,30.25 Z" id="Shape"></path>
            <path d="M55.46,31.58 L55.78,30.52 C56.7953044,31.5307932 58.1889401,32.0679237 59.62,32 C62.62,32 64.7,30.2 64.7,27.46 C64.7,22.17 57.2,22.82 57.2,19.75 C57.2,18.66 58.11,18.12 59.15,18.12 C60.19,18.12 61.54,18.66 62.22,21.61 L62.37,21.73 L63.73,21.73 L63.87,21.58 L63.87,16.73 L63.73,16.58 L62.61,16.58 L62.4,16.73 L61.98,17.67 C61.1156759,16.8881009 59.9852663,16.4659859 58.82,16.49 C56.88,16.49 53.98,17.49 53.98,20.92 C53.98,26.27 61.13,25.32 61.13,28.63 C61.13,29.75 60.3,30.37 59.13,30.37 C57.13,30.37 55.91,28.6 55.64,26.37 L55.5,26.26 L54.13,26.26 L53.98,26.4 L53.98,31.54 L54.13,31.69 L55.25,31.69 L55.46,31.58 Z" id="Shape"></path>
            <polygon id="Shape" points="55.19 34.33 55.04 34.47 55.04 35.71 55.19 35.86 92.11 35.86 92.26 35.71 92.26 34.47 92.11 34.33"></polygon>
            <path d="M39.25,10.67 C39.01,10.67 38.89,10.56 38.89,10.34 L38.89,0.08 L38.81,4.4408921e-15 L36.2,4.4408921e-15 L36.12,0.08 L36.12,0.74 L36.2,0.82 L36.48,0.82 C36.5743593,0.811329342 36.6678928,0.843638954 36.7367822,0.908701203 C36.8056716,0.973763453 36.843269,1.0652996 36.84,1.16 L36.84,10.34 C36.84,10.56 36.72,10.67 36.48,10.67 L36.2,10.67 L36.12,10.75 L36.12,11.41 L36.2,11.49 L39.53,11.49 L39.61,11.41 L39.61,10.75 L39.53,10.67 L39.25,10.67 Z" id="Shape"></path>
            <path d="M92.11,30.19 L91.58,30.19 C91.13,30.19 90.9,29.99 90.9,29.57 L90.9,20.68 C90.9,17.46 88.71,16.49 86.9,16.49 C85.5853015,16.4238842 84.3168852,16.983916 83.48,18 L83.48,16.93 L83.35,16.79 L78.43,16.79 L78.29,16.93 L78.29,18.17 L78.43,18.32 L78.97,18.32 C79.41,18.32 79.64,18.53 79.64,18.94 L79.64,29.57 C79.64,29.99 79.41,30.19 78.97,30.19 L78.43,30.19 L78.29,30.34 L78.29,31.58 L78.43,31.73 L84.69,31.73 L84.84,31.58 L84.84,30.34 L84.69,30.19 L84.16,30.19 C83.72,30.19 83.48,29.99 83.48,29.57 L83.48,21.07 C83.3961131,20.4983588 83.5713808,19.9190738 83.9580979,19.4898179 C84.3448149,19.060562 84.9027348,18.8260087 85.48,18.85 C86.63,18.85 87.08,19.74 87.08,20.92 L87.08,20.92 L87.08,29.57 C87.08,29.99 86.84,30.19 86.4,30.19 L85.85,30.19 L85.7,30.34 L85.7,31.58 L85.85,31.73 L92.11,31.73 L92.26,31.58 L92.26,30.34 L92.11,30.19 Z" id="Shape"></path>
        </g>
    </g>
</svg>