<?xml version="1.0" encoding="utf-8"?>
<!-- Generator: Adobe Illustrator 21.1.0, SVG Export Plug-In . SVG Version: 6.00 Build 0)  -->
<svg version="1.1" id="Layer_1" xmlns="http://www.w3.org/2000/svg" xmlns:xlink="http://www.w3.org/1999/xlink" x="0px" y="0px"
	 viewBox="0 0 134 50" style="enable-background:new 0 0 134 50;" xml:space="preserve">
<style type="text/css">
	.st0{fill:#FFFFFF;}
</style>
<title>Logo / Fakta / Fakta white</title>
<desc>Created with Sketch.</desc>
<g>
	<g>
		<g>
			<path class="st0" d="M30.9,41.9v-1.1c0-0.1,0.1-0.2,0.2-0.2h3.2c0.1,0,0.2,0.1,0.2,0.2v1.1c0,0.1-0.1,0.2-0.2,0.2h-3.2
				C30.9,42,30.9,42,30.9,41.9z"/>
			<path class="st0" d="M37.1,41.4c0-1.6,1.1-2.4,2.4-2.4c1.4,0,2.2,0.8,2.2,2.2c0,0.1,0,0.2,0,0.3c0,0.1-0.1,0.2-0.2,0.2h-2.8
				c0.1,0.5,0.6,0.8,1.2,0.8c0.5,0,1-0.1,1.2-0.2c0.1,0,0.2,0,0.2,0.1l0.2,0.6c0.1,0.1,0,0.2-0.1,0.2c-0.4,0.3-1.1,0.5-2,0.5
				C38.2,43.7,37.1,42.9,37.1,41.4z M38.7,40.9h1.6v-0.1c0-0.4-0.2-0.8-0.7-0.8C39.2,40,38.8,40.3,38.7,40.9z"/>
			<path class="st0" d="M47.6,43.4c0,0.1-0.1,0.2-0.2,0.2h-1.3c-0.1,0-0.2-0.1-0.2-0.2v-2.3c0-0.5-0.3-0.9-0.8-0.9
				c-0.4,0-0.8,0.4-0.8,0.8v2.3c0,0.1-0.1,0.2-0.2,0.2h-1.3c-0.1,0-0.2-0.1-0.2-0.2v-4.1c0-0.1,0.1-0.2,0.2-0.2h1.3
				c0.1,0,0.2,0.1,0.2,0.2v1.3c0.1-0.8,0.8-1.5,1.7-1.5c1,0,1.6,0.7,1.6,1.9V43.4z"/>
			<path class="st0" d="M54.3,43.6c-0.1,0-0.2-0.1-0.2-0.2v-1.2c-0.2,0.9-0.7,1.5-1.6,1.5c-1.2,0-2.1-1-2.1-2.3
				c0-1.3,0.8-2.3,2.1-2.3c0.8,0,1.4,0.6,1.6,1.5v-3c0-0.1,0.1-0.2,0.2-0.2h1.3c0.1,0,0.2,0.1,0.2,0.2v5.9c0,0.1-0.1,0.2-0.2,0.2
				H54.3z M53.1,40.2c-0.6,0-1,0.5-1,1.2c0,0.7,0.4,1.2,1,1.2c0.6,0,1-0.5,1-1.2C54.1,40.7,53.7,40.2,53.1,40.2z"/>
			<path class="st0" d="M56.6,41.4c0-1.6,1.1-2.4,2.4-2.4c1.4,0,2.2,0.8,2.2,2.2c0,0.1,0,0.2,0,0.3c0,0.1-0.1,0.2-0.2,0.2h-2.8
				c0.1,0.5,0.6,0.8,1.2,0.8c0.5,0,1-0.1,1.2-0.2c0.1,0,0.2,0,0.2,0.1l0.2,0.6c0.1,0.1,0,0.2-0.1,0.2c-0.4,0.3-1.1,0.5-2,0.5
				C57.7,43.7,56.6,42.9,56.6,41.4z M58.2,40.9h1.6v-0.1c0-0.4-0.2-0.8-0.7-0.8C58.6,40,58.3,40.3,58.2,40.9z"/>
			<path class="st0" d="M62.1,43.4v-5.9c0-0.1,0.1-0.2,0.2-0.2h1.3c0.1,0,0.2,0.1,0.2,0.2v5.9c0,0.1-0.1,0.2-0.2,0.2h-1.3
				C62.1,43.6,62.1,43.5,62.1,43.4z"/>
			<path class="st0" d="M69.8,42.3c-0.1,0.6-0.6,1.4-1.5,1.4c-0.8,0-1.5-0.5-1.5-1.4c0-1,0.8-1.5,1.8-1.5c0.5,0,0.9,0.1,1.2,0.2V41
				c0-0.6-0.4-0.8-1-0.8c-0.4,0-0.9,0.1-1.1,0.2c-0.1,0-0.2,0-0.2-0.1l-0.2-0.6c0-0.1,0-0.2,0.1-0.2c0.4-0.2,1.1-0.4,1.9-0.4
				c1.4,0,2.2,0.6,2.2,1.9v2.5c0,0.1-0.1,0.2-0.2,0.2H70c-0.1,0-0.2-0.1-0.2-0.2V42.3z M68.3,42.2c0,0.3,0.2,0.5,0.6,0.5
				c0.4,0,0.8-0.4,0.9-0.8c-0.2-0.1-0.5-0.2-0.9-0.2S68.3,41.8,68.3,42.2z"/>
			<path class="st0" d="M76.1,40.2c0,0.1-0.1,0.2-0.2,0.2h-1.2v3.1c0,0.1-0.1,0.2-0.2,0.2h-1.3c-0.1,0-0.2-0.1-0.2-0.2v-3.1h-1
				c-0.1,0-0.2-0.1-0.2-0.2v-0.9c0-0.1,0.1-0.2,0.2-0.2h1v-0.3c0-0.9,0.6-1.6,1.7-1.6c0.6,0,1.1,0.1,1.3,0.2c0.1,0,0.1,0.1,0.1,0.2
				L76,38.3c0,0.1-0.1,0.2-0.2,0.1c-0.1,0-0.3-0.1-0.5-0.1c-0.3,0-0.5,0.2-0.5,0.5v0.1h1.2c0.1,0,0.2,0.1,0.2,0.2V40.2z"/>
		</g>
		<g>
			<path class="st0" d="M100.3,38c-1.6,0-2.8,0.7-3.3,1.8c-0.5-1.2-1.7-1.8-3.3-1.8c-1.4,0-2.5,0.5-3.1,1.4
				c-0.6-0.9-1.7-1.4-3.1-1.4c-2,0-3.5,1-3.5,2.8c0,0.5,0.1,0.9,0.3,1.2c0,0,0,0-0.1,0c-0.1,0-0.2,0.1-0.3,0.1
				c-0.3,0.1-0.6,0.1-0.9,0.1c-0.9,0-1.7-0.6-1.7-1.4c0-0.9,0.7-1.5,1.6-1.5c0.3,0,0.6,0,0.9,0.1c0,0,0.3-0.7,0.8-1.1
				c-0.1,0-0.2-0.1-0.3-0.1l0,0c-0.5-0.2-1-0.3-1.6-0.3c-2,0-3.5,1-3.5,2.8c0,1.8,1.5,2.8,3.5,2.8c0.5,0,1.1-0.1,1.6-0.2
				c0.2,0,0.6-0.2,0.9-0.4c0.6,0.4,1.4,0.6,2.3,0.6c1.4,0,2.5-0.5,3.1-1.4c0.6,0.9,1.7,1.4,3.1,1.4c1.4,0,2.5-0.5,3.1-1.4v2.9h2.1
				v-1.6c0.4,0.1,0.9,0.2,1.3,0.2c2,0,3.5-1,3.5-2.8C103.7,39,102.2,38,100.3,38 M87.5,42.4c-0.9,0-1.3-0.7-1.3-1.5
				c0-0.8,0.4-1.5,1.3-1.5s1.3,0.7,1.3,1.5C88.9,41.6,88.5,42.4,87.5,42.4 M93.7,42.4c-0.9,0-1.3-0.7-1.3-1.5c0-0.8,0.4-1.5,1.3-1.5
				c0.9,0,1.3,0.7,1.3,1.5C95,41.6,94.7,42.4,93.7,42.4 M100.3,42.4c-0.9,0-1.3-0.7-1.3-1.5c0-0.8,0.4-1.5,1.3-1.5s1.3,0.7,1.3,1.5
				C101.6,41.6,101.2,42.4,100.3,42.4"/>
		</g>
	</g>
	<g>
		<path class="st0" d="M56.3,29.7c-0.4,1.5-1.6,2.5-3.6,2.5c-2.2,0-3.1-1-3.6-2.5c-0.1,0.1-1,2.5-5.5,2.5c-3,0-6.2-1.7-6.2-5.2
			c0-4.8,5.6-5.5,7.3-5.5c1.6,0,2.9,0.2,4.3,0.5c0-2.2-1.5-2.8-4-2.8c-2.1,0-3.6,0.6-4.7,1.3c-1.1-0.5-1.7-1.2-1.7-2.4
			c0-3,3.8-3.7,7.5-3.7c5.5,0,8.5,2,8.7,6.8c0,0.9,0,2,0,3C54.8,26.5,54.6,28.9,56.3,29.7 M43.3,26.3c0,1.4,1.1,1.8,2.6,1.8
			c1.5,0,3.1-1.2,3-3C47.3,24.4,43.3,24.3,43.3,26.3z"/>
		<path class="st0" d="M111.3,29.7c-0.4,1.5-1.6,2.5-3.6,2.5c-2.2,0-3.1-1-3.6-2.5c-0.1,0.1-1,2.5-5.5,2.5c-3,0-6.2-1.7-6.2-5.2
			c0-4.8,5.6-5.5,7.3-5.5c1.6,0,2.9,0.2,4.3,0.5c0-2.2-1.4-2.8-4-2.8c-2.1,0-3.6,0.6-4.7,1.3c-1.1-0.5-1.7-1.2-1.7-2.4
			c0-3,3.8-3.7,7.5-3.7c5.6,0,8.5,2,8.7,6.8c0,0.9,0,2,0,3C109.7,26.5,109.6,28.9,111.3,29.7 M98.3,26.3c0,1.4,1.1,1.8,2.6,1.8
			c1.5,0,3.1-1.2,3-3C102.2,24.4,98.3,24.3,98.3,26.3z"/>
		<path class="st0" d="M90.6,26.2c-0.6,0.3-1.6,0.6-2.4,0.6c-1,0-2.3-0.2-2.3-2.6c0-0.8,0-4.4,0-4.6c0,0,0.5,0,1.8,0
			c2.7,0,3-3,2.6-5.1c0,0-2,0.1-4.5,0.1c0,0,0-5.9,0-6c0,0-6.2-1.9-6.2,2l0,3.9h-0.9c-2.4,0-2.8,2.8-2.3,5c0,0,2.6-0.1,3.2,0
			c0,0,0,4.1,0,6.6c0,3.4,2,6.1,6.3,6.1c1.3,0,5.4-0.3,5.4-3.5C91.3,28,91.1,27,90.6,26.2"/>
		<path class="st0" d="M63.9,6c0,0-6.2-1.9-6.2,2c0,0,0,23,0,24h6.2C63.9,30.3,63.9,6.1,63.9,6"/>
		<path class="st0" d="M75.7,28.8c-1.3-1.6-4-5.3-4.6-6.4c0.3-0.7,3.9-6,4-6.2c0.3-0.4,0.6-0.9,0.8-1c-0.6-0.3-2-0.6-3.7-0.6
			c-2.1,0-3.6,0.4-4.3,1.6c-0.4,0.7-2.8,5.3-3.6,6.6c0.6,1.4,1.5,2.8,2.2,4c1.2,2,2.1,3.5,2.4,3.9c0.5,0.7,1.1,1.5,3.2,1.5
			c3,0,4.9-1.8,4.9-1.8C76.9,30.2,76.4,29.6,75.7,28.8"/>
		<path class="st0" d="M37.7,11.1c-1.5-0.8-5.1-1.4-5.1,2l0,1.5c2.8,0,4.9-0.1,4.9-0.1c0.4,2.1,0.1,5.1-2.6,5.1c-1.4,0-2.1,0-2.1,0
			c0,1.6,0,12.5,0,12.5h-6.3V19.5c-1.9-0.1-3.5,0.1-3.5,0.1c-0.5-2.2,0-5.1,2.3-5l1.2,0l0-2c0-4.1,2.3-7.7,7.4-7.7
			c2.1,0,3.3,0.4,4.2,1c0.8,0.6,1.1,1.4,1.1,2.5C39.2,9.1,39,10.2,37.7,11.1"/>
	</g>
</g>
</svg>
