<?xml version="1.0" encoding="UTF-8"?>
<svg width="134px" height="50px" viewBox="0 0 134 50" version="1.1" xmlns="http://www.w3.org/2000/svg" xmlns:xlink="http://www.w3.org/1999/xlink">
    <!-- Generator: Sketch 53.2 (72643) - https://sketchapp.com -->
    <title>Logo / Kvickly / Kvickly box dark</title>
    <desc>Created with Sketch.</desc>
    <g id="Logo-/-Kvickly-/-Kvickly-box-dark" stroke="none" stroke-width="1" fill="none" fill-rule="evenodd">
        <path d="M4,0 L130,0 C132.209139,-4.05812251e-16 134,1.790861 134,4 L134,46 C134,48.209139 132.209139,50 130,50 L4,50 C1.790861,50 2.705415e-16,48.209139 0,46 L0,4 C-2.705415e-16,1.790861 1.790861,4.05812251e-16 4,0 Z" id="Rectangle-Copy-32" fill="#333333" opacity="0.101376488"></path>
        <path d="M54.8926747,20.4270869 L56.3658816,20.4270869 C56.5683328,20.4270869 56.7027136,20.5614791 56.7027136,20.763361 L56.7027136,26.5677573 C57.7478317,22.7563573 61.3925419,19.7518978 65.6093971,19.7518978 C68.2069352,19.7518978 70.5351252,21.034493 72.2222193,22.7563573 L72.2222193,14.3536126 C72.2222193,14.1517308 72.3566,14.0173385 72.5599314,14.0173385 L78.7000743,14.0173385 C78.9028189,14.0173385 79.0371997,14.1517308 79.0371997,14.3536126 L79.0371997,26.1639936 L83.3893156,20.5961043 C83.457386,20.4948699 83.5586117,20.4270869 83.6938725,20.4270869 L91.0815846,20.4270869 C91.3852614,20.4270869 91.5196422,20.7651216 91.3183644,21.034493 L86.054924,27.446002 L92.0269443,36.1515694 L92.0269443,14.3536126 C92.0269443,14.1517308 92.1619118,14.0173385 92.3640697,14.0173385 L98.3014674,14.0173385 C98.504212,14.0173385 98.6391795,14.1517308 98.6391795,14.3536126 L98.6391795,20.4270869 L105.423939,20.4270869 C105.592648,20.4270869 105.761651,20.5280278 105.828841,20.6970452 L109.907795,29.1666926 L114.260204,20.6292622 C114.327688,20.5280278 114.429501,20.4270869 114.563882,20.4270869 L121.681951,20.4270869 C121.918144,20.4270869 122.087148,20.6641807 121.951886,20.9344324 L110.616375,42.8309826 C110.549184,42.9662552 110.380474,43 110.244627,43 L103.395611,43 C103.194334,43 102.991002,42.6954166 103.092228,42.5278664 L106.027772,36.5565068 L98.6391795,22.9585326 L98.6391795,37.0958365 C98.6391795,37.2977183 98.504212,37.4329909 98.3014674,37.4329909 L84.3343819,37.4329909 C84.1994138,37.4329909 84.064153,37.2977183 83.9969626,37.1961905 L79.0371997,28.9301856 L79.0371997,37.0958365 C79.0371997,37.2977183 78.9028189,37.4329909 78.7000743,37.4329909 L72.5599314,37.4329909 C72.3566,37.4329909 72.2222193,37.2977183 72.2222193,37.0958365 L72.2222193,35.1057746 C70.5351252,36.9943087 68.2069352,38.0744352 65.4072391,38.0744352 C61.3925419,38.0744352 57.7478317,35.1057746 56.7027136,31.0558136 L56.7027136,32.5734486 L56.7027136,37.0958365 C56.7027136,37.2977183 56.5677461,37.4329909 56.3650013,37.4329909 L50.4273102,37.4329909 C50.2248589,37.4329909 50.0904782,37.2977183 50.0904782,37.0958365 L50.0904782,24.8816918 L41.2166564,37.8716731 C41.0819822,38.0744352 40.8114604,38.0744352 40.6770796,37.8716731 L29.8808507,21.710269 L27.5529542,25.1173185 L35.4811231,36.8919006 C35.6495391,37.1630326 35.4811231,37.4329909 35.2114814,37.4329909 L26.2373142,37.4329909 C26.1014664,37.4329909 26.001121,37.3652079 25.9333438,37.264267 L19.6582338,26.3667557 L19.6582338,37.0958365 C19.6582338,37.2977183 19.5232663,37.4329909 19.3211084,37.4329909 L12.3374188,37.4329909 C12.1346741,37.4329909 12,37.2977183 12,37.0958365 L12,14.3536126 C12,14.1517308 12.1346741,14.0173385 12.3374188,14.0173385 L19.3211084,14.0173385 C19.5232663,14.0173385 19.6582338,14.1517308 19.6582338,14.3536126 L19.6582338,23.3972148 L26.1701238,14.1517308 C26.2373142,14.0507899 26.3382464,14.0173385 26.4732139,14.0173385 L34.7396819,14.0173385 C35.0430654,14.0173385 35.1437042,14.3882377 35.0093235,14.5898261 L30.9608843,20.4270869 L37.1344753,20.4270869 C37.2691494,20.4270869 37.4044104,20.5280278 37.4718941,20.6292622 L40.9470147,26.1639936 L44.489619,20.5961043 C44.5573962,20.4948699 44.6923637,20.4270869 44.826451,20.4270869 L52.6214218,20.4270869 C51.0796127,19.9440081 49.9611489,18.5031371 49.9611489,16.8002985 C49.9611489,14.70148 51.6602714,13 53.75696,13 C55.8539642,13 57.5534022,14.70148 57.5534022,16.8002985 C57.5534022,18.5031371 56.4347307,19.9440081 54.8926747,20.4270869 Z M72.2222193,33.1758663 L72.2222193,24.6783428 L67.5907791,27.4433611 C67.1269016,26.8142409 66.3825263,26.4043152 65.5404463,26.4043152 C64.1329696,26.4043152 62.9916138,27.5463561 62.9916138,28.9542471 C62.9916138,30.3624316 64.1329696,31.5038856 65.5404463,31.5038856 C66.3748977,31.5038856 67.1131114,31.1015891 67.5781626,30.4821523 L72.2222193,33.1758663 Z" id="Combined-Shape-Copy-2" fill="#FFFFFF" fill-rule="nonzero"></path>
    </g>
</svg>